{
.appVersion = "3436";
.formatVersion = 3;
DisplayStrings = (
"Ich rufe: also komm; danke
Somit: haben wir; hinauf: das
Er will? Ich soll! Er kann
hinauf! herauf? Su? Ka!
¿Spanisch? ¡Natürlich!
was?! wie!? was!! wie??
Wer vvAAtt TT. Ykann, kann. Wer, der.
Sauf, rauf. SuAO, OK Ka. Sag, sag.
luv. law. myVYVWVHTVWO.OTWVYVYourLovepage luv, law, my,
(DAT) (fünf) (young) (u)
(lall) (pas cinq) (gaz) (§)
(jagen) (Jedermann)
[greif] [jung] [JUT] [hohl]
reif“ ruf‘ seif“ auf*  ho“
T. S. Eliot L. W. Dupont
V. K. Smith P. A. Meier
A. Y. Jones F. R. Miller
X. ä. Schulze
sic (!) ..., nun (?) ... da
hinauf ...; dahin ...:
hinauf ...! hin ...? Toll“, leg“.
nun (...) und ([...] sein
‹›«»„“”‚‘’
«habe recht» «die»
»Wir« »Tim« »Viel« »Ybbs«
«Wir» «Tim» «Viel» «Ybbs»
»OUT« »MIV« »JAW« »AY«
«OUT» «MIV» «JAW» «AY»
›OUT‹ ›MIV‹ ›JAW‹ ›AY‹
‹OUT› ‹MIV› ‹JAW› ‹AY›
‚ja‘ ‚Ja‘ „ja“ „Ja“ ‚ga‘  „ga“
„Tag“ „Vau“ „Wal“ „Yep“
‚VTag‘ ‚Vau‘ ‚AWal‘ ‚Yep‘
“Bus” “Van” “Jon” “lone” “AlAW”
‘Bus“ ‘Van“ ‘Jon“ ‘lone“ ‘Al“
»– bei –« »— und —«›– bei –‹ ›— und —‹
«– bei –» «— und —»‹– bei –› ‹— und —›
»sie«. »das«, »an«; »ich«:
«sie». «das», «an»; «ich»:
»sie.« »das,« »an!« »ich?«
«sie.» «das,» «an!» «ich?»
›sie‹. ›da‹, ›an‹; ›ich‹: 
‹sie›. ‹das›, ‹an›; ‹ich›:
›sie.‹ ›das,‹ ›an!‹ ›ich?‹
‹sie.› ‹das,› ‹an!› ‹ich?›
Mir!, das?, Ich!: Sie?:
Mir!; das?; (»sie«) (›sie‹)
nun –, hier –.60 nun –: hier –;
Eil-Tat-Van-Wal-Alk-
auf 48–67 und 25—37 von
if–then well—sure
USA//Kanada SWF//Abend
Gauß//Ohm 41//56 den//die
auf//fall den//im den//ärger
da//leider auf//aber I//I
etwa 50% haben 37° im
£50 und ¥20 sind $30 und €60
den §235 sowie #35 
4mal Seite 3f und 12.
",
"WAή",
"‘A’",
"΅ΐ",
"Ϊϊ",
"A„A",
"AάA",
"Aό",
"ĠĠ",
"́Á",
"̣EẸ",
"̇̇İ",
"̈Ḯ",
"  ̇   İ",
"̈Ï",
"LḶ",
"̦Ļ",
"̦Ț",
"BḄḅ",
"BḂḃ",
"BḂḃ",
"̊Åå",
"̋Őő",
"΅/dieresistonoscomb",
"/dieresistonoscomb ΰ/dieresistonoscomb",
"ΐΰ/dieresistonoscomb",
"/dieresistonoscomb ΰ",
"΅",
"/dieresistonoscomb/dieresistonoscomb Υΰ",
"/dieresistonoscomb.alt Υ/dieresistonoscomb.alt ΰ",

glyphs = (
{
glyphname = A;
kernLeft = A;
kernRight = A;
lastChange = "2026-06-17 16:38:56 +0000";
layers = (
{
anchors = (
{
name = bottom;
pos = (320,0);
},
{
name = ogonek;
pos = (556,66);
},
{
name = top;
pos = (320,680);
},
{
name = topleft;
pos = (152,680);
}
);
layerId = "FDF8D1BA-B4CE-4A91-B9C2-23316F7DE4E8";
shapes = (
{
closed = 1;
nodes = (
(186,134,l),
(454,134,l),
(490,48,ls),
(524,-34,o),
(658,-2,o),
(616,104,cs),
(420,602,ls),
(396,664,o),
(356,680,o),
(320,680,cs),
(284,680,o),
(244,664,o),
(220,602,cs),
(24,104,ls),
(-18,-2,o),
(116,-34,o),
(150,48,cs)
);
},
{
closed = 1;
nodes = (
(320,498,l),
(404,270,l),
(236,270,l)
);
}
);
width = 640;
}
);
unicode = 65;
},
{
glyphname = "Alpha-latin";
kernLeft = O;
lastChange = "2026-06-17 19:31:43 +0000";
layers = (
{
anchors = (
{
name = bottom;
pos = (366,0);
},
{
name = center;
pos = (357,340);
},
{
name = ogonek;
pos = (620,70);
},
{
name = top;
pos = (366,680);
},
{
name = topleft;
pos = (494,680);
},
{
name = topright;
pos = (681,680);
}
);
layerId = "FDF8D1BA-B4CE-4A91-B9C2-23316F7DE4E8";
shapes = (
{
closed = 1;
nodes = (
(427,-10,o),
(495,15,o),
(552,59,c),
(567,-23,o),
(690,-18,o),
(690,76,cs),
(690,604,ls),
(690,697,o),
(568,703,o),
(552,623,c),
(496,665,o),
(428,690,o),
(353,690,cs),
(169,690,o),
(21,534,o),
(21,342,cs),
(21,150,o),
(171,-10,o),
(353,-10,cs)
);
},
{
closed = 1;
nodes = (
(245,126,o),
(161,226,o),
(161,342,cs),
(161,458,o),
(245,554,o),
(353,554,cs),
(463,554,o),
(549,458,o),
(549,342,cs),
(549,226,o),
(463,126,o),
(353,126,cs)
);
}
);
width = 732;
}
);
tags = (
"to-flat"
);
unicode = 11373;
},
{
glyphname = Aogonek;
kernLeft = A;
kernRight = A;
lastChange = "2026-06-17 19:31:43 +0000";
layers = (
{
anchors = (
{
name = bottom;
pos = (548,-258);
},
{
name = ogonek;
pos = (556,66);
},
{
name = top;
pos = (320,680);
},
{
name = topleft;
pos = (152,680);
}
);
layerId = "FDF8D1BA-B4CE-4A91-B9C2-23316F7DE4E8";
shapes = (
{
closed = 1;
nodes = (
(650,-177,o),
(650,-47,o),
(548,-47,cs),
(512,-47,o),
(512,-2,o),
(548,-2,cs),
(608,-2,o),
(632,45,o),
(622,83,cs),
(621,89,o),
(619,96,o),
(616,104,cs),
(420,602,ls),
(396,664,o),
(356,680,o),
(320,680,cs),
(284,680,o),
(244,664,o),
(220,602,cs),
(24,104,ls),
(-18,-2,o),
(116,-34,o),
(150,48,cs),
(186,134,l),
(454,134,l),
(463,112,l),
(416,86,o),
(382,37,o),
(382,-22,cs),
(382,-111,o),
(460,-177,o),
(548,-177,cs)
);
},
{
closed = 1;
nodes = (
(320,498,l),
(404,270,l),
(236,270,l)
);
}
);
width = 640;
}
);
tags = (
"to-flat"
);
unicode = 260;
},
{
glyphname = AE;
kernLeft = A;
lastChange = "2026-06-08 20:19:09 +0000";
layers = (
{
layerId = "FDF8D1BA-B4CE-4A91-B9C2-23316F7DE4E8";
shapes = (
{
closed = 1;
nodes = (
(814,-2,ls),
(914,-2,o),
(914,134,o),
(812,134,cs),
(566,134,l),
(566,270,l),
(770,270,ls),
(872,270,o),
(872,406,o),
(770,406,cs),
(566,406,l),
(566,544,l),
(812,544,ls),
(914,544,o),
(914,680,o),
(812,680,cs),
(392,680,ls),
(306,680,o),
(266,646,o),
(236,578,cs),
(24,100,ls),
(-16,12,o),
(112,-46,o),
(154,48,cs),
(192,134,l),
(426,134,l),
(426,96,ls),
(426,36,o),
(462,-2,o),
(532,-2,cs)
);
},
{
closed = 1;
nodes = (
(372,544,l),
(426,544,l),
(426,270,l),
(250,270,l)
);
}
);
width = 908;
}
);
unicode = 198;
},
{
glyphname = B;
kernRight = B;
lastChange = "2026-06-17 17:35:14 +0000";
layers = (
{
anchors = (
{
name = bottom;
pos = (292,0);
},
{
name = center;
pos = (244,350);
},
{
name = top;
pos = (254,690);
}
);
layerId = "FDF8D1BA-B4CE-4A91-B9C2-23316F7DE4E8";
shapes = (
{
closed = 1;
nodes = (
(336,0,ls),
(472,0,o),
(544,108,o),
(544,204,cs),
(544,276,o),
(498,336,o),
(462,354,c),
(478,374,o),
(512,406,o),
(512,490,cs),
(512,590,o),
(426,680,o),
(292,680,cs),
(132,680,ls),
(74,680,o),
(42,646,o),
(42,592,cs),
(42,88,ls),
(42,34,o),
(74,0,o),
(132,0,cs)
);
},
{
closed = 1;
nodes = (
(180,276,l),
(328,276,ls),
(430,276,o),
(430,136,o),
(328,136,cs),
(180,136,l)
);
},
{
closed = 1;
nodes = (
(180,544,l),
(292,544,ls),
(404,544,o),
(404,406,o),
(292,406,cs),
(180,406,l)
);
}
);
width = 562;
}
);
unicode = 66;
},
{
glyphname = Bhook;
kernLeft = "Che-cy";
lastChange = "2026-06-17 19:31:43 +0000";
layers = (
{
anchors = (
{
name = bottom;
pos = (436,0);
},
{
name = center;
pos = (436,350);
},
{
name = top;
pos = (436,690);
}
);
layerId = "FDF8D1BA-B4CE-4A91-B9C2-23316F7DE4E8";
shapes = (
{
closed = 1;
nodes = (
(528,0,ls),
(664,0,o),
(736,108,o),
(736,204,cs),
(736,276,o),
(690,336,o),
(654,354,c),
(670,374,o),
(704,406,o),
(704,490,cs),
(704,590,o),
(618,680,o),
(484,680,cs),
(258,680,ls),
(110,680,o),
(18,562,o),
(18,436,cs),
(18,332,o),
(154,332,o),
(154,436,cs),
(154,493,o),
(191,527,o),
(234,537,c),
(234,88,ls),
(234,34,o),
(266,0,o),
(324,0,cs)
);
},
{
closed = 1;
nodes = (
(372,276,l),
(520,276,ls),
(622,276,o),
(622,136,o),
(520,136,cs),
(372,136,l)
);
},
{
closed = 1;
nodes = (
(372,544,l),
(484,544,ls),
(596,544,o),
(596,406,o),
(484,406,cs),
(372,406,l)
);
}
);
width = 754;
}
);
tags = (
"to-flat"
);
unicode = 385;
},
{
glyphname = Bstroke;
kernLeft = Lstroke;
lastChange = "2026-06-17 19:31:43 +0000";
layers = (
{
anchors = (
{
name = bottom;
pos = (345,0);
},
{
name = center;
pos = (345,350);
},
{
name = top;
pos = (345,690);
}
);
layerId = "FDF8D1BA-B4CE-4A91-B9C2-23316F7DE4E8";
shapes = (
{
closed = 1;
nodes = (
(437,0,ls),
(583,0,o),
(655,101,o),
(655,214,cs),
(655,306,o),
(610,362,o),
(570,388,c),
(585,408,o),
(611,441,o),
(611,504,cs),
(611,604,o),
(537,680,o),
(403,680,cs),
(233,680,ls),
(175,680,o),
(143,646,o),
(143,592,cs),
(143,283,l),
(92,283,ls),
(-11,283,o),
(-11,153,o),
(92,153,cs),
(143,153,l),
(143,88,ls),
(143,34,o),
(175,0,o),
(233,0,cs)
);
},
{
closed = 1;
nodes = (
(281,153,l),
(328,153,ls),
(435,153,o),
(435,283,o),
(328,283,cs),
(281,283,l),
(281,310,l),
(431,310,ls),
(560,310,o),
(570,127,o),
(431,127,cs),
(281,127,l)
);
},
{
closed = 1;
nodes = (
(281,554,l),
(413,554,ls),
(508,554,o),
(509,430,o),
(408,430,cs),
(281,430,l)
);
}
);
width = 674;
}
);
tags = (
"to-flat"
);
unicode = 579;
},
{
glyphname = C;
kernLeft = O;
kernRight = C;
lastChange = "2026-06-08 20:19:09 +0000";
layers = (
{
anchors = (
{
name = bottom;
pos = (326,-10);
},
{
name = top;
pos = (336,690);
}
);
layerId = "FDF8D1BA-B4CE-4A91-B9C2-23316F7DE4E8";
shapes = (
{
closed = 1;
nodes = (
(434,-10,o),
(514,18,o),
(574,78,cs),
(640,152,o),
(554,246,o),
(480,176,cs),
(446,146,o),
(398,126,o),
(352,126,cs),
(244,126,o),
(162,228,o),
(162,348,cs),
(162,534,o),
(354,614,o),
(478,502,cs),
(552,434,o),
(636,528,o),
(574,598,cs),
(520,660,o),
(434,690,o),
(352,690,cs),
(162,690,o),
(22,534,o),
(22,348,cs),
(22,152,o),
(164,-10,o),
(352,-10,cs)
);
}
);
width = 618;
}
);
unicode = 67;
},
{
glyphname = Ccedilla;
kernLeft = O;
kernRight = C;
lastChange = "2026-06-17 19:31:43 +0000";
layers = (
{
anchors = (
{
name = bottom;
pos = (326,-360);
},
{
name = top;
pos = (336,690);
}
);
guides = (
{
pos = (324.146,-284.133);
}
);
layerId = "FDF8D1BA-B4CE-4A91-B9C2-23316F7DE4E8";
shapes = (
{
closed = 1;
nodes = (
(414,-285,o),
(492,-219,o),
(492,-130,cs),
(492,-76,o),
(464,-31,o),
(422,-3,c),
(479,9,o),
(531,35,o),
(574,78,c),
(640,152,o),
(554,246,o),
(480,176,cs),
(446,146,o),
(398,126,o),
(352,126,cs),
(244,126,o),
(162,228,o),
(162,348,cs),
(162,534,o),
(354,614,o),
(478,502,cs),
(552,434,o),
(636,528,o),
(574,598,cs),
(520,660,o),
(434,690,o),
(352,690,cs),
(162,690,o),
(22,534,o),
(22,348,cs),
(22,183,o),
(122,43,o),
(266,2,c),
(231,-38,o),
(251,-110,o),
(326,-110,cs),
(362,-110,o),
(362,-155,o),
(326,-155,cs),
(224,-155,o),
(224,-285,o),
(326,-285,cs)
);
}
);
width = 618;
}
);
tags = (
"to-flat"
);
unicode = 199;
},
{
glyphname = Chook;
kernLeft = O;
kernRight = T;
lastChange = "2026-06-17 19:31:43 +0000";
layers = (
{
anchors = (
{
name = bottom;
pos = (325,-10);
},
{
name = top;
pos = (335,690);
}
);
layerId = "FDF8D1BA-B4CE-4A91-B9C2-23316F7DE4E8";
shapes = (
{
closed = 1;
nodes = (
(433,-10,o),
(513,18,o),
(573,78,c),
(639,152,o),
(553,246,o),
(479,176,cs),
(445,146,o),
(397,126,o),
(351,126,cs),
(243,126,o),
(161,228,o),
(161,348,cs),
(161,534,o),
(353,614,o),
(477,502,cs),
(531,452,o),
(591,490,o),
(594,540,cs),
(595,604,ls),
(595,654,o),
(631,708,o),
(699,708,cs),
(803,708,o),
(803,844,o),
(699,844,cs),
(593,844,o),
(492,779,o),
(463,671,c),
(427,684,o),
(389,690,o),
(351,690,cs),
(161,690,o),
(21,534,o),
(21,348,cs),
(21,152,o),
(163,-10,o),
(351,-10,cs)
);
}
);
width = 635;
}
);
tags = (
"to-flat"
);
unicode = 391;
},
{
glyphname = D;
kernLeft = H;
kernRight = O;
lastChange = "2026-06-08 21:42:03 +0000";
layers = (
{
anchors = (
{
name = bottom;
pos = (312,0);
},
{
name = center;
pos = (312,340);
},
{
name = top;
pos = (312,690);
}
);
layerId = "FDF8D1BA-B4CE-4A91-B9C2-23316F7DE4E8";
shapes = (
{
closed = 1;
nodes = (
(296,0,ls),
(530,0,o),
(654,156,o),
(654,340,cs),
(654,530,o),
(530,680,o),
(296,680,cs),
(140,680,ls),
(70,680,o),
(42,650,o),
(42,588,cs),
(42,88,ls),
(42,32,o),
(74,0,o),
(130,0,cs)
);
},
{
closed = 1;
nodes = (
(182,544,l),
(296,544,ls),
(442,544,o),
(514,452,o),
(514,340,cs),
(514,230,o),
(438,136,o),
(296,136,cs),
(182,136,l)
);
}
);
width = 676;
}
);
unicode = 68;
},
{
glyphname = Dcaron;
kernLeft = H;
kernRight = O;
lastChange = "2026-06-17 19:31:43 +0000";
layers = (
{
anchors = (
{
name = bottom;
pos = (312,0);
},
{
name = center;
pos = (312,340);
},
{
name = top;
pos = (312,1000);
}
);
layerId = "FDF8D1BA-B4CE-4A91-B9C2-23316F7DE4E8";
shapes = (
{
closed = 1;
nodes = (
(296,0,ls),
(530,0,o),
(654,156,o),
(654,340,cs),
(654,530,o),
(530,680,o),
(296,680,cs),
(140,680,ls),
(70,680,o),
(42,650,o),
(42,588,cs),
(42,88,ls),
(42,32,o),
(74,0,o),
(130,0,cs)
);
},
{
closed = 1;
nodes = (
(182,544,l),
(296,544,ls),
(442,544,o),
(514,452,o),
(514,340,cs),
(514,230,o),
(438,136,o),
(296,136,cs),
(182,136,l)
);
},
{
closed = 1;
nodes = (
(150.625,1070,o),
(58.625,964,o),
(136.625,894,cs),
(256.625,784,ls),
(290.625,752,o),
(332.625,752,o),
(366.625,784,cs),
(486.625,894,ls),
(564.625,964,o),
(470.625,1070,o),
(386.625,988,cs),
(312.625,916,l),
(236.625,988,ls)
);
}
);
width = 676;
}
);
tags = (
"to-decompose"
);
unicode = 270;
},
{
glyphname = Dcedilla;
kernLeft = H;
kernRight = O;
lastChange = "2026-06-17 19:31:43 +0000";
layers = (
{
anchors = (
{
name = bottom;
pos = (312,-350);
},
{
name = center;
pos = (312,340);
},
{
name = top;
pos = (312,690);
}
);
layerId = "FDF8D1BA-B4CE-4A91-B9C2-23316F7DE4E8";
shapes = (
{
closed = 1;
nodes = (
(400,-275,o),
(478,-209,o),
(478,-120,cs),
(478,-63,o),
(446,-15,o),
(401,12,c),
(566,51,o),
(654,186,o),
(654,340,cs),
(654,530,o),
(530,680,o),
(296,680,cs),
(140,680,ls),
(70,680,o),
(42,650,o),
(42,588,cs),
(42,88,ls),
(42,32,o),
(74,0,o),
(130,0,cs),
(244,0,l),
(222,-40,o),
(244,-100,o),
(312,-100,cs),
(348,-100,o),
(348,-145,o),
(312,-145,cs),
(210,-145,o),
(210,-275,o),
(312,-275,cs)
);
},
{
closed = 1;
nodes = (
(182,544,l),
(296,544,ls),
(442,544,o),
(514,452,o),
(514,340,cs),
(514,230,o),
(438,136,o),
(296,136,cs),
(182,136,l)
);
}
);
width = 676;
}
);
tags = (
"to-flat"
);
unicode = 7696;
},
{
glyphname = Dcroat;
kernRight = D;
lastChange = "2026-06-17 19:31:43 +0000";
layers = (
{
anchors = (
{
name = bottom;
pos = (436,0);
},
{
name = center;
pos = (426,340);
},
{
name = top;
pos = (426,680);
}
);
layerId = "FDF8D1BA-B4CE-4A91-B9C2-23316F7DE4E8";
shapes = (
{
closed = 1;
nodes = (
(397,0,ls),
(631,0,o),
(755,156,o),
(755,340,cs),
(755,530,o),
(631,680,o),
(397,680,cs),
(241,680,ls),
(171,680,o),
(143,650,o),
(143,588,cs),
(143,406,l),
(95,406,ls),
(-11,406,o),
(-11,270,o),
(95,270,cs),
(143,270,l),
(143,88,ls),
(143,32,o),
(175,0,o),
(231,0,cs)
);
},
{
closed = 1;
nodes = (
(283,270,l),
(331,270,ls),
(441,270,o),
(441,406,o),
(331,406,cs),
(283,406,l),
(283,544,l),
(397,544,ls),
(543,544,o),
(615,452,o),
(615,340,cs),
(615,230,o),
(539,136,o),
(397,136,cs),
(283,136,l)
);
}
);
width = 776;
}
);
tags = (
"to-flat"
);
unicode = 272;
},
{
glyphname = Dhook;
kernLeft = "Che-cy";
lastChange = "2026-06-17 19:31:43 +0000";
layers = (
{
anchors = (
{
name = _hook;
pos = (322,680);
},
{
name = bottom;
pos = (504,0);
},
{
name = center;
pos = (504,340);
},
{
name = top;
pos = (504,690);
}
);
layerId = "FDF8D1BA-B4CE-4A91-B9C2-23316F7DE4E8";
shapes = (
{
closed = 1;
nodes = (
(488,0,ls),
(722,0,o),
(846,156,o),
(846,340,cs),
(846,530,o),
(722,680,o),
(488,680,cs),
(258,680,ls),
(110,680,o),
(18,562,o),
(18,436,cs),
(18,332,o),
(154,332,o),
(154,436,cs),
(154,493,o),
(191,527,o),
(234,537,c),
(234,88,ls),
(234,32,o),
(266,0,o),
(322,0,cs)
);
},
{
closed = 1;
nodes = (
(374,544,l),
(488,544,ls),
(634,544,o),
(706,452,o),
(706,340,cs),
(706,230,o),
(630,136,o),
(488,136,cs),
(374,136,l)
);
}
);
width = 868;
}
);
tags = (
"to-flat"
);
unicode = 394;
},
{
glyphname = Eth;
kernLeft = Lstroke;
kernRight = D;
lastChange = "2026-06-17 19:31:43 +0000";
layers = (
{
anchors = (
{
name = bottom;
pos = (436,0);
},
{
name = center;
pos = (426,340);
},
{
name = top;
pos = (426,680);
}
);
layerId = "FDF8D1BA-B4CE-4A91-B9C2-23316F7DE4E8";
shapes = (
{
closed = 1;
nodes = (
(397,0,ls),
(631,0,o),
(755,156,o),
(755,340,cs),
(755,530,o),
(631,680,o),
(397,680,cs),
(241,680,ls),
(171,680,o),
(143,650,o),
(143,588,cs),
(143,406,l),
(95,406,ls),
(-11,406,o),
(-11,270,o),
(95,270,cs),
(143,270,l),
(143,88,ls),
(143,32,o),
(175,0,o),
(231,0,cs)
);
},
{
closed = 1;
nodes = (
(283,270,l),
(331,270,ls),
(441,270,o),
(441,406,o),
(331,406,cs),
(283,406,l),
(283,544,l),
(397,544,ls),
(543,544,o),
(615,452,o),
(615,340,cs),
(615,230,o),
(539,136,o),
(397,136,cs),
(283,136,l)
);
}
);
width = 776;
}
);
tags = (
"to-flat"
);
unicode = 208;
},
{
glyphname = E;
lastChange = "2026-06-17 17:31:23 +0000";
layers = (
{
anchors = (
{
name = bottom;
pos = (282,0);
},
{
name = ogonek;
pos = (458,68);
},
{
name = top;
pos = (282,690);
},
{
name = topleft;
pos = (-10,680);
}
);
layerId = "FDF8D1BA-B4CE-4A91-B9C2-23316F7DE4E8";
shapes = (
{
closed = 1;
nodes = (
(450,0,ls),
(554,0,o),
(554,136,o),
(450,136,cs),
(182,136,l),
(182,270,l),
(412,270,ls),
(516,270,o),
(516,406,o),
(412,406,cs),
(182,406,l),
(182,544,l),
(450,544,ls),
(554,544,o),
(554,680,o),
(450,680,cs),
(134,680,ls),
(72,680,o),
(42,652,o),
(42,588,cs),
(42,92,ls),
(42,34,o),
(68,0,o),
(134,0,cs)
);
}
);
width = 548;
}
);
unicode = 69;
},
{
glyphname = Ecedilla;
lastChange = "2026-06-17 19:31:43 +0000";
layers = (
{
anchors = (
{
name = bottom;
pos = (260,-350);
},
{
name = ogonek;
pos = (458,68);
},
{
name = top;
pos = (284,690);
},
{
name = topleft;
pos = (-10,680);
}
);
layerId = "FDF8D1BA-B4CE-4A91-B9C2-23316F7DE4E8";
shapes = (
{
closed = 1;
nodes = (
(348,-275,o),
(426,-209,o),
(426,-120,cs),
(426,-70,o),
(402,-28,o),
(366,0,c),
(450,0,ls),
(554,0,o),
(554,136,o),
(450,136,cs),
(182,136,l),
(182,270,l),
(412,270,ls),
(516,270,o),
(516,406,o),
(412,406,cs),
(182,406,l),
(182,544,l),
(450,544,ls),
(554,544,o),
(554,680,o),
(450,680,cs),
(134,680,ls),
(72,680,o),
(42,652,o),
(42,588,cs),
(42,92,ls),
(42,34,o),
(68,0,o),
(134,0,cs),
(192,0,l),
(170,-40,o),
(192,-100,o),
(260,-100,cs),
(296,-100,o),
(296,-145,o),
(260,-145,cs),
(158,-145,o),
(158,-275,o),
(260,-275,cs)
);
}
);
width = 548;
}
);
tags = (
"to-flat"
);
unicode = 552;
},
{
glyphname = Eogonek;
lastChange = "2026-06-17 19:31:43 +0000";
layers = (
{
anchors = (
{
name = bottom;
pos = (450,-256);
},
{
name = ogonek;
pos = (458,68);
},
{
name = top;
pos = (284,690);
},
{
name = topleft;
pos = (-10,680);
}
);
layerId = "FDF8D1BA-B4CE-4A91-B9C2-23316F7DE4E8";
shapes = (
{
closed = 1;
nodes = (
(552,-175,o),
(552,-45,o),
(450,-45,cs),
(414,-45,o),
(414,0,o),
(450,0,cs),
(460,0,o),
(469,1,o),
(478,4,cs),
(554,26,o),
(544,136,o),
(450,136,cs),
(182,136,l),
(182,270,l),
(412,270,ls),
(516,270,o),
(516,406,o),
(412,406,cs),
(182,406,l),
(182,544,l),
(450,544,ls),
(554,544,o),
(554,680,o),
(450,680,cs),
(134,680,ls),
(72,680,o),
(42,652,o),
(42,588,cs),
(42,92,ls),
(42,34,o),
(68,0,o),
(134,0,cs),
(285,0,l),
(284,-7,o),
(284,-13,o),
(284,-20,cs),
(284,-109,o),
(362,-175,o),
(450,-175,cs)
);
}
);
width = 548;
}
);
tags = (
"to-flat"
);
unicode = 280;
},
{
glyphname = Schwa;
kernLeft = O;
kernRight = O;
lastChange = "2026-06-13 18:33:06 +0000";
layers = (
{
anchors = (
{
name = bottom;
pos = (340,0);
},
{
name = top;
pos = (334,690);
}
);
layerId = "FDF8D1BA-B4CE-4A91-B9C2-23316F7DE4E8";
shapes = (
{
closed = 1;
nodes = (
(513,-10,o),
(659,134,o),
(659,340,cs),
(659,552,o),
(513,690,o),
(333,690,cs),
(233,690,o),
(159,654,o),
(111,594,cs),
(41,508,o),
(143,432,o),
(215,504,cs),
(247,536,o),
(283,554,o),
(333,554,cs),
(417,554,o),
(495,490,o),
(513,406,c),
(123,406,ls),
(43,406,o),
(19,356,o),
(19,296,cs),
(19,124,o),
(167,-10,o),
(333,-10,cs)
);
},
{
closed = 1;
nodes = (
(263,126,o),
(185,184,o),
(159,270,c),
(511,270,l),
(495,192,o),
(415,126,o),
(333,126,cs)
);
}
);
width = 681;
}
);
unicode = 399;
},
{
glyphname = F;
kernRight = F;
lastChange = "2026-06-13 18:37:49 +0000";
layers = (
{
anchors = (
{
name = bottom;
pos = (286,0);
},
{
name = top;
pos = (286,690);
}
);
layerId = "FDF8D1BA-B4CE-4A91-B9C2-23316F7DE4E8";
shapes = (
{
closed = 1;
nodes = (
(44,-20,o),
(184,-24,o),
(184,74,cs),
(184,270,l),
(412,270,ls),
(516,270,o),
(516,406,o),
(412,406,cs),
(182,406,l),
(182,544,l),
(450,544,ls),
(554,544,o),
(554,680,o),
(450,680,cs),
(138,680,ls),
(74,680,o),
(44,648,o),
(44,588,cs),
(44,74,ls)
);
}
);
width = 544;
}
);
unicode = 70;
},
{
glyphname = Fhook;
kernLeft = J;
lastChange = "2026-06-17 19:31:43 +0000";
layers = (
{
anchors = (
{
name = bottom;
pos = (286,0);
},
{
name = top;
pos = (286,690);
}
);
layerId = "FDF8D1BA-B4CE-4A91-B9C2-23316F7DE4E8";
shapes = (
{
closed = 1;
nodes = (
(66,-240,o),
(184,-148,o),
(184,0,cs),
(184,270,l),
(412,270,ls),
(516,270,o),
(516,406,o),
(412,406,cs),
(182,406,l),
(182,544,l),
(450,544,ls),
(554,544,o),
(554,680,o),
(450,680,cs),
(138,680,ls),
(74,680,o),
(44,648,o),
(44,588,cs),
(44,0,ls),
(44,-50,o),
(8,-104,o),
(-60,-104,cs),
(-164,-104,o),
(-164,-240,o),
(-60,-240,cs)
);
}
);
width = 544;
}
);
tags = (
"to-flat"
);
unicode = 401;
},
{
glyphname = G;
kernLeft = O;
kernRight = O;
lastChange = "2026-06-17 17:30:48 +0000";
layers = (
{
anchors = (
{
name = bottom;
pos = (352,0);
},
{
name = top;
pos = (340,690);
}
);
layerId = "FDF8D1BA-B4CE-4A91-B9C2-23316F7DE4E8";
shapes = (
{
closed = 1;
nodes = (
(410,-10,o),
(488,4,o),
(560,64,cs),
(632,128,o),
(670,206,o),
(672,294,cs),
(674,368,o),
(632,406,o),
(570,406,cs),
(358,406,ls),
(254,406,o),
(254,270,o),
(358,270,cs),
(530,270,l),
(516,162,o),
(390,92,o),
(278,144,cs),
(234,162,o),
(162,230,o),
(162,340,cs),
(162,450,o),
(216,514,o),
(280,540,cs),
(344,566,o),
(406,554,o),
(458,518,cs),
(546,458,o),
(604,572,o),
(540,628,cs),
(470,690,o),
(326,712,o),
(214,658,cs),
(100,604,o),
(22,500,o),
(22,340,cs),
(22,130,o),
(190,-10,o),
(342,-10,cs)
);
}
);
width = 692;
}
);
unicode = 71;
},
{
glyphname = Ghook;
kernLeft = O;
lastChange = "2026-06-13 17:54:31 +0000";
layers = (
{
layerId = "FDF8D1BA-B4CE-4A91-B9C2-23316F7DE4E8";
shapes = (
{
closed = 1;
nodes = (
(544.595,844.28,o),
(426.595,752.28,o),
(426.595,604.28,cs),
(426.595,570.28,l),
(566.595,570.28,l),
(566.595,604.28,ls),
(566.595,654.28,o),
(602.595,708.28,o),
(670.595,708.28,cs),
(774.595,708.28,o),
(774.595,844.28,o),
(670.595,844.28,cs)
);
},
{
alignment = -1;
pos = (0.003,0);
ref = G;
}
);
width = 690.6;
}
);
unicode = 403;
},
{
glyphname = Gstroke;
lastChange = "2026-06-17 19:31:43 +0000";
layers = (
{
anchors = (
{
name = bottom;
pos = (478,0);
},
{
name = top;
pos = (476,680);
}
);
layerId = "FDF8D1BA-B4CE-4A91-B9C2-23316F7DE4E8";
shapes = (
{
closed = 1;
nodes = (
(522,0,o),
(602,12,o),
(672,74,cs),
(746,136,o),
(782,216,o),
(784,304,cs),
(786,378,o),
(744,416,o),
(682,416,cs),
(590,416,ls),
(486,416,o),
(486,280,o),
(590,280,cs),
(642,280,l),
(628,172,o),
(502,102,o),
(390,154,cs),
(358,168,o),
(306,210,o),
(284,280,c),
(330,280,ls),
(440,280,o),
(440,416,o),
(330,416,cs),
(282,416,l),
(298,486,o),
(342,528,o),
(392,550,cs),
(456,576,o),
(518,562,o),
(570,528,cs),
(658,466,o),
(716,582,o),
(652,638,cs),
(582,700,o),
(438,720,o),
(326,668,cs),
(230,620,o),
(158,538,o),
(140,416,c),
(94,416,ls),
(-12,416,o),
(-12,280,o),
(94,280,cs),
(140,280,l),
(174,108,o),
(320,0,o),
(454,0,cs)
);
}
);
width = 804;
}
);
tags = (
"to-flat"
);
unicode = 484;
},
{
glyphname = H;
lastChange = "2026-06-08 19:37:35 +0000";
layers = (
{
anchors = (
{
name = bottom;
pos = (112,0);
},
{
name = bottomright;
pos = (604,0);
},
{
name = center;
pos = (324,340);
},
{
name = top;
pos = (324,680);
},
{
name = topleft;
pos = (-14,680);
}
);
layerId = "FDF8D1BA-B4CE-4A91-B9C2-23316F7DE4E8";
shapes = (
{
closed = 1;
nodes = (
(42,-24,o),
(182,-24,o),
(182,76,cs),
(182,270,l),
(462,270,l),
(462,76,ls),
(462,-24,o),
(602,-24,o),
(602,76,cs),
(602,604,ls),
(602,704,o),
(462,704,o),
(462,604,cs),
(462,406,l),
(182,406,l),
(182,604,ls),
(182,704,o),
(42,704,o),
(42,604,cs),
(42,76,ls)
);
}
);
width = 644;
}
);
unicode = 72;
},
{
glyphname = Hbar;
kernLeft = Hbar;
kernRight = Hbar;
lastChange = "2026-06-08 20:19:08 +0000";
layers = (
{
layerId = "FDF8D1BA-B4CE-4A91-B9C2-23316F7DE4E8";
shapes = (
{
closed = 1;
nodes = (
(106,-24,o),
(246,-24,o),
(246,76,cs),
(246,270,l),
(534,270,l),
(534,76,ls),
(534,-24,o),
(674,-24,o),
(674,76,cs),
(674,462,l),
(690,462,ls),
(784,462,o),
(784,592,o),
(690,592,cs),
(674,592,l),
(674,604,ls),
(674,704,o),
(534,704,o),
(534,604,cs),
(534,592,l),
(246,592,l),
(246,604,ls),
(246,704,o),
(106,704,o),
(106,604,cs),
(106,592,l),
(88,592,ls),
(-10,592,o),
(-10,462,o),
(88,462,cs),
(106,462,l),
(106,76,ls)
);
},
{
closed = 1;
nodes = (
(246,462,l),
(534,462,l),
(534,406,l),
(246,406,l)
);
}
);
width = 776;
}
);
unicode = 294;
},
{
glyphname = Hcedilla;
lastChange = "2026-06-17 19:31:43 +0000";
layers = (
{
anchors = (
{
name = bottom;
pos = (112,-350);
},
{
name = bottomright;
pos = (604,0);
},
{
name = center;
pos = (324,340);
},
{
name = top;
pos = (324,680);
},
{
name = topleft;
pos = (-14,680);
}
);
layerId = "FDF8D1BA-B4CE-4A91-B9C2-23316F7DE4E8";
shapes = (
{
closed = 1;
nodes = (
(200,-275,o),
(278,-209,o),
(278,-120,cs),
(278,-49,o),
(231,6,o),
(167,27,c),
(177,40,o),
(182,56,o),
(182,76,cs),
(182,270,l),
(462,270,l),
(462,76,ls),
(462,-24,o),
(602,-24,o),
(602,76,cs),
(602,604,ls),
(602,704,o),
(462,704,o),
(462,604,cs),
(462,406,l),
(182,406,l),
(182,604,ls),
(182,704,o),
(42,704,o),
(42,604,cs),
(42,76,ls),
(42,52,o),
(49,34,o),
(62,21,c),
(14,-14,o),
(31,-100,o),
(112,-100,cs),
(148,-100,o),
(148,-145,o),
(112,-145,cs),
(10,-145,o),
(10,-275,o),
(112,-275,cs)
);
}
);
width = 644;
}
);
tags = (
"to-flat"
);
unicode = 7720;
},
{
glyphname = Hhook;
kernLeft = "Che-cy";
lastChange = "2026-06-17 19:31:43 +0000";
layers = (
{
anchors = (
{
name = bottom;
pos = (322,0);
},
{
name = bottomright;
pos = (814,0);
},
{
name = center;
pos = (534,340);
},
{
name = top;
pos = (534,680);
},
{
name = topleft;
pos = (196,680);
}
);
layerId = "FDF8D1BA-B4CE-4A91-B9C2-23316F7DE4E8";
shapes = (
{
closed = 1;
nodes = (
(252,-24,o),
(392,-24,o),
(392,76,cs),
(392,270,l),
(672,270,l),
(672,76,ls),
(672,-24,o),
(812,-24,o),
(812,76,cs),
(812,604,ls),
(812,704,o),
(672,704,o),
(672,604,cs),
(672,406,l),
(392,406,l),
(392,604,ls),
(392,654,o),
(356,679,o),
(322,679,cs),
(258,679,ls),
(110,679,o),
(18,561,o),
(18,435,cs),
(18,331,o),
(154,331,o),
(154,435,cs),
(154,500,o),
(203,536,o),
(252,539,c),
(252,76,ls)
);
}
);
width = 854;
}
);
tags = (
"to-flat"
);
unicode = 42922;
},
{
glyphname = I;
kernRight = I;
lastChange = "2026-06-08 20:01:51 +0000";
layers = (
{
anchors = (
{
name = bottom;
pos = (112,0);
},
{
name = ogonek;
pos = (112,70);
},
{
name = top;
pos = (112,680);
},
{
name = topleft;
pos = (-14,680);
}
);
layerId = "FDF8D1BA-B4CE-4A91-B9C2-23316F7DE4E8";
shapes = (
{
closed = 1;
nodes = (
(42,-24,o),
(182,-24,o),
(182,76,cs),
(182,604,ls),
(182,704,o),
(42,704,o),
(42,604,cs),
(42,76,ls)
);
}
);
width = 224;
}
);
unicode = 73;
},
{
glyphname = Iogonek;
kernRight = I;
lastChange = "2026-06-17 19:31:43 +0000";
layers = (
{
anchors = (
{
name = bottom;
pos = (174,-254);
},
{
name = ogonek;
pos = (182,70);
},
{
name = top;
pos = (182,680);
},
{
name = topleft;
pos = (56,680);
}
);
layerId = "FDF8D1BA-B4CE-4A91-B9C2-23316F7DE4E8";
shapes = (
{
closed = 1;
nodes = (
(276,-173,o),
(276,-43,o),
(174,-43,cs),
(139,-43,o),
(138,0,o),
(171,2,c),
(210,-4,o),
(252,21,o),
(252,76,cs),
(252,604,ls),
(252,704,o),
(112,704,o),
(112,604,cs),
(112,127,l),
(52,104,o),
(8,50,o),
(8,-18,cs),
(8,-107,o),
(86,-173,o),
(174,-173,cs)
);
}
);
width = 294;
}
);
tags = (
"to-flat"
);
unicode = 302;
},
{
glyphname = "Iota-latin";
kernRight = L;
lastChange = "2026-06-13 18:33:06 +0000";
layers = (
{
layerId = "FDF8D1BA-B4CE-4A91-B9C2-23316F7DE4E8";
shapes = (
{
alignment = -1;
pos = (1,0);
ref = I;
},
{
closed = 1;
nodes = (
(391,-240,o),
(391,-104,o),
(287,-104,cs),
(219,-104,o),
(183,-50,o),
(183,0,cs),
(183,104,l),
(43,104,l),
(43,0,ls),
(43,-148,o),
(161,-240,o),
(287,-240,cs)
);
}
);
width = 226;
}
);
unicode = 406;
},
{
glyphname = Istroke;
lastChange = "2026-06-17 19:31:43 +0000";
layers = (
{
anchors = (
{
name = bottom;
pos = (214,0);
},
{
name = ogonek;
pos = (214,70);
},
{
name = top;
pos = (214,680);
},
{
name = topleft;
pos = (88,680);
}
);
layerId = "FDF8D1BA-B4CE-4A91-B9C2-23316F7DE4E8";
shapes = (
{
closed = 1;
nodes = (
(144,-24,o),
(284,-24,o),
(284,76,cs),
(284,270,l),
(331,270,ls),
(441,270,o),
(441,406,o),
(331,406,cs),
(284,406,l),
(284,604,ls),
(284,704,o),
(144,704,o),
(144,604,cs),
(144,406,l),
(95,406,ls),
(-11,406,o),
(-11,270,o),
(95,270,cs),
(144,270,l),
(144,76,ls)
);
}
);
width = 428;
}
);
tags = (
"to-flat"
);
unicode = 407;
},
{
glyphname = J;
kernLeft = J;
kernRight = J;
lastChange = "2026-06-17 16:27:48 +0000";
layers = (
{
anchors = (
{
name = bottom;
pos = (254,0);
},
{
name = top;
pos = (254,680);
}
);
layerId = "FDF8D1BA-B4CE-4A91-B9C2-23316F7DE4E8";
shapes = (
{
closed = 1;
nodes = (
(314,-10,o),
(378,20,o),
(426,80,cs),
(486,154,o),
(492,240,o),
(492,374,cs),
(492,446,o),
(492,486,o),
(492,604,cs),
(492,704,o),
(352,704,o),
(352,604,cs),
(352,486,o),
(352,422,o),
(352,298,cs),
(352,214,o),
(326,162,o),
(278,138,cs),
(240,118,o),
(180,120,o),
(126,152,cs),
(40,204,o),
(-20,112,o),
(40,52,cs),
(84,8,o),
(152,-10,o),
(212,-10,cs)
);
}
);
width = 526;
}
);
unicode = 74;
},
{
glyphname = K;
kernRight = X;
lastChange = "2026-06-08 19:37:35 +0000";
layers = (
{
anchors = (
{
name = bottom;
pos = (268,0);
},
{
name = top;
pos = (266,680);
}
);
layerId = "FDF8D1BA-B4CE-4A91-B9C2-23316F7DE4E8";
shapes = (
{
closed = 1;
nodes = (
(524,-46,o),
(612,60,o),
(536,126,cs),
(282,346,l),
(496,556,ls),
(572,632,o),
(468,724,o),
(398,654,cs),
(182,440,l),
(182,604,ls),
(182,704,o),
(42,704,o),
(42,604,cs),
(42,76,ls),
(42,-24,o),
(182,-24,o),
(182,76,cs),
(182,250,l),
(444,22,ls)
);
}
);
width = 580;
}
);
unicode = 75;
},
{
glyphname = Khook;
kernRight = X;
lastChange = "2026-06-13 18:33:06 +0000";
layers = (
{
anchors = (
{
name = bottom;
pos = (268,0);
},
{
name = top;
pos = (266,680);
}
);
layerId = "FDF8D1BA-B4CE-4A91-B9C2-23316F7DE4E8";
shapes = (
{
closed = 1;
nodes = (
(524,-46,o),
(612,60,o),
(536,126,cs),
(282,346,l),
(416.913,505.589,ls),
(435.114,527.119,o),
(461.636,543.298,o),
(498.139,543.298,cs),
(602.139,543.298,o),
(602.139,679.298,o),
(498.139,679.298,cs),
(420.467,679.298,o),
(358.642,648.083,o),
(297.97,576.611,cs),
(182,440,l),
(182,604,ls),
(182,704,o),
(42,704,o),
(42,604,cs),
(42,76,ls),
(42,-24,o),
(182,-24,o),
(182,76,cs),
(182,250,l),
(444,22,ls)
);
}
);
width = 593.14;
}
);
unicode = 408;
},
{
glyphname = L;
kernRight = L;
lastChange = "2026-06-17 17:33:39 +0000";
layers = (
{
anchors = (
{
name = bottom;
pos = (286,0);
},
{
name = center;
pos = (354,340);
},
{
name = top;
pos = (274,680);
},
{
name = topright;
pos = (534,680);
}
);
layerId = "FDF8D1BA-B4CE-4A91-B9C2-23316F7DE4E8";
shapes = (
{
closed = 1;
nodes = (
(446,0,ls),
(548,0,o),
(548,136,o),
(446,136,cs),
(182,136,l),
(182,604,ls),
(182,704,o),
(42,704,o),
(42,604,cs),
(42,88,ls),
(42,30,o),
(74,0,o),
(130,0,cs)
);
}
);
width = 538;
}
);
unicode = 76;
},
{
glyphname = Lcaron;
lastChange = "2026-06-17 19:31:43 +0000";
layers = (
{
anchors = (
{
name = bottom;
pos = (290,0);
},
{
name = center;
pos = (370,350);
},
{
name = top;
pos = (368,680);
},
{
name = topright;
pos = (548,680);
}
);
layerId = "FDF8D1BA-B4CE-4A91-B9C2-23316F7DE4E8";
shapes = (
{
closed = 1;
nodes = (
(446,0,ls),
(548,0,o),
(548,136,o),
(446,136,cs),
(182,136,l),
(182,604,ls),
(182,704,o),
(42,704,o),
(42,604,cs),
(42,88,ls),
(42,30,o),
(74,0,o),
(130,0,cs)
);
},
{
closed = 1;
nodes = (
(302,316,o),
(442,316,o),
(442,418,cs),
(442,602,ls),
(442,704,o),
(302,704,o),
(302,604,cs),
(302,416,ls)
);
}
);
width = 538;
}
);
tags = (
"to-decompose"
);
unicode = 317;
},
{
glyphname = Lslash;
kernLeft = Lslash;
kernRight = L;
lastChange = "2026-06-17 19:31:43 +0000";
layers = (
{
anchors = (
{
name = bottom;
pos = (346,0);
},
{
name = center;
pos = (430,340);
},
{
name = top;
pos = (350,680);
},
{
name = topright;
pos = (610,680);
}
);
layerId = "FDF8D1BA-B4CE-4A91-B9C2-23316F7DE4E8";
shapes = (
{
closed = 1;
nodes = (
(522,0,ls),
(624,0,o),
(624,136,o),
(522,136,cs),
(258,136,l),
(258,307,l),
(331,349,ls),
(426,404,o),
(358,522,o),
(263,467,cs),
(258,464,l),
(258,604,ls),
(258,704,o),
(118,704,o),
(118,604,cs),
(118,383,l),
(58,349,ls),
(-30,298,o),
(31,185,o),
(118,226,c),
(118,88,ls),
(118,30,o),
(150,0,o),
(206,0,cs)
);
}
);
width = 614;
}
);
tags = (
"to-flat"
);
unicode = 321;
},
{
glyphname = M;
kernLeft = M;
kernRight = M;
lastChange = "2026-06-08 20:19:09 +0000";
layers = (
{
anchors = (
{
name = bottom;
pos = (424,0);
},
{
name = bottomright;
pos = (840,2);
},
{
name = top;
pos = (424,680);
}
);
layerId = "FDF8D1BA-B4CE-4A91-B9C2-23316F7DE4E8";
shapes = (
{
closed = 1;
nodes = (
(246,444,l),
(330,86,ls),
(356,-26,o),
(492,-26,o),
(518,86,cs),
(602,444,l),
(696,60,ls),
(720,-34,o),
(856,-8,o),
(826,102,cs),
(696,590,ls),
(664,708,o),
(528,708,o),
(502,590,cs),
(424,242,l),
(344,590,ls),
(316,708,o),
(184,708,o),
(152,590,cs),
(22,102,ls),
(-8,-10,o),
(128,-34,o),
(152,60,cs)
);
}
);
width = 848;
}
);
unicode = 77;
},
{
glyphname = N;
lastChange = "2026-06-08 20:19:08 +0000";
layers = (
{
anchors = (
{
name = bottom;
pos = (320,0);
},
{
name = top;
pos = (320,680);
}
);
layerId = "FDF8D1BA-B4CE-4A91-B9C2-23316F7DE4E8";
shapes = (
{
closed = 1;
nodes = (
(496,-30,o),
(598,0,o),
(598,86,cs),
(598,604,ls),
(598,704,o),
(456,704,o),
(458,604,cs),
(462,250,l),
(194,638,ls),
(144,712,o),
(42,682,o),
(42,594,cs),
(42,76,ls),
(42,-24,o),
(184,-24,o),
(182,76,cs),
(178,432,l),
(446,44,ls)
);
}
);
width = 640;
}
);
unicode = 78;
},
{
glyphname = Nhookleft;
kernLeft = J;
lastChange = "2026-06-17 19:31:43 +0000";
layers = (
{
anchors = (
{
name = bottom;
pos = (321,0);
},
{
name = top;
pos = (321,680);
}
);
layerId = "FDF8D1BA-B4CE-4A91-B9C2-23316F7DE4E8";
shapes = (
{
closed = 1;
nodes = (
(65,-240,o),
(183,-148,o),
(183,0,cs),
(179,432,l),
(447,44,ls),
(497,-30,o),
(599,0,o),
(599,86,cs),
(599,604,ls),
(599,704,o),
(457,704,o),
(459,604,cs),
(463,250,l),
(195,638,ls),
(145,712,o),
(43,682,o),
(43,594,cs),
(43,0,ls),
(43,-50,o),
(7,-104,o),
(-61,-104,cs),
(-165,-104,o),
(-165,-240,o),
(-61,-240,cs)
);
}
);
width = 641;
}
);
tags = (
"to-flat"
);
unicode = 413;
},
{
glyphname = Eng;
lastChange = "2026-06-17 19:31:43 +0000";
layers = (
{
anchors = (
{
name = bottom;
pos = (320,0);
},
{
name = top;
pos = (320,680);
}
);
layerId = "FDF8D1BA-B4CE-4A91-B9C2-23316F7DE4E8";
shapes = (
{
closed = 1;
nodes = (
(502,-238,o),
(598,-148,o),
(598,4,cs),
(598,604,ls),
(598,704,o),
(456,704,o),
(458,604,cs),
(462,250,l),
(194,638,ls),
(144,712,o),
(42,682,o),
(42,594,cs),
(42,76,ls),
(42,-24,o),
(184,-24,o),
(182,76,cs),
(178,432,l),
(450,38,ls),
(488,-16,o),
(442,-102,o),
(348,-102,cs),
(242,-102,o),
(242,-238,o),
(348,-238,cs)
);
}
);
width = 641;
}
);
tags = (
"to-flat"
);
unicode = 330;
},
{
glyphname = O;
kernLeft = O;
kernRight = O;
lastChange = "2026-06-17 16:36:22 +0000";
layers = (
{
anchors = (
{
name = bottom;
pos = (356,0);
},
{
name = center;
pos = (358,340);
},
{
name = ogonek;
pos = (356,58);
},
{
name = top;
pos = (354,690);
},
{
name = topleft;
pos = (34,680);
},
{
name = topright;
pos = (682,680);
}
);
layerId = "FDF8D1BA-B4CE-4A91-B9C2-23316F7DE4E8";
shapes = (
{
closed = 1;
nodes = (
(538,-10,o),
(690,148,o),
(690,340,cs),
(690,532,o),
(542,690,o),
(354,690,cs),
(170,690,o),
(22,534,o),
(22,342,cs),
(22,150,o),
(172,-10,o),
(354,-10,cs)
);
},
{
closed = 1;
nodes = (
(246,126,o),
(162,226,o),
(162,342,cs),
(162,458,o),
(246,554,o),
(354,554,cs),
(464,554,o),
(550,458,o),
(550,342,cs),
(550,226,o),
(464,126,o),
(354,126,cs)
);
}
);
width = 712;
}
);
unicode = 79;
},
{
glyphname = Ohorn;
kernLeft = O;
kernRight = O;
lastChange = "2026-06-17 19:31:43 +0000";
layers = (
{
anchors = (
{
name = bottom;
pos = (355,0);
},
{
name = center;
pos = (357,340);
},
{
name = ogonek;
pos = (355,58);
},
{
name = top;
pos = (355,680);
},
{
name = topleft;
pos = (33,680);
},
{
name = topright;
pos = (681,680);
}
);
layerId = "FDF8D1BA-B4CE-4A91-B9C2-23316F7DE4E8";
shapes = (
{
closed = 1;
nodes = (
(537,-10,o),
(689,148,o),
(689,340,cs),
(689,426,o),
(659,506,o),
(609,567,c),
(677,612,o),
(715,691,o),
(715,772,cs),
(715,878,o),
(579,874,o),
(579,772,cs),
(579,696,o),
(528,657,o),
(465,670,c),
(430,683,o),
(393,690,o),
(353,690,cs),
(169,690,o),
(21,534,o),
(21,342,cs),
(21,150,o),
(171,-10,o),
(353,-10,cs)
);
},
{
closed = 1;
nodes = (
(245,126,o),
(161,226,o),
(161,342,cs),
(161,458,o),
(245,554,o),
(353,554,cs),
(463,554,o),
(549,458,o),
(549,342,cs),
(549,226,o),
(463,126,o),
(353,126,cs)
);
}
);
width = 716;
}
);
tags = (
"to-flat"
);
unicode = 416;
},
{
glyphname = Oogonek;
kernLeft = O;
kernRight = O;
lastChange = "2026-06-17 19:31:43 +0000";
layers = (
{
anchors = (
{
name = bottom;
pos = (348,-266);
},
{
name = center;
pos = (358,340);
},
{
name = ogonek;
pos = (356,58);
},
{
name = top;
pos = (354,690);
},
{
name = topleft;
pos = (34,680);
},
{
name = topright;
pos = (682,680);
}
);
layerId = "FDF8D1BA-B4CE-4A91-B9C2-23316F7DE4E8";
shapes = (
{
closed = 1;
nodes = (
(450,-185,o),
(450,-55,o),
(348,-55,cs),
(312,-55,o),
(312,-10,o),
(348,-10,cs),
(354,-10,ls),
(537,-10,o),
(690,148,o),
(690,340,cs),
(690,532,o),
(542,690,o),
(354,690,cs),
(170,690,o),
(22,534,o),
(22,342,cs),
(22,210,o),
(93,93,o),
(196,33,c),
(187,14,o),
(182,-7,o),
(182,-30,cs),
(182,-119,o),
(260,-185,o),
(348,-185,cs)
);
},
{
closed = 1;
nodes = (
(246,126,o),
(162,226,o),
(162,342,cs),
(162,458,o),
(246,554,o),
(354,554,cs),
(464,554,o),
(550,458,o),
(550,342,cs),
(550,226,o),
(464,126,o),
(354,126,cs)
);
}
);
width = 712;
}
);
tags = (
"to-flat"
);
unicode = 490;
},
{
glyphname = Oslash;
kernLeft = Oslash;
kernRight = Oslash;
lastChange = "2026-06-17 19:31:43 +0000";
layers = (
{
anchors = (
{
name = bottom;
pos = (389,0);
},
{
name = top;
pos = (389,700);
}
);
layerId = "FDF8D1BA-B4CE-4A91-B9C2-23316F7DE4E8";
shapes = (
{
closed = 1;
nodes = (
(573,-10,o),
(725,148,o),
(725,340,cs),
(725,401,o),
(710,459,o),
(683,510,c),
(741,562,ls),
(809,622,o),
(729,722,o),
(651,660,cs),
(596,616,l),
(540,662,o),
(468,690,o),
(389,690,cs),
(205,690,o),
(57,534,o),
(57,342,cs),
(57,280,o),
(72,222,o),
(99,171,c),
(41,118,l),
(-29,62,o),
(57,-48,o),
(135,24,cs),
(183,67,l),
(240,19,o),
(311,-10,o),
(389,-10,cs)
);
},
{
closed = 1;
nodes = (
(351,126,o),
(317,138,o),
(287,159,c),
(574,413,l),
(581,392,o),
(585,367,o),
(585,342,cs),
(585,226,o),
(499,126,o),
(389,126,cs)
);
},
{
closed = 1;
nodes = (
(201,291,o),
(197,316,o),
(197,342,cs),
(197,458,o),
(281,554,o),
(389,554,cs),
(427,554,o),
(462,542,o),
(492,522,c),
(208,269,l)
);
}
);
width = 782;
}
);
tags = (
"to-flat"
);
unicode = 216;
},
{
glyphname = P;
kernRight = P;
lastChange = "2026-06-08 19:54:27 +0000";
layers = (
{
anchors = (
{
name = bottom;
pos = (250,0);
},
{
name = top;
pos = (252,690);
}
);
layerId = "FDF8D1BA-B4CE-4A91-B9C2-23316F7DE4E8";
shapes = (
{
closed = 1;
nodes = (
(42,-24,o),
(182,-24,o),
(182,76,cs),
(182,276,l),
(306,276,ls),
(442,276,o),
(514,380,o),
(514,480,cs),
(514,578,o),
(442,680,o),
(304,680,cs),
(140,680,ls),
(74,680,o),
(42,646,o),
(42,588,cs),
(42,76,ls)
);
},
{
closed = 1;
nodes = (
(182,544,l),
(296,544,ls),
(404,544,o),
(400,406,o),
(296,406,cs),
(182,406,l)
);
}
);
width = 532;
}
);
unicode = 80;
},
{
glyphname = Phook;
kernLeft = "Che-cy";
lastChange = "2026-06-17 19:31:43 +0000";
layers = (
{
anchors = (
{
name = _hook;
pos = (322,680);
},
{
name = bottom;
pos = (442,0);
},
{
name = top;
pos = (444,690);
}
);
layerId = "FDF8D1BA-B4CE-4A91-B9C2-23316F7DE4E8";
shapes = (
{
closed = 1;
nodes = (
(234,-24,o),
(374,-24,o),
(374,76,cs),
(374,276,l),
(498,276,ls),
(634,276,o),
(706,380,o),
(706,480,cs),
(706,578,o),
(634,680,o),
(496,680,cs),
(258,680,ls),
(110,680,o),
(18,562,o),
(18,436,cs),
(18,332,o),
(154,332,o),
(154,436,cs),
(154,493,o),
(193,528,o),
(234,537,c),
(234,76,ls)
);
},
{
closed = 1;
nodes = (
(374,544,l),
(488,544,ls),
(596,544,o),
(592,406,o),
(488,406,cs),
(374,406,l)
);
}
);
width = 724;
}
);
tags = (
"to-flat"
);
unicode = 420;
},
{
glyphname = Thorn;
kernRight = O;
lastChange = "2026-06-17 19:31:43 +0000";
layers = (
{
anchors = (
{
name = bottom;
pos = (196,0);
},
{
name = ogonek;
pos = (38,70);
},
{
name = top;
pos = (196,680);
},
{
name = topleft;
pos = (-72,680);
}
);
layerId = "FDF8D1BA-B4CE-4A91-B9C2-23316F7DE4E8";
shapes = (
{
closed = 1;
nodes = (
(42,-24,o),
(182,-24,o),
(182,76,cs),
(182,138,l),
(306,138,ls),
(442,138,o),
(514,242,o),
(514,342,cs),
(514,440,o),
(442,542,o),
(304,542,cs),
(182,542,l),
(182,604,ls),
(182,704,o),
(42,704,o),
(42,604,cs),
(42,76,ls)
);
},
{
closed = 1;
nodes = (
(182,406,l),
(296,406,ls),
(402,406,o),
(398,270,o),
(296,270,cs),
(182,270,l)
);
}
);
width = 532;
}
);
tags = (
"to-flat"
);
unicode = 222;
},
{
glyphname = Q;
kernLeft = O;
lastChange = "2026-06-17 19:31:43 +0000";
layers = (
{
anchors = (
{
name = bottom;
pos = (356,0);
},
{
name = center;
pos = (358,340);
},
{
name = ogonek;
pos = (356,56);
},
{
name = top;
pos = (354,690);
},
{
name = topleft;
pos = (36,680);
},
{
name = topright;
pos = (682,680);
}
);
layerId = "FDF8D1BA-B4CE-4A91-B9C2-23316F7DE4E8";
shapes = (
{
closed = 1;
nodes = (
(422,-10,o),
(486,12,o),
(538,48,c),
(566,20,ls),
(644,-58,o),
(740,38,o),
(662,116,cs),
(633,145,l),
(669,201,o),
(690,268,o),
(690,340,cs),
(690,532,o),
(542,690,o),
(354,690,cs),
(170,690,o),
(22,534,o),
(22,342,cs),
(22,150,o),
(172,-10,o),
(354,-10,cs)
);
},
{
closed = 1;
nodes = (
(246,126,o),
(162,226,o),
(162,342,cs),
(162,458,o),
(246,554,o),
(354,554,cs),
(464,554,o),
(550,458,o),
(550,342,cs),
(550,309,o),
(543,277,o),
(530,248,c),
(494,284,ls),
(420,358,o),
(324,262,o),
(398,188,cs),
(439,147,l),
(414,134,o),
(385,126,o),
(354,126,cs)
);
}
);
width = 716;
}
);
tags = (
"to-flat"
);
unicode = 81;
},
{
glyphname = Qhooktail;
kernLeft = O;
kernRight = L;
lastChange = "2026-06-17 19:31:43 +0000";
layers = (
{
anchors = (
{
name = bottom;
pos = (366,0);
},
{
name = center;
pos = (357,340);
},
{
name = ogonek;
pos = (620,70);
},
{
name = top;
pos = (366,680);
},
{
name = topleft;
pos = (494,680);
},
{
name = topright;
pos = (681,680);
}
);
layerId = "FDF8D1BA-B4CE-4A91-B9C2-23316F7DE4E8";
shapes = (
{
closed = 1;
nodes = (
(898,-240,o),
(898,-104,o),
(794,-104,cs),
(726,-104,o),
(690,-50,o),
(690,0,cs),
(690,604,ls),
(690,697,o),
(568,703,o),
(552,623,c),
(496,665,o),
(428,690,o),
(353,690,cs),
(169,690,o),
(21,534,o),
(21,342,cs),
(21,150,o),
(171,-10,o),
(353,-10,cs),
(426,-10,o),
(495,15,o),
(550,57,c),
(550,0,ls),
(550,-148,o),
(668,-240,o),
(794,-240,cs)
);
},
{
closed = 1;
nodes = (
(245,126,o),
(161,226,o),
(161,342,cs),
(161,458,o),
(245,554,o),
(353,554,cs),
(463,554,o),
(549,458,o),
(549,342,cs),
(549,226,o),
(463,126,o),
(353,126,cs)
);
}
);
width = 732;
}
);
tags = (
"to-flat"
);
unicode = 586;
},
{
glyphname = R;
lastChange = "2026-06-08 20:19:09 +0000";
layers = (
{
anchors = (
{
name = bottom;
pos = (252,0);
},
{
name = top;
pos = (252,690);
}
);
layerId = "FDF8D1BA-B4CE-4A91-B9C2-23316F7DE4E8";
shapes = (
{
closed = 1;
nodes = (
(460,-50,o),
(562,44,o),
(494,122,cs),
(358,278,l),
(476,316,o),
(514,392,o),
(514,480,cs),
(514,578,o),
(442,680,o),
(304,680,cs),
(140,680,ls),
(74,680,o),
(42,646,o),
(42,588,cs),
(42,76,ls),
(42,-24,o),
(182,-24,o),
(182,76,cs),
(182,276,l),
(390,32,ls)
);
},
{
closed = 1;
nodes = (
(182,544,l),
(296,544,ls),
(404,544,o),
(400,406,o),
(296,406,cs),
(182,406,l)
);
}
);
width = 538;
}
);
unicode = 82;
},
{
glyphname = Rstroke;
kernLeft = Lslash;
lastChange = "2026-06-17 19:31:43 +0000";
layers = (
{
anchors = (
{
name = bottom;
pos = (353,0);
},
{
name = top;
pos = (353,690);
}
);
layerId = "FDF8D1BA-B4CE-4A91-B9C2-23316F7DE4E8";
shapes = (
{
closed = 1;
nodes = (
(561,-50,o),
(663,44,o),
(595,122,cs),
(459,278,l),
(577,316,o),
(615,392,o),
(615,480,cs),
(615,578,o),
(543,680,o),
(405,680,cs),
(241,680,ls),
(175,680,o),
(143,646,o),
(143,588,cs),
(143,406,l),
(95,406,ls),
(-11,406,o),
(-11,270,o),
(95,270,cs),
(143,270,l),
(143,76,ls),
(143,-24,o),
(283,-24,o),
(283,76,cs),
(283,276,l),
(491,32,ls)
);
},
{
closed = 1;
nodes = (
(283,544,l),
(397,544,ls),
(505,544,o),
(501,406,o),
(397,406,cs),
(283,406,l)
);
}
);
width = 639;
}
);
tags = (
"to-flat"
);
unicode = 588;
},
{
glyphname = Rtail;
lastChange = "2026-06-17 19:31:43 +0000";
layers = (
{
anchors = (
{
name = bottom;
pos = (253,0);
},
{
name = top;
pos = (253,690);
}
);
layerId = "FDF8D1BA-B4CE-4A91-B9C2-23316F7DE4E8";
shapes = (
{
closed = 1;
nodes = (
(391,-240,o),
(391,-104,o),
(287,-104,cs),
(219,-104,o),
(183,-50,o),
(183,0,cs),
(183,276,l),
(391,32,ls),
(461,-50,o),
(563,44,o),
(495,122,cs),
(359,278,l),
(477,316,o),
(515,392,o),
(515,480,cs),
(515,578,o),
(443,680,o),
(305,680,cs),
(141,680,ls),
(75,680,o),
(43,646,o),
(43,588,cs),
(43,0,ls),
(43,-148,o),
(161,-240,o),
(287,-240,cs)
);
},
{
closed = 1;
nodes = (
(183,544,l),
(297,544,ls),
(405,544,o),
(401,406,o),
(297,406,cs),
(183,406,l)
);
}
);
width = 539;
}
);
tags = (
"to-flat"
);
unicode = 11364;
},
{
glyphname = S;
kernLeft = S;
kernRight = S;
lastChange = "2026-06-08 20:19:08 +0000";
layers = (
{
anchors = (
{
name = bottom;
pos = (224,0);
},
{
name = top;
pos = (242,690);
}
);
layerId = "FDF8D1BA-B4CE-4A91-B9C2-23316F7DE4E8";
shapes = (
{
closed = 1;
nodes = (
(490,88,o),
(506,184,o),
(484,256,cs),
(460,334,o),
(384,374,o),
(348,388,cs),
(268,418,o),
(210,426,o),
(184,456,cs),
(156,486,o),
(176,530,o),
(210,544,cs),
(262,566,o),
(298,544,o),
(350,518,cs),
(426,480,o),
(488,578,o),
(420,632,cs),
(342,694,o),
(216,710,o),
(124,652,cs),
(76,622,o),
(48,578,o),
(36,534,cs),
(24,490,o),
(28,416,o),
(78,364,cs),
(130,310,o),
(204,294,o),
(246,282,cs),
(282,272,o),
(328,258,o),
(344,228,cs),
(360,198,o),
(350,160,o),
(316,140,cs),
(282,120,o),
(222,120,o),
(166,156,cs),
(136,176,ls),
(46,236,o),
(-16,142,o),
(42,82,cs),
(54,68,o),
(62,62,o),
(80,48,cs),
(180,-26,o),
(316,-24,o),
(402,32,cs)
);
}
);
width = 512;
}
);
unicode = 83;
},
{
glyphname = Germandbls;
lastChange = "2026-06-08 20:19:08 +0000";
layers = (
{
layerId = "FDF8D1BA-B4CE-4A91-B9C2-23316F7DE4E8";
shapes = (
{
closed = 1;
nodes = (
(472,10,o),
(552,88,o),
(552,194,cs),
(552,272,o),
(514,326,o),
(458,360,c),
(478,380,o),
(510,418,o),
(510,490,cs),
(510,616,o),
(394,690,o),
(282,690,cs),
(136,690,o),
(36,594,o),
(36,446,cs),
(36,76,ls),
(36,-24,o),
(176,-24,o),
(176,76,cs),
(176,446,ls),
(176,514,o),
(228,560,o),
(292,554,cs),
(384,546,o),
(400,444,o),
(326,408,cs),
(260,376,o),
(266,284,o),
(332,266,cs),
(368,256,o),
(408,244,o),
(412,206,cs),
(416,166,o),
(386,142,o),
(340,134,cs),
(238,116,o),
(262,-8,o),
(356,0,cs)
);
}
);
width = 570;
}
);
unicode = 7838;
},
{
glyphname = T;
kernLeft = T;
kernRight = T;
lastChange = "2026-06-17 16:40:08 +0000";
layers = (
{
anchors = (
{
name = bottom;
pos = (300,0);
},
{
name = bottomright;
pos = (370,0);
},
{
name = center;
pos = (300,350);
},
{
name = top;
pos = (300,690);
}
);
layerId = "FDF8D1BA-B4CE-4A91-B9C2-23316F7DE4E8";
shapes = (
{
closed = 1;
nodes = (
(230,-24,o),
(370,-24,o),
(370,76,cs),
(370,544,l),
(506,544,ls),
(608,544,o),
(608,680,o),
(506,680,cs),
(94,680,ls),
(-10,680,o),
(-10,544,o),
(94,544,cs),
(230,544,l),
(230,76,ls)
);
}
);
width = 598;
}
);
unicode = 84;
},
{
glyphname = Tbar;
kernLeft = W;
kernRight = W;
lastChange = "2026-06-17 19:31:43 +0000";
layers = (
{
anchors = (
{
name = bottom;
pos = (300,0);
},
{
name = bottomright;
pos = (370,0);
},
{
name = center;
pos = (300,350);
},
{
name = top;
pos = (300,690);
}
);
layerId = "FDF8D1BA-B4CE-4A91-B9C2-23316F7DE4E8";
shapes = (
{
closed = 1;
nodes = (
(230,-24,o),
(370,-24,o),
(370,76,cs),
(370,270,l),
(468,270,ls),
(576,270,o),
(576,406,o),
(468,406,cs),
(370,406,l),
(370,544,l),
(506,544,ls),
(608,544,o),
(608,680,o),
(506,680,cs),
(94,680,ls),
(-10,680,o),
(-10,544,o),
(94,544,cs),
(230,544,l),
(230,406,l),
(140,406,ls),
(32,406,o),
(32,270,o),
(140,270,cs),
(230,270,l),
(230,76,ls)
);
}
);
width = 598;
}
);
tags = (
"to-flat"
);
unicode = 358;
},
{
glyphname = Tcaron;
kernLeft = T;
kernRight = T;
lastChange = "2026-06-17 19:31:43 +0000";
layers = (
{
anchors = (
{
name = bottom;
pos = (300,0);
},
{
name = bottomright;
pos = (370,0);
},
{
name = center;
pos = (300,350);
},
{
name = top;
pos = (300,1000);
}
);
layerId = "FDF8D1BA-B4CE-4A91-B9C2-23316F7DE4E8";
shapes = (
{
closed = 1;
nodes = (
(230,-24,o),
(370,-24,o),
(370,76,cs),
(370,544,l),
(506,544,ls),
(608,544,o),
(608,680,o),
(506,680,cs),
(94,680,ls),
(-10,680,o),
(-10,544,o),
(94,544,cs),
(230,544,l),
(230,76,ls)
);
},
{
closed = 1;
nodes = (
(138.625,1070,o),
(46.625,964,o),
(124.625,894,cs),
(244.625,784,ls),
(278.625,752,o),
(320.625,752,o),
(354.625,784,cs),
(474.625,894,ls),
(552.625,964,o),
(458.625,1070,o),
(374.625,988,cs),
(300.625,916,l),
(224.625,988,ls)
);
}
);
width = 598;
}
);
tags = (
"to-decompose"
);
unicode = 356;
},
{
glyphname = Tcedilla;
kernLeft = T;
kernRight = T;
lastChange = "2026-06-17 19:31:43 +0000";
layers = (
{
anchors = (
{
name = bottom;
pos = (300,-350);
},
{
name = bottomright;
pos = (370,0);
},
{
name = center;
pos = (300,350);
},
{
name = top;
pos = (300,690);
}
);
layerId = "FDF8D1BA-B4CE-4A91-B9C2-23316F7DE4E8";
shapes = (
{
closed = 1;
nodes = (
(388,-275,o),
(466,-209,o),
(466,-120,cs),
(466,-49,o),
(419,6,o),
(355,27,c),
(365,40,o),
(370,56,o),
(370,76,cs),
(370,544,l),
(506,544,ls),
(608,544,o),
(608,680,o),
(506,680,cs),
(94,680,ls),
(-10,680,o),
(-10,544,o),
(94,544,cs),
(230,544,l),
(230,76,ls),
(230,52,o),
(237,34,o),
(250,21,c),
(202,-14,o),
(219,-100,o),
(300,-100,cs),
(336,-100,o),
(336,-145,o),
(300,-145,cs),
(198,-145,o),
(198,-275,o),
(300,-275,cs)
);
}
);
width = 598;
}
);
tags = (
"to-flat"
);
unicode = 354;
},
{
glyphname = Thook;
kernLeft = "Che-cy";
kernRight = T;
lastChange = "2026-06-17 19:31:43 +0000";
layers = (
{
anchors = (
{
name = bottom;
pos = (364,0);
},
{
name = bottomright;
pos = (434,0);
},
{
name = center;
pos = (364,350);
},
{
name = top;
pos = (364,690);
}
);
layerId = "FDF8D1BA-B4CE-4A91-B9C2-23316F7DE4E8";
shapes = (
{
closed = 1;
nodes = (
(294,-24,o),
(434,-24,o),
(434,76,cs),
(434,544,l),
(570,544,ls),
(672,544,o),
(672,680,o),
(570,680,cs),
(258,680,ls),
(110,680,o),
(18,562,o),
(18,436,cs),
(18,332,o),
(154,332,o),
(154,436,cs),
(154,504,o),
(208,540,o),
(258,540,cs),
(294,540,l),
(294,76,ls)
);
}
);
width = 662;
}
);
tags = (
"to-flat"
);
unicode = 428;
},
{
glyphname = Tretroflexhook;
kernLeft = T;
kernRight = T;
lastChange = "2026-06-17 19:31:43 +0000";
layers = (
{
anchors = (
{
name = bottom;
pos = (299,0);
},
{
name = bottomright;
pos = (369,0);
},
{
name = center;
pos = (299,350);
},
{
name = top;
pos = (299,690);
}
);
layerId = "FDF8D1BA-B4CE-4A91-B9C2-23316F7DE4E8";
shapes = (
{
closed = 1;
nodes = (
(251,-240,o),
(369,-148,o),
(369,0,cs),
(369,544,l),
(505,544,ls),
(607,544,o),
(607,680,o),
(505,680,cs),
(93,680,ls),
(-11,680,o),
(-11,544,o),
(93,544,cs),
(229,544,l),
(229,0,ls),
(229,-50,o),
(193,-104,o),
(125,-104,cs),
(21,-104,o),
(21,-240,o),
(125,-240,cs)
);
}
);
width = 597;
}
);
tags = (
"to-flat"
);
unicode = 430;
},
{
glyphname = U;
kernRight = J;
lastChange = "2026-06-17 16:11:58 +0000";
layers = (
{
anchors = (
{
name = bottom;
pos = (314,0);
},
{
name = ogonek;
pos = (314,58);
},
{
name = top;
pos = (314,680);
},
{
name = topright;
pos = (648,700);
}
);
layerId = "FDF8D1BA-B4CE-4A91-B9C2-23316F7DE4E8";
shapes = (
{
closed = 1;
nodes = (
(214,-40,o),
(408,-40,o),
(520,82,cs),
(586,160,o),
(594,232,o),
(594,366,c),
(594,604,ls),
(594,706,o),
(454,706,o),
(454,604,cs),
(454,366,l),
(454,236,o),
(450,210,o),
(414,170,cs),
(362,112,o),
(264,114,o),
(214,170,cs),
(178,210,o),
(174,236,o),
(174,366,c),
(174,604,ls),
(174,704,o),
(34,704,o),
(34,604,cs),
(34,366,l),
(34,232,o),
(40,160,o),
(106,82,cs)
);
}
);
width = 628;
}
);
unicode = 85;
},
{
glyphname = Ubar;
kernLeft = Lslash;
kernRight = Lslash;
lastChange = "2026-06-17 19:31:43 +0000";
layers = (
{
anchors = (
{
name = bottom;
pos = (415,0);
},
{
name = ogonek;
pos = (415,58);
},
{
name = top;
pos = (415,680);
},
{
name = topright;
pos = (749,700);
}
);
layerId = "FDF8D1BA-B4CE-4A91-B9C2-23316F7DE4E8";
shapes = (
{
closed = 1;
nodes = (
(315,-40,o),
(509,-40,o),
(621,82,c),
(669,139,o),
(686,192,o),
(692,270,c),
(730,270,ls),
(842,270,o),
(842,406,o),
(730,406,cs),
(695,406,l),
(695,604,ls),
(695,706,o),
(555,706,o),
(555,604,cs),
(555,406,l),
(275,406,l),
(275,604,ls),
(275,704,o),
(135,704,o),
(135,604,cs),
(135,406,l),
(96,406,ls),
(-12,406,o),
(-12,270,o),
(96,270,cs),
(137,270,l),
(142,194,o),
(158,140,o),
(207,82,cs)
);
},
{
closed = 1;
nodes = (
(290,197,o),
(280,219,o),
(277,270,c),
(552,270,l),
(549,219,o),
(540,198,o),
(515,170,cs),
(463,112,o),
(365,114,o),
(315,170,cs)
);
}
);
width = 829;
}
);
tags = (
"to-flat"
);
unicode = 580;
},
{
glyphname = Uhorn;
kernRight = T;
lastChange = "2026-06-17 19:31:43 +0000";
layers = (
{
anchors = (
{
name = bottom;
pos = (314,0);
},
{
name = ogonek;
pos = (314,58);
},
{
name = top;
pos = (314,680);
},
{
name = topright;
pos = (648,700);
}
);
layerId = "FDF8D1BA-B4CE-4A91-B9C2-23316F7DE4E8";
shapes = (
{
closed = 1;
nodes = (
(214,-40,o),
(408,-40,o),
(520,82,c),
(586,160,o),
(594,232,o),
(594,366,cs),
(594,551,l),
(699,582,o),
(762,681,o),
(762,785,cs),
(762,889,o),
(626,889,o),
(626,785,cs),
(626,717,o),
(572,681,o),
(522,681,c),
(522,680,l),
(489,680,o),
(454,654,o),
(454,604,cs),
(454,366,ls),
(454,236,o),
(450,210,o),
(414,170,cs),
(362,112,o),
(264,114,o),
(214,170,cs),
(178,210,o),
(174,236,o),
(174,366,cs),
(174,604,ls),
(174,704,o),
(34,704,o),
(34,604,cs),
(34,366,ls),
(34,232,o),
(40,160,o),
(106,82,cs)
);
}
);
width = 749;
}
);
tags = (
"to-flat"
);
unicode = 431;
},
{
glyphname = V;
kernLeft = V;
kernRight = V;
lastChange = "2026-06-17 16:35:18 +0000";
layers = (
{
anchors = (
{
name = bottom;
pos = (318,0);
},
{
name = top;
pos = (318,680);
}
);
layerId = "FDF8D1BA-B4CE-4A91-B9C2-23316F7DE4E8";
shapes = (
{
closed = 1;
nodes = (
(258,-24,o),
(372,-30,o),
(416,80,cs),
(612,578,ls),
(652,678,o),
(518,722,o),
(482,626,cs),
(318,178,l),
(154,626,ls),
(118,722,o),
(-14,678,o),
(24,578,cs),
(218,80,ls)
);
}
);
width = 636;
}
);
unicode = 86;
},
{
glyphname = "Gamma-latin";
kernLeft = T;
kernRight = T;
lastChange = "2026-06-13 17:52:48 +0000";
layers = (
{
layerId = "FDF8D1BA-B4CE-4A91-B9C2-23316F7DE4E8";
shapes = (
{
closed = 1;
nodes = (
(318.102,126.633,o),
(294.576,126.633,cs),
(270.09,126.633,o),
(248.905,153.535,o),
(265.47,184.032,cs),
(294.806,238.04,l),
(323.866,184.052,ls),
(341.061,152.106,o)
);
},
{
closed = 1;
nodes = (
(508.783,727.731,o),
(445.563,644.183,cs),
(294.508,444.557,l),
(143.454,644.183,ls),
(80.835,726.938,o),
(-26.913,643.359,o),
(32.098,564.8,cs),
(201.216,339.663,l),
(170.623,294.21,o),
(139.255,254.515,o),
(127.273,206.041,cs),
(114.055,152.573,o),
(124.874,100.016,o),
(157.733,58.046,cs),
(190.593,16.074,o),
(243.038,-10,o),
(294.596,-10,cs),
(346.705,-10,o),
(397.561,14.955,o),
(430.629,56.761,cs),
(463.696,98.566,o),
(474.868,151.343,o),
(462.081,205.378,cs),
(450.192,255.62,o),
(416.255,296.825,o),
(388.089,340.069,c),
(556.917,564.801,ls),
(615.571,642.876,o)
);
}
);
width = 588.93;
}
);
unicode = 404;
},
{
glyphname = Vhook;
lastChange = "2026-06-13 18:33:06 +0000";
layers = (
{
anchors = (
{
name = bottom;
pos = (314,0);
},
{
name = ogonek;
pos = (314,58);
},
{
name = top;
pos = (314,680);
},
{
name = topright;
pos = (648,700);
}
);
layerId = "FDF8D1BA-B4CE-4A91-B9C2-23316F7DE4E8";
shapes = (
{
closed = 1;
nodes = (
(214,-40,o),
(408,-40,o),
(520,82,c),
(589.876,164.58,o),
(594.002,249.6,o),
(593.828,439.929,cs),
(593.828,587.929,o),
(475.828,679.929,o),
(349.828,679.929,cs),
(245.828,679.929,o),
(245.828,543.929,o),
(349.828,543.929,cs),
(417.828,543.929,o),
(453.828,489.929,o),
(453.828,439.929,cs),
(453.767,251.588,o),
(452.801,213.112,o),
(414,170,cs),
(362,112,o),
(264,114,o),
(214,170,cs),
(178,210,o),
(174,236,o),
(174,366,cs),
(174,604,ls),
(174,704,o),
(34,704,o),
(34,604,cs),
(34,366,ls),
(34,232,o),
(40,160,o),
(106,82,cs)
);
}
);
width = 620.83;
}
);
unicode = 434;
},
{
glyphname = Whook;
kernLeft = W;
kernRight = T;
lastChange = "2026-06-13 17:39:10 +0000";
layers = (
{
anchors = (
{
name = bottom;
pos = (441.32,0);
},
{
name = top;
pos = (423.3,680);
},
{
name = topright;
pos = (839.3,678);
}
);
layerId = "FDF8D1BA-B4CE-4A91-B9C2-23316F7DE4E8";
shapes = (
{
closed = 1;
nodes = (
(127.3,714,o),
(-8.7,690,o),
(21.3,578,cs),
(151.3,90,ls),
(183.3,-28,o),
(315.3,-28,o),
(343.3,90,cs),
(423.3,438,l),
(501.3,90,ls),
(527.3,-28,o),
(663.856,-28.149,o),
(695.3,90,cs),
(796.511,471.201,ls),
(807.504,512.607,o),
(841.529,551.825,o),
(898.95,551.825,cs),
(1002.95,551.825,o),
(1006.95,689.825,o),
(902.95,689.825,cs),
(783.076,689.825,o),
(695.112,619.231,o),
(660.641,478.413,cs),
(601.3,236,l),
(517.3,594,ls),
(491.3,706,o),
(355.3,706,o),
(329.3,594,cs),
(245.3,236,l),
(151.3,620,ls)
);
}
);
width = 993.98;
}
);
unicode = 11378;
},
{
glyphname = X;
kernLeft = X;
kernRight = X;
lastChange = "2026-06-08 20:19:08 +0000";
layers = (
{
anchors = (
{
name = bottom;
pos = (300,0);
},
{
name = top;
pos = (300,680);
}
);
layerId = "FDF8D1BA-B4CE-4A91-B9C2-23316F7DE4E8";
shapes = (
{
closed = 1;
nodes = (
(112,0,o),
(132,6,o),
(154,34,cs),
(300,226,l),
(446,34,ls),
(468,6,o),
(490,0,o),
(514,0,cs),
(568,0,o),
(594,62,o),
(562,106,cs),
(390,340,l),
(560,558,ls),
(630,648,o),
(514,728,o),
(452,646,cs),
(300,448,l),
(150,646,ls),
(88,728,o),
(-30,648,o),
(40,558,cs),
(210,340,l),
(38,106,ls),
(6,62,o),
(34,0,o),
(88,0,cs)
);
}
);
width = 602;
}
);
unicode = 88;
},
{
glyphname = Y;
kernLeft = T;
kernRight = T;
lastChange = "2026-06-08 20:02:08 +0000";
layers = (
{
anchors = (
{
name = bottom;
pos = (298,0);
},
{
name = top;
pos = (298,680);
},
{
name = topleft;
pos = (-42,680);
}
);
layerId = "FDF8D1BA-B4CE-4A91-B9C2-23316F7DE4E8";
shapes = (
{
closed = 1;
nodes = (
(230,-24,o),
(366,-24,o),
(366,76,cs),
(366,310,l),
(562,560,ls),
(630,646,o),
(518,730,o),
(450,644,cs),
(298,452,l),
(146,644,ls),
(78,728,o),
(-30,646,o),
(36,560,cs),
(230,310,l),
(230,76,ls)
);
}
);
width = 598;
}
);
unicode = 89;
},
{
glyphname = Yhook;
kernLeft = T;
kernRight = T;
lastChange = "2026-06-13 17:45:30 +0000";
layers = (
{
anchors = (
{
name = bottom;
pos = (297.57,0);
},
{
name = top;
pos = (297.57,680);
},
{
name = topleft;
pos = (-42.43,680);
}
);
layerId = "FDF8D1BA-B4CE-4A91-B9C2-23316F7DE4E8";
shapes = (
{
closed = 1;
nodes = (
(229.57,-24,o),
(365.57,-24,o),
(365.57,76,cs),
(365.57,310,l),
(515.528,501.272,ls),
(541.152,533.957,o),
(568.183,544.798,o),
(600.76,544.798,cs),
(704.76,544.798,o),
(704.76,680.798,o),
(600.76,680.798,cs),
(522.983,680.798,o),
(458.692,654.334,o),
(405.427,587.445,cs),
(297.57,452,l),
(145.57,644,ls),
(77.57,728,o),
(-30.43,646,o),
(35.57,560,cs),
(229.57,310,l),
(229.57,76,ls)
);
}
);
width = 693.76;
}
);
unicode = 435;
},
{
glyphname = Z;
lastChange = "2026-06-08 20:19:09 +0000";
layers = (
{
anchors = (
{
name = bottom;
pos = (298,0);
},
{
name = center;
pos = (298,340);
},
{
name = hook;
pos = (580,70);
},
{
name = top;
pos = (298,690);
}
);
layerId = "FDF8D1BA-B4CE-4A91-B9C2-23316F7DE4E8";
shapes = (
{
closed = 1;
nodes = (
(504,0,ls),
(606,0,o),
(606,136,o),
(504,136,cs),
(222,136,l),
(550,534,ls),
(598,592,o),
(574,680,o),
(476,680,cs),
(96,680,ls),
(-10,680,o),
(-10,544,o),
(96,544,cs),
(380,544,l),
(52,146,ls),
(8,92,o),
(26,0,o),
(124,0,cs)
);
}
);
width = 600;
}
);
unicode = 90;
},
{
glyphname = Zhook;
lastChange = "2026-06-17 19:31:43 +0000";
layers = (
{
anchors = (
{
name = bottom;
pos = (298,0);
},
{
name = center;
pos = (300,340);
},
{
name = hook;
pos = (580,70);
},
{
name = top;
pos = (300,680);
}
);
layerId = "FDF8D1BA-B4CE-4A91-B9C2-23316F7DE4E8";
shapes = (
{
closed = 1;
nodes = (
(462,-234,o),
(580,-142,o),
(580,6,cs),
(580,60,l),
(584,95,o),
(559,136,o),
(504,136,cs),
(222,136,l),
(550,534,ls),
(598,592,o),
(574,680,o),
(476,680,cs),
(96,680,ls),
(-10,680,o),
(-10,544,o),
(96,544,cs),
(380,544,l),
(52,146,ls),
(8,92,o),
(26,0,o),
(124,0,cs),
(440,0,l),
(437,-49,o),
(401,-98,o),
(336,-98,cs),
(232,-98,o),
(232,-234,o),
(336,-234,cs)
);
}
);
width = 600;
}
);
tags = (
"to-flat"
);
unicode = 548;
},
{
glyphname = glottalstop;
lastChange = "2026-06-15 13:59:29 +0000";
layers = (
{
anchors = (
{
name = bottom;
pos = (223.818,0);
},
{
name = ogonek;
pos = (223.818,70);
},
{
name = top;
pos = (223.818,680);
},
{
name = topleft;
pos = (97.818,680);
}
);
layerId = "FDF8D1BA-B4CE-4A91-B9C2-23316F7DE4E8";
shapes = (
{
closed = 1;
nodes = (
(153.818,-24,o),
(293.818,-24,o),
(293.818,76,c),
(293.962,193.964,ls),
(294.093,301,o),
(337.72,314.308,o),
(387.675,395.309,cs),
(431.704,466.703,o),
(429.704,547.851,o),
(382.525,611.643,cs),
(343.821,663.977,o),
(283,696,o),
(198,688,cs),
(121.916,680.839,o),
(60,630,o),
(34,558,c),
(-10,464,o),
(114,408,o),
(158,498,c),
(178,551,o),
(215.781,562.411,o),
(247.31,548.589,cs),
(277.715,535.26,o),
(289.041,499.412,o),
(274,468,cs),
(238.676,394.229,o),
(154.211,345.985,o),
(154,200.964,cs),
(153.818,76,l)
);
}
);
width = 450;
}
);
unicode = 660;
},
{
glyphname = qhooktail;
kernLeft = O;
kernRight = L;
lastChange = "2026-06-17 19:31:43 +0000";
layers = (
{
anchors = (
{
name = bottom;
pos = (363,0);
},
{
name = center;
pos = (354,340);
},
{
name = ogonek;
pos = (617,70);
},
{
name = top;
pos = (363,680);
},
{
name = topleft;
pos = (491,680);
},
{
name = topright;
pos = (678,680);
}
);
layerId = "FDF8D1BA-B4CE-4A91-B9C2-23316F7DE4E8";
shapes = (
{
closed = 1;
nodes = (
(895,-240,o),
(895,-104,o),
(791,-104,cs),
(723,-104,o),
(687,-50,o),
(687,0,cs),
(687,604,ls),
(687,697,o),
(565,703,o),
(549,623,c),
(493,665,o),
(425,690,o),
(350,690,cs),
(166,690,o),
(18,534,o),
(18,342,cs),
(18,150,o),
(168,-10,o),
(350,-10,cs),
(423,-10,o),
(492,15,o),
(547,57,c),
(547,0,ls),
(547,-148,o),
(665,-240,o),
(791,-240,cs)
);
},
{
closed = 1;
nodes = (
(242,126,o),
(158,226,o),
(158,342,cs),
(158,458,o),
(242,554,o),
(350,554,cs),
(460,554,o),
(546,458,o),
(546,342,cs),
(546,226,o),
(460,126,o),
(350,126,cs)
);
}
);
width = 883;
}
);
tags = (
"to-flat"
);
unicode = 587;
},
{
glyphname = longs;
kernRight = F;
lastChange = "2026-06-17 17:36:21 +0000";
layers = (
{
layerId = "FDF8D1BA-B4CE-4A91-B9C2-23316F7DE4E8";
shapes = (
{
closed = 1;
nodes = (
(36,-24,o),
(176,-24,o),
(176,76,cs),
(176,444,ls),
(176,516,o),
(204,554,o),
(282,554,cs),
(386,554,o),
(386,690,o),
(282,690,cs),
(132,690,o),
(36,612,o),
(36,450,cs),
(36,76,ls)
);
}
);
width = 376;
}
);
unicode = 383;
},
{
glyphname = ordfeminine;
lastChange = "2026-06-08 20:19:08 +0000";
layers = (
{
layerId = "FDF8D1BA-B4CE-4A91-B9C2-23316F7DE4E8";
shapes = (
{
closed = 1;
nodes = (
(430,246,o),
(508,264,o),
(514,326,cs),
(518,362,o),
(490,382,o),
(476,392,cs),
(452,410,o),
(434,430,o),
(434,474,c),
(322,486,l),
(300,436,ls),
(280,388,o),
(332,346,o),
(364,314,cs)
);
},
{
ref = degree;
}
);
width = 532;
}
);
unicode = 170;
},
{
glyphname = "Be-cy";
lastChange = "2026-06-08 20:19:08 +0000";
layers = (
{
anchors = (
{
name = bottom;
pos = (264,0);
},
{
name = center;
pos = (264,350);
},
{
name = top;
pos = (264,690);
},
{
name = topright;
pos = (544,700);
}
);
layerId = "FDF8D1BA-B4CE-4A91-B9C2-23316F7DE4E8";
shapes = (
{
closed = 1;
nodes = (
(304,0,ls),
(442,0,o),
(514,102,o),
(514,200,cs),
(514,300,o),
(442,406,o),
(306,406,cs),
(182,406,l),
(182,544,l),
(428,544,ls),
(530,544,o),
(530,680,o),
(428,680,cs),
(114,680,ls),
(78,680,o),
(42,654,o),
(42,604,cs),
(42,76,ls),
(42,22,o),
(82,0,o),
(120,0,cs)
);
},
{
closed = 1;
nodes = (
(182,274,l),
(296,274,ls),
(400,274,o),
(404,136,o),
(296,136,cs),
(182,136,l)
);
}
);
width = 536;
}
);
unicode = 1041;
},
{
glyphname = "Geupturn-cy";
kernRight = T;
lastChange = "2026-06-17 19:31:43 +0000";
layers = (
{
anchors = (
{
name = bottom;
pos = (264,0);
},
{
name = bottomright;
pos = (514,0);
},
{
name = center;
pos = (264,356);
},
{
name = top;
pos = (264,876);
}
);
layerId = "FDF8D1BA-B4CE-4A91-B9C2-23316F7DE4E8";
shapes = (
{
closed = 1;
nodes = (
(42,-24,o),
(182,-24,o),
(182,76,cs),
(182,544,l),
(450,544,ls),
(482,544,o),
(506,558,o),
(516,584,cs),
(521,595,o),
(523,609,o),
(522,620,c),
(522,744,ls),
(522,846,o),
(382,846,o),
(382,744,cs),
(382,680,l),
(130,680,ls),
(74,680,o),
(42,650,o),
(42,592,cs),
(42,76,ls)
);
}
);
width = 540;
}
);
tags = (
"to-flat"
);
unicode = 1168;
},
{
glyphname = "Gedescender-cy";
kernRight = T;
lastChange = "2026-06-17 19:31:43 +0000";
layers = (
{
anchors = (
{
name = bottom;
pos = (280,0);
},
{
name = bottomright;
pos = (184,0);
},
{
name = center;
pos = (358,340);
},
{
name = top;
pos = (280,690);
}
);
layerId = "FDF8D1BA-B4CE-4A91-B9C2-23316F7DE4E8";
shapes = (
{
closed = 1;
nodes = (
(164,-166,o),
(304,-166,o),
(304,-64,cs),
(304,64,ls),
(304,110,o),
(276,136,o),
(232,136,cs),
(182,136,l),
(182,544,l),
(446,544,ls),
(548,544,o),
(548,680,o),
(446,680,cs),
(130,680,ls),
(74,680,o),
(42,650,o),
(42,592,cs),
(42,76,ls),
(42,33,o),
(67,8,o),
(98,2,cs),
(104,1,o),
(112,0,o),
(120,0,cs),
(164,0,l),
(164,-64,ls)
);
}
);
width = 538;
}
);
tags = (
"to-flat"
);
unicode = 1270;
},
{
glyphname = "Gestroke-cy";
kernLeft = Lslash;
kernRight = T;
lastChange = "2026-06-17 19:31:43 +0000";
layers = (
{
anchors = (
{
name = bottom;
pos = (460,0);
},
{
name = bottomright;
pos = (214,0);
},
{
name = center;
pos = (458,340);
},
{
name = top;
pos = (398,680);
}
);
layerId = "FDF8D1BA-B4CE-4A91-B9C2-23316F7DE4E8";
shapes = (
{
closed = 1;
nodes = (
(142,-24,o),
(282,-24,o),
(282,76,cs),
(282,270,l),
(330,270,ls),
(440,270,o),
(440,406,o),
(330,406,cs),
(282,406,l),
(282,544,l),
(546,544,ls),
(648,544,o),
(648,680,o),
(546,680,cs),
(230,680,ls),
(174,680,o),
(142,650,o),
(142,592,cs),
(142,406,l),
(94,406,ls),
(-12,406,o),
(-12,270,o),
(94,270,cs),
(142,270,l),
(142,76,ls)
);
}
);
width = 638;
}
);
tags = (
"to-flat"
);
unicode = 1170;
},
{
glyphname = "Gemiddlehook-cy";
lastChange = "2026-06-17 19:31:43 +0000";
layers = (
{
anchors = (
{
name = bottom;
pos = (-6,-230);
},
{
name = bottomright;
pos = (396,0);
},
{
name = center;
pos = (120,350);
},
{
name = ogonekabove;
pos = (-180,630);
},
{
name = top;
pos = (-6,680);
},
{
name = topright;
pos = (544,700);
}
);
layerId = "FDF8D1BA-B4CE-4A91-B9C2-23316F7DE4E8";
shapes = (
{
closed = 1;
nodes = (
(482,64,o),
(514,142,o),
(518,210,cs),
(522,316,o),
(454,424,o),
(342,446,cs),
(290,458,o),
(232,454,o),
(182,428,c),
(182,544,l),
(428,544,ls),
(530,544,o),
(530,680,o),
(428,680,cs),
(114,680,ls),
(78,680,o),
(42,654,o),
(42,604,cs),
(42,76,ls),
(42,-24,o),
(182,-24,o),
(182,76,cs),
(182,190,ls),
(182,284,o),
(232,318,o),
(288,316,cs),
(320,314,o),
(350,298,o),
(366,272,cs),
(390,234,o),
(380,174,o),
(336,126,cs),
(268,48,o),
(350,-30,o),
(420,18,cs)
);
}
);
width = 540;
}
);
tags = (
"to-flat"
);
unicode = 1172;
},
{
glyphname = "De-cy";
kernLeft = A;
kernRight = "De-cy";
lastChange = "2026-06-17 19:31:43 +0000";
layers = (
{
anchors = (
{
name = bottom;
pos = (380,0);
},
{
name = bottomright;
pos = (628,0);
},
{
name = top;
pos = (380,690);
}
);
layerId = "FDF8D1BA-B4CE-4A91-B9C2-23316F7DE4E8";
shapes = (
{
closed = 1;
nodes = (
(14,-166,o),
(154,-166,o),
(154,-64,cs),
(154,0,l),
(608,0,l),
(608,-64,ls),
(608,-166,o),
(748,-166,o),
(748,-64,cs),
(748,64,ls),
(748,110,o),
(720,136,o),
(676,136,cs),
(628,136,l),
(628,586,ls),
(628,640,o),
(588,680,o),
(534,680,cs),
(288,680,ls),
(244,680,o),
(198,646,o),
(198,596,cs),
(198,220,o),
(14,206,o),
(14,0,cs),
(14,-64,ls)
);
},
{
closed = 1;
nodes = (
(308,284,o),
(332,428,o),
(336,544,c),
(488,544,l),
(488,136,l),
(208,136,l)
);
}
);
width = 764;
}
);
tags = (
"to-flat"
);
unicode = 1044;
},
{
glyphname = "Zhe-cy";
lastChange = "2026-06-17 19:31:43 +0000";
layers = (
{
anchors = (
{
name = bottom;
pos = (480,0);
},
{
name = bottomleft;
pos = (-12,0);
},
{
name = bottomright;
pos = (818,0);
},
{
name = top;
pos = (480,680);
}
);
layerId = "FDF8D1BA-B4CE-4A91-B9C2-23316F7DE4E8";
shapes = (
{
closed = 1;
nodes = (
(356,270,l),
(410,270,l),
(410,76,ls),
(410,-24,o),
(550,-24,o),
(550,76,cs),
(550,270,l),
(604,270,l),
(808,34,ls),
(880,-50,o),
(986,40,o),
(918,118,cs),
(728,338,l),
(908,554,ls),
(984,646,o),
(870,726,o),
(804,646,cs),
(604,406,l),
(550,406,l),
(550,604,ls),
(550,704,o),
(410,704,o),
(410,604,cs),
(410,406,l),
(356,406,l),
(154,646,ls),
(88,726,o),
(-26,646,o),
(50,554,cs),
(230,338,l),
(40,118,ls),
(-28,40,o),
(78,-50,o),
(150,34,cs)
);
}
);
width = 958;
}
);
tags = (
"to-flat"
);
unicode = 1046;
},
{
glyphname = "Ka-cy";
lastChange = "2026-06-08 20:19:08 +0000";
layers = (
{
anchors = (
{
name = bottom;
pos = (298,0);
},
{
name = bottomright;
pos = (574,0);
},
{
name = top;
pos = (298,680);
}
);
layerId = "FDF8D1BA-B4CE-4A91-B9C2-23316F7DE4E8";
shapes = (
{
closed = 1;
nodes = (
(512,-50,o),
(618,40,o),
(550,118,cs),
(360,338,l),
(540,554,ls),
(616,646,o),
(502,726,o),
(436,646,cs),
(236,406,l),
(182,406,l),
(182,604,ls),
(182,704,o),
(42,704,o),
(42,604,c),
(42,76,l),
(42,-24,o),
(182,-24,o),
(182,76,cs),
(182,270,l),
(236,270,l),
(440,34,ls)
);
}
);
width = 590;
}
);
unicode = 1050;
},
{
glyphname = "El-cy";
kernLeft = "El-cy";
lastChange = "2026-06-08 20:19:09 +0000";
layers = (
{
anchors = (
{
name = bottom;
pos = (376,0);
},
{
name = bottomright;
pos = (716,0);
},
{
name = hook;
pos = (716,76);
}
);
layerId = "FDF8D1BA-B4CE-4A91-B9C2-23316F7DE4E8";
shapes = (
{
closed = 1;
nodes = (
(254,0,o),
(334,104,o),
(350,242,cs),
(384,544,l),
(576,544,l),
(576,76,ls),
(576,-24,o),
(716,-24,o),
(716,76,cs),
(716,588,ls),
(716,646,o),
(684,680,o),
(620,680,cs),
(346,680,ls),
(284,680,o),
(256,648,o),
(250,588,cs),
(216,284,ls),
(204,180,o),
(178,136,o),
(96,136,cs),
(-14,136,o),
(-6,0,o),
(96,0,cs)
);
}
);
width = 758;
}
);
unicode = 1051;
},
{
glyphname = "Pe-cy";
lastChange = "2026-06-08 19:54:27 +0000";
layers = (
{
anchors = (
{
name = bottom;
pos = (320,0);
},
{
name = bottomright;
pos = (594,0);
},
{
name = top;
pos = (320,690);
}
);
layerId = "FDF8D1BA-B4CE-4A91-B9C2-23316F7DE4E8";
shapes = (
{
closed = 1;
nodes = (
(42,-24,o),
(182,-24,o),
(182,76,cs),
(182,544,l),
(454,544,l),
(454,76,ls),
(454,-24,o),
(594,-24,o),
(594,76,cs),
(594,590,ls),
(594,640,o),
(566,680,o),
(506,680,cs),
(130,680,ls),
(70,680,o),
(42,640,o),
(42,590,cs),
(42,76,ls)
);
}
);
width = 636;
}
);
unicode = 1055;
},
{
glyphname = "U-cy";
kernLeft = W;
kernRight = V;
lastChange = "2026-06-08 20:19:09 +0000";
layers = (
{
anchors = (
{
name = bottom;
pos = (286,0);
},
{
name = top;
pos = (296,680);
}
);
layerId = "FDF8D1BA-B4CE-4A91-B9C2-23316F7DE4E8";
shapes = (
{
closed = 1;
nodes = (
(570,566,ls),
(622,670,o),
(492,722,o),
(448,634,cs),
(300,342,l),
(152,634,ls),
(106,726,o),
(-20,664,o),
(28,568,cs),
(222,186,l),
(184,110,ls),
(132,6,o),
(262,-46,o),
(310,48,cs)
);
}
);
width = 598;
}
);
unicode = 1059;
},
{
glyphname = "Ef-cy";
kernLeft = O;
lastChange = "2026-06-17 19:31:43 +0000";
layers = (
{
layerId = "FDF8D1BA-B4CE-4A91-B9C2-23316F7DE4E8";
shapes = (
{
closed = 1;
nodes = (
(262,-24,o),
(402,-24,o),
(402,76,c),
(546,100,o),
(642,210,o),
(642,344,cs),
(642,472,o),
(546,580,o),
(402,604,c),
(402,704,o),
(262,704,o),
(262,604,c),
(114,580,o),
(20,472,o),
(20,344,cs),
(20,210,o),
(114,100,o),
(262,76,c)
);
},
{
closed = 1;
nodes = (
(194,230,o),
(158,280,o),
(158,340,cs),
(158,396,o),
(198,454,o),
(262,468,c),
(262,214,l)
);
},
{
closed = 1;
nodes = (
(402,468,l),
(466,454,o),
(504,396,o),
(504,340,cs),
(504,280,o),
(466,230,o),
(402,214,c)
);
}
);
width = 662;
}
);
tags = (
"to-flat"
);
unicode = 1060;
},
{
glyphname = "Tse-cy";
kernRight = "De-cy";
lastChange = "2026-06-17 19:31:43 +0000";
layers = (
{
anchors = (
{
name = bottom;
pos = (320,0);
},
{
name = bottomright;
pos = (594,0);
},
{
name = top;
pos = (318,680);
},
{
name = topleft;
pos = (96,680);
},
{
name = topright;
pos = (594,680);
}
);
layerId = "FDF8D1BA-B4CE-4A91-B9C2-23316F7DE4E8";
shapes = (
{
closed = 1;
nodes = (
(574,-166,o),
(714,-166,o),
(714,-64,cs),
(714,64,ls),
(714,110,o),
(686,136,o),
(642,136,cs),
(594,136,l),
(594,604,ls),
(594,704,o),
(454,704,o),
(454,604,cs),
(454,136,l),
(182,136,l),
(182,604,ls),
(182,704,o),
(42,704,o),
(42,604,cs),
(42,90,ls),
(42,40,o),
(70,0,o),
(130,0,cs),
(574,0,l),
(574,-64,ls)
);
}
);
width = 730;
}
);
tags = (
"to-flat"
);
unicode = 1062;
},
{
glyphname = "Che-cy";
kernLeft = "Che-cy";
lastChange = "2026-06-08 19:58:23 +0000";
layers = (
{
anchors = (
{
name = bottom;
pos = (306,0);
},
{
name = bottomright;
pos = (562,0);
},
{
name = "bottomright-alt";
pos = (420,0);
},
{
name = top;
pos = (306,680);
},
{
name = topleft;
pos = (676,680);
}
);
layerId = "FDF8D1BA-B4CE-4A91-B9C2-23316F7DE4E8";
shapes = (
{
closed = 1;
nodes = (
(422,-24,o),
(562,-24,o),
(562,76,cs),
(562,604,ls),
(562,704,o),
(422,704,o),
(422,604,cs),
(422,506,ls),
(422,410,o),
(366,376,o),
(294,376,cs),
(210,376,o),
(162,428,o),
(162,516,cs),
(162,564,o),
(162,592,o),
(162,604,cs),
(162,704,o),
(22,704,o),
(22,604,cs),
(22,454,o),
(24,396,o),
(92,316,cs),
(156,242,o),
(298,212,o),
(422,260,c),
(422,76,ls)
);
}
);
width = 604;
}
);
unicode = 1063;
},
{
glyphname = "Sha-cy";
lastChange = "2026-06-08 20:19:09 +0000";
layers = (
{
anchors = (
{
name = bottom;
pos = (442,0);
},
{
name = bottomright;
pos = (838,0);
},
{
name = top;
pos = (442,680);
}
);
layerId = "FDF8D1BA-B4CE-4A91-B9C2-23316F7DE4E8";
shapes = (
{
closed = 1;
nodes = (
(742,0,ls),
(812,0,o),
(838,36,o),
(838,96,cs),
(838,604,ls),
(838,704,o),
(698,704,o),
(698,604,cs),
(698,136,l),
(510,136,l),
(510,604,ls),
(510,704,o),
(370,704,o),
(370,604,cs),
(370,136,l),
(182,136,l),
(182,604,ls),
(182,704,o),
(42,704,o),
(42,604,cs),
(42,96,ls),
(42,36,o),
(68,0,o),
(138,0,cs)
);
}
);
width = 880;
}
);
unicode = 1064;
},
{
glyphname = "Shcha-cy";
kernRight = "De-cy";
lastChange = "2026-06-17 19:31:43 +0000";
layers = (
{
anchors = (
{
name = bottom;
pos = (442,0);
},
{
name = bottomright;
pos = (836,0);
},
{
name = top;
pos = (442,680);
}
);
layerId = "FDF8D1BA-B4CE-4A91-B9C2-23316F7DE4E8";
shapes = (
{
closed = 1;
nodes = (
(818,-166,o),
(958,-166,o),
(958,-64,cs),
(958,64,ls),
(958,110,o),
(930,136,o),
(886,136,cs),
(838,136,l),
(838,604,ls),
(838,704,o),
(698,704,o),
(698,604,cs),
(698,136,l),
(510,136,l),
(510,604,ls),
(510,704,o),
(370,704,o),
(370,604,cs),
(370,136,l),
(182,136,l),
(182,604,ls),
(182,704,o),
(42,704,o),
(42,604,cs),
(42,96,ls),
(42,36,o),
(68,0,o),
(138,0,cs),
(742,0,ls),
(748,0,o),
(754,0,o),
(760,1,c),
(765,0,o),
(769,0,o),
(774,0,cs),
(818,0,l),
(818,-64,ls)
);
}
);
width = 974;
}
);
tags = (
"to-flat"
);
unicode = 1065;
},
{
glyphname = "Dzhe-cy";
lastChange = "2026-06-17 19:31:43 +0000";
layers = (
{
anchors = (
{
name = bottom;
pos = (320,0);
},
{
name = bottomright;
pos = (318,0);
},
{
name = top;
pos = (318,680);
},
{
name = topright;
pos = (594,680);
}
);
layerId = "FDF8D1BA-B4CE-4A91-B9C2-23316F7DE4E8";
shapes = (
{
closed = 1;
nodes = (
(250,-166,o),
(390,-166,o),
(390,-64,cs),
(390,0,l),
(502,0,ls),
(566,0,o),
(594,38,o),
(594,92,cs),
(594,604,ls),
(594,704,o),
(454,704,o),
(454,604,cs),
(454,136,l),
(182,136,l),
(182,604,ls),
(182,704,o),
(42,704,o),
(42,604,cs),
(42,92,ls),
(42,38,o),
(70,0,o),
(134,0,cs),
(250,0,l),
(250,-64,ls)
);
}
);
width = 636;
}
);
tags = (
"to-flat"
);
unicode = 1039;
},
{
glyphname = "Hardsign-cy";
kernRight = Softsign;
lastChange = "2026-06-17 19:31:43 +0000";
layers = (
{
anchors = (
{
name = bottom;
pos = (458,0);
},
{
name = top;
pos = (458,680);
}
);
layerId = "FDF8D1BA-B4CE-4A91-B9C2-23316F7DE4E8";
shapes = (
{
closed = 1;
nodes = (
(398,0,ls),
(536,0,o),
(608,102,o),
(608,200,cs),
(608,300,o),
(536,404,o),
(400,404,cs),
(276,404,l),
(276,608,ls),
(276,654,o),
(248,680,o),
(204,680,cs),
(92,680,ls),
(-10,680,o),
(-10,544,o),
(92,544,cs),
(136,544,l),
(136,92,ls),
(136,34,o),
(168,0,o),
(234,0,cs)
);
},
{
closed = 1;
nodes = (
(276,274,l),
(390,274,ls),
(494,274,o),
(498,136,o),
(390,136,cs),
(276,136,l)
);
}
);
width = 628;
}
);
tags = (
"to-flat"
);
unicode = 1066;
},
{
glyphname = "Lje-cy";
kernLeft = "El-cy";
kernRight = Softsign;
lastChange = "2026-06-17 19:31:43 +0000";
layers = (
{
anchors = (
{
name = bottom;
pos = (726,0);
},
{
name = bottomright;
pos = (620,0);
},
{
name = top;
pos = (726,680);
}
);
layerId = "FDF8D1BA-B4CE-4A91-B9C2-23316F7DE4E8";
shapes = (
{
closed = 1;
nodes = (
(254,0,o),
(334,104,o),
(350,242,cs),
(384,544,l),
(576,544,l),
(576,86,ls),
(576,46,o),
(602,0,o),
(674,0,cs),
(838,0,ls),
(976,0,o),
(1048,102,o),
(1048,200,cs),
(1048,300,o),
(976,404,o),
(840,404,cs),
(716,404,l),
(716,588,ls),
(716,646,o),
(684,680,o),
(620,680,cs),
(346,680,ls),
(284,680,o),
(256,648,o),
(250,588,cs),
(216,284,ls),
(204,180,o),
(178,136,o),
(96,136,cs),
(-14,136,o),
(-6,0,o),
(96,0,cs)
);
},
{
closed = 1;
nodes = (
(716,274,l),
(830,274,ls),
(934,274,o),
(938,136,o),
(830,136,cs),
(716,136,l)
);
}
);
width = 1068;
}
);
tags = (
"to-flat"
);
unicode = 1033;
},
{
glyphname = "Nje-cy";
kernRight = Softsign;
lastChange = "2026-06-17 19:31:43 +0000";
layers = (
{
anchors = (
{
name = bottom;
pos = (110,0);
},
{
name = center;
pos = (324,526);
},
{
name = top;
pos = (324,680);
},
{
name = topleft;
pos = (4,680);
}
);
layerId = "FDF8D1BA-B4CE-4A91-B9C2-23316F7DE4E8";
shapes = (
{
closed = 1;
nodes = (
(724,0,ls),
(862,0,o),
(934,102,o),
(934,200,cs),
(934,300,o),
(862,404,o),
(726,404,cs),
(602,404,l),
(602,604,ls),
(602,704,o),
(462,704,o),
(462,604,cs),
(462,406,l),
(182,406,l),
(182,604,ls),
(182,704,o),
(42,704,o),
(42,604,cs),
(42,76,ls),
(42,-24,o),
(182,-24,o),
(182,76,cs),
(182,270,l),
(462,270,l),
(462,92,ls),
(462,34,o),
(494,0,o),
(560,0,cs)
);
},
{
closed = 1;
nodes = (
(602,274,l),
(716,274,ls),
(820,274,o),
(824,136,o),
(716,136,cs),
(602,136,l)
);
}
);
width = 954;
}
);
tags = (
"to-flat"
);
unicode = 1034;
},
{
glyphname = "E-cy";
kernLeft = O;
kernRight = C;
lastChange = "2026-06-17 19:31:43 +0000";
layers = (
{
anchors = (
{
name = bottom;
pos = (326,-10);
},
{
name = top;
pos = (336,690);
}
);
layerId = "FDF8D1BA-B4CE-4A91-B9C2-23316F7DE4E8";
shapes = (
{
closed = 1;
nodes = (
(434,-10,o),
(514,18,o),
(574,78,c),
(640,152,o),
(554,246,o),
(480,176,cs),
(446,146,o),
(398,126,o),
(352,126,cs),
(269,126,o),
(201,186,o),
(174,270,c),
(446,270,ls),
(554,270,o),
(554,406,o),
(446,406,cs),
(169,406,l),
(204,549,o),
(367,602,o),
(478,502,cs),
(552,434,o),
(636,528,o),
(574,598,cs),
(520,660,o),
(434,690,o),
(352,690,cs),
(162,690,o),
(22,534,o),
(22,348,cs),
(22,152,o),
(164,-10,o),
(352,-10,cs)
);
}
);
width = 618;
}
);
tags = (
"to-flat"
);
unicode = 1028;
},
{
glyphname = "Tshe-cy";
kernLeft = T;
lastChange = "2026-06-17 19:31:43 +0000";
layers = (
{
anchors = (
{
name = bottom;
pos = (184,-230);
},
{
name = bottomright;
pos = (622,0);
},
{
name = center;
pos = (308,350);
},
{
name = ogonekabove;
pos = (8,630);
},
{
name = top;
pos = (184,680);
},
{
name = topleft;
pos = (230,680);
},
{
name = "topleft-alt";
pos = (372,680);
}
);
layerId = "FDF8D1BA-B4CE-4A91-B9C2-23316F7DE4E8";
shapes = (
{
closed = 1;
nodes = (
(231,-23,o),
(370,-24,o),
(370,76,cs),
(370,174,ls),
(370,270,o),
(426,304,o),
(498,304,cs),
(582,304,o),
(630,252,o),
(630,164,cs),
(630,76,ls),
(630,-24,o),
(770,-24,o),
(770,76,cs),
(770,226,o),
(768,284,o),
(700,364,cs),
(636,438,o),
(494,468,o),
(370,420,c),
(370,544,l),
(506,544,ls),
(608,544,o),
(608,680,o),
(506,680,cs),
(94,680,ls),
(-10,680,o),
(-10,544,o),
(94,544,cs),
(230,544,l),
(230,75,ls)
);
}
);
width = 792;
}
);
tags = (
"to-flat"
);
unicode = 1035;
},
{
glyphname = "Yu-cy";
kernRight = O;
lastChange = "2026-06-17 19:31:43 +0000";
layers = (
{
anchors = (
{
name = bottom;
pos = (580,0);
},
{
name = center;
pos = (582,340);
},
{
name = ogonek;
pos = (580,58);
},
{
name = top;
pos = (474,680);
},
{
name = topleft;
pos = (258,680);
},
{
name = topright;
pos = (906,680);
}
);
layerId = "FDF8D1BA-B4CE-4A91-B9C2-23316F7DE4E8";
shapes = (
{
closed = 1;
nodes = (
(762,-10,o),
(914,148,o),
(914,340,cs),
(914,532,o),
(766,690,o),
(578,690,cs),
(415,690,o),
(280,567,o),
(252,406,c),
(182,406,l),
(182,604,ls),
(182,704,o),
(42,704,o),
(42,604,cs),
(42,76,ls),
(42,-24,o),
(182,-24,o),
(182,76,cs),
(182,270,l),
(253,270,l),
(285,111,o),
(419,-10,o),
(578,-10,cs)
);
},
{
closed = 1;
nodes = (
(470,126,o),
(386,226,o),
(386,342,cs),
(386,458,o),
(470,554,o),
(578,554,cs),
(688,554,o),
(774,458,o),
(774,342,cs),
(774,226,o),
(688,126,o),
(578,126,cs)
);
}
);
width = 936;
}
);
tags = (
"to-flat"
);
unicode = 1070;
},
{
glyphname = "Dje-cy";
lastChange = "2026-06-17 19:31:43 +0000";
layers = (
{
anchors = (
{
name = bottom;
pos = (184,-230);
},
{
name = bottomright;
pos = (598,0);
},
{
name = center;
pos = (300,350);
},
{
name = top;
pos = (300,680);
}
);
layerId = "FDF8D1BA-B4CE-4A91-B9C2-23316F7DE4E8";
shapes = (
{
closed = 1;
nodes = (
(678,66,o),
(708,146,o),
(712,216,cs),
(718,326,o),
(650,432,o),
(534,456,cs),
(482,468,o),
(422,464,o),
(370,436,c),
(370,544,l),
(506,544,ls),
(608,544,o),
(608,680,o),
(506,680,cs),
(94,680,ls),
(-10,680,o),
(-10,544,o),
(94,544,cs),
(230,544,l),
(230,76,ls),
(230,-24,o),
(370,-24,o),
(370,76,cs),
(370,196,ls),
(370,292,o),
(420,328,o),
(480,326,cs),
(512,324,o),
(542,308,o),
(560,280,cs),
(584,242,o),
(576,178,o),
(530,130,cs),
(456,54,o),
(542,-32,o),
(614,20,cs)
);
}
);
width = 732;
}
);
tags = (
"to-flat"
);
unicode = 1026;
},
{
glyphname = "Yat-cy";
kernLeft = T;
lastChange = "2026-06-17 19:31:43 +0000";
layers = (
{
anchors = (
{
name = bottom;
pos = (390,0);
},
{
name = top;
pos = (660,680);
}
);
layerId = "FDF8D1BA-B4CE-4A91-B9C2-23316F7DE4E8";
shapes = (
{
closed = 1;
nodes = (
(440,0,ls),
(578,0,o),
(650,102,o),
(650,200,cs),
(650,300,o),
(578,404,o),
(442,404,cs),
(318,404,l),
(318,456,l),
(366,456,ls),
(476,456,o),
(476,592,o),
(366,592,cs),
(318,592,l),
(318,604,ls),
(318,704,o),
(178,704,o),
(178,604,cs),
(178,592,l),
(130,592,ls),
(24,592,o),
(24,456,o),
(130,456,cs),
(178,456,l),
(178,92,ls),
(178,34,o),
(210,0,o),
(276,0,cs)
);
},
{
closed = 1;
nodes = (
(318,274,l),
(432,274,ls),
(536,274,o),
(540,136,o),
(432,136,cs),
(318,136,l)
);
}
);
width = 670;
}
);
tags = (
"to-flat"
);
unicode = 1122;
},
{
glyphname = "Yusbig-cy";
kernLeft = X;
kernRight = X;
lastChange = "2026-06-08 20:19:08 +0000";
layers = (
{
anchors = (
{
name = bottom;
pos = (424,0);
},
{
name = bottomleft;
pos = (424,0);
},
{
name = bottomright;
pos = (424,0);
},
{
name = center;
pos = (424,350);
},
{
name = top;
pos = (424,680);
}
);
layerId = "FDF8D1BA-B4CE-4A91-B9C2-23316F7DE4E8";
shapes = (
{
closed = 1;
nodes = (
(356,270,l),
(356,76,ls),
(356,-24,o),
(492,-24,o),
(492,76,cs),
(492,270,l),
(698,34,ls),
(770,-50,o),
(876,40,o),
(808,118,cs),
(616,338,l),
(788,518,l),
(842,576,o),
(816,680,o),
(716,680,c),
(132,680,l),
(32,680,o),
(6,576,o),
(60,518,c),
(232,338,l),
(40,118,ls),
(-28,40,o),
(78,-50,o),
(150,34,cs)
);
},
{
closed = 1;
nodes = (
(226,544,l),
(424,544,l),
(622,544,l),
(490,406,l),
(358,406,l)
);
}
);
width = 848;
}
);
unicode = 1130;
},
{
glyphname = "Fita-cy";
kernLeft = O;
kernRight = O;
lastChange = "2026-06-17 19:31:43 +0000";
layers = (
{
anchors = (
{
name = bottom;
pos = (352,16);
},
{
name = center;
pos = (356,350);
},
{
name = ogonek;
pos = (352,66);
},
{
name = top;
pos = (352,680);
},
{
name = topleft;
pos = (22,680);
},
{
name = topright;
pos = (682,700);
}
);
layerId = "FDF8D1BA-B4CE-4A91-B9C2-23316F7DE4E8";
shapes = (
{
closed = 1;
nodes = (
(538,-10,o),
(690,148,o),
(690,340,cs),
(690,532,o),
(542,690,o),
(354,690,cs),
(170,690,o),
(22,534,o),
(22,342,cs),
(22,150,o),
(172,-10,o),
(354,-10,cs)
);
},
{
closed = 1;
nodes = (
(266,126,o),
(194,191,o),
(170,279,c),
(176,282,o),
(190,289,o),
(210,294,cs),
(310,316,o),
(356,260,o),
(456,260,cs),
(501,260,o),
(533,272,o),
(540,275,c),
(515,191,o),
(442,126,o),
(354,126,cs)
);
},
{
closed = 1;
nodes = (
(400,382,o),
(354,434,o),
(254,434,cs),
(217,434,o),
(189,427,o),
(176,423,c),
(205,500,o),
(273,554,o),
(354,554,cs),
(440,554,o),
(511,495,o),
(538,415,c),
(532,411,o),
(518,403,o),
(500,400,cs)
);
}
);
width = 712;
}
);
tags = (
"to-flat"
);
unicode = 1138;
},
{
glyphname = "Izhitsa-cy";
kernLeft = V;
kernRight = T;
lastChange = "2026-06-08 20:19:08 +0000";
layers = (
{
anchors = (
{
name = bottom;
pos = (318,0);
},
{
name = top;
pos = (318,680);
}
);
layerId = "FDF8D1BA-B4CE-4A91-B9C2-23316F7DE4E8";
shapes = (
{
closed = 1;
nodes = (
(258,-24,o),
(372,-30,o),
(416,80,cs),
(576,486,ls),
(592,528,o),
(626,542,o),
(672,542,cs),
(782,542,o),
(774,680,o),
(672,680,cs),
(598,680,o),
(494,660,o),
(452,546,cs),
(318,178,l),
(154,626,ls),
(118,722,o),
(-14,678,o),
(24,578,cs),
(218,80,ls)
);
}
);
width = 768;
}
);
unicode = 1140;
},
{
glyphname = "Zhedescender-cy";
kernRight = "De-cy";
lastChange = "2026-06-17 19:31:43 +0000";
layers = (
{
anchors = (
{
name = bottom;
pos = (480,0);
},
{
name = bottomleft;
pos = (-2,0);
},
{
name = bottomright;
pos = (940,0);
},
{
name = top;
pos = (480,680);
}
);
layerId = "FDF8D1BA-B4CE-4A91-B9C2-23316F7DE4E8";
shapes = (
{
closed = 1;
nodes = (
(924,-166,o),
(1064,-166,o),
(1064,-64,cs),
(1064,64,ls),
(1064,110,o),
(1036,136,o),
(992,136,cs),
(902,136,l),
(728,338,l),
(908,554,ls),
(984,646,o),
(870,726,o),
(804,646,cs),
(604,406,l),
(550,406,l),
(550,604,ls),
(550,704,o),
(410,704,o),
(410,604,cs),
(410,406,l),
(356,406,l),
(154,646,ls),
(88,726,o),
(-26,646,o),
(50,554,cs),
(230,338,l),
(40,118,ls),
(-28,40,o),
(78,-50,o),
(150,34,cs),
(356,270,l),
(410,270,l),
(410,76,ls),
(410,-24,o),
(550,-24,o),
(550,76,cs),
(550,270,l),
(604,270,l),
(808,34,ls),
(828,11,o),
(850,1,o),
(872,0,cs),
(924,0,l),
(924,-64,ls)
);
}
);
width = 1080;
}
);
tags = (
"to-flat"
);
unicode = 1174;
},
{
glyphname = "Zedescender-cy";
lastChange = "2026-06-17 19:31:43 +0000";
layers = (
{
anchors = (
{
name = bottom;
pos = (237,-351);
},
{
name = top;
pos = (236,690);
}
);
layerId = "FDF8D1BA-B4CE-4A91-B9C2-23316F7DE4E8";
shapes = (
{
closed = 1;
nodes = (
(325,-276,o),
(403,-210,o),
(403,-121,cs),
(403,-65,o),
(372,-19,o),
(329,8,c),
(397,36,o),
(459,96,o),
(462,192,cs),
(466,296,o),
(396,352,o),
(372,368,c),
(394,394,o),
(428,426,o),
(428,508,cs),
(428,616,o),
(332,690,o),
(228,690,cs),
(142,690,o),
(90,648,o),
(58,606,cs),
(-2,528,o),
(92,444,o),
(162,518,cs),
(190,548,o),
(210,554,o),
(228,554,cs),
(264,554,o),
(288,528,o),
(288,492,cs),
(288,456,o),
(260,430,o),
(208,416,cs),
(124,394,o),
(140,284,o),
(222,284,cs),
(254,284,o),
(276,276,o),
(294,262,cs),
(332,230,o),
(332,174,o),
(294,144,cs),
(254,114,o),
(196,120,o),
(148,170,cs),
(80,244,o),
(-16,156,o),
(48,78,cs),
(81,37,o),
(124,11,o),
(168,-1,c),
(146,-41,o),
(169,-101,o),
(237,-101,cs),
(273,-101,o),
(273,-146,o),
(237,-146,cs),
(135,-146,o),
(135,-276,o),
(237,-276,cs)
);
}
);
width = 490;
}
);
tags = (
"to-flat"
);
unicode = 1176;
},
{
glyphname = "Kadescender-cy";
kernRight = "De-cy";
lastChange = "2026-06-17 19:31:43 +0000";
layers = (
{
anchors = (
{
name = bottom;
pos = (298,0);
},
{
name = bottomright;
pos = (574,0);
},
{
name = top;
pos = (298,680);
}
);
layerId = "FDF8D1BA-B4CE-4A91-B9C2-23316F7DE4E8";
shapes = (
{
closed = 1;
nodes = (
(554,-166,o),
(694,-166,o),
(694,-64,cs),
(694,64,ls),
(694,110,o),
(666,136,o),
(622,136,cs),
(534,136,l),
(360,338,l),
(540,554,ls),
(616,646,o),
(502,726,o),
(436,646,cs),
(236,406,l),
(182,406,l),
(182,604,ls),
(182,704,o),
(42,704,o),
(42,604,cs),
(42,76,ls),
(42,-24,o),
(182,-24,o),
(182,76,cs),
(182,270,l),
(236,270,l),
(440,34,ls),
(444,29,o),
(448,25,o),
(452,21,cs),
(461,12,o),
(474,5,o),
(488,2,cs),
(492,1,o),
(496,1,o),
(500,0,c),
(554,0,l),
(554,-64,ls)
);
}
);
width = 590;
}
);
tags = (
"to-flat"
);
unicode = 1178;
},
{
glyphname = "Kaverticalstroke-cy";
kernRight = X;
lastChange = "2026-06-17 19:31:43 +0000";
layers = (
{
anchors = (
{
name = bottom;
pos = (304,0);
},
{
name = bottomright;
pos = (598,0);
},
{
name = top;
pos = (304,680);
}
);
layerId = "FDF8D1BA-B4CE-4A91-B9C2-23316F7DE4E8";
shapes = (
{
closed = 1;
nodes = (
(652,-50,o),
(758,40,o),
(690,118,cs),
(500,338,l),
(680,554,ls),
(756,646,o),
(642,726,o),
(576,646,cs),
(380,411,l),
(380,454,ls),
(380,564,o),
(244,564,o),
(244,454,cs),
(244,406,l),
(182,406,l),
(182,604,ls),
(182,704,o),
(42,704,o),
(42,604,cs),
(42,76,ls),
(42,-24,o),
(182,-24,o),
(182,76,cs),
(182,270,l),
(244,270,l),
(244,218,ls),
(244,112,o),
(380,112,o),
(380,218,cs),
(380,265,l),
(580,34,ls)
);
}
);
width = 730;
}
);
tags = (
"to-flat"
);
unicode = 1180;
},
{
glyphname = "Kastroke-cy";
kernRight = X;
lastChange = "2026-06-17 19:31:43 +0000";
layers = (
{
anchors = (
{
name = bottom;
pos = (360,0);
},
{
name = bottomright;
pos = (636,0);
},
{
name = top;
pos = (298,680);
}
);
layerId = "FDF8D1BA-B4CE-4A91-B9C2-23316F7DE4E8";
shapes = (
{
closed = 1;
nodes = (
(574,-50,o),
(680,40,o),
(612,118,cs),
(422,338,l),
(602,554,ls),
(678,646,o),
(564,726,o),
(498,646,cs),
(298,406,l),
(244,406,l),
(244,464,l),
(254,464,ls),
(364,464,o),
(364,600,o),
(254,600,cs),
(244,600,l),
(244,604,ls),
(244,704,o),
(104,704,o),
(104,604,cs),
(104,600,l),
(94,600,ls),
(-12,600,o),
(-12,464,o),
(94,464,cs),
(104,464,l),
(104,76,ls),
(104,-24,o),
(244,-24,o),
(244,76,cs),
(244,270,l),
(298,270,l),
(502,34,ls)
);
}
);
width = 652;
}
);
tags = (
"to-flat"
);
unicode = 1182;
},
{
glyphname = "Kabashkir-cy";
kernRight = X;
lastChange = "2026-06-17 19:31:43 +0000";
layers = (
{
anchors = (
{
name = bottom;
pos = (616,0);
},
{
name = bottomleft;
pos = (354,0);
},
{
name = bottomright;
pos = (772,0);
},
{
name = center;
pos = (180,340);
},
{
name = top;
pos = (616,680);
}
);
layerId = "FDF8D1BA-B4CE-4A91-B9C2-23316F7DE4E8";
shapes = (
{
closed = 1;
nodes = (
(461,1,o),
(496,26,o),
(496,76,cs),
(496,270,l),
(550,270,l),
(754,34,ls),
(826,-50,o),
(932,40,o),
(864,118,cs),
(674,338,l),
(854,554,ls),
(930,646,o),
(816,726,o),
(750,646,cs),
(550,406,l),
(496,406,l),
(496,604,ls),
(496,654,o),
(460,679,o),
(425,679,c),
(419,680,o),
(414,680,o),
(408,680,cs),
(92,680,ls),
(-10,680,o),
(-10,544,o),
(92,544,cs),
(356,544,l),
(356,76,ls),
(356,26,o),
(391,1,o),
(426,1,cs)
);
}
);
width = 904;
}
);
tags = (
"to-flat"
);
unicode = 1184;
},
{
glyphname = "Endescender-cy";
kernRight = "De-cy";
lastChange = "2026-06-17 19:31:43 +0000";
layers = (
{
anchors = (
{
name = bottom;
pos = (110,0);
},
{
name = bottomright;
pos = (604,0);
},
{
name = center;
pos = (330,526);
},
{
name = top;
pos = (330,680);
},
{
name = topleft;
pos = (4,680);
}
);
layerId = "FDF8D1BA-B4CE-4A91-B9C2-23316F7DE4E8";
shapes = (
{
closed = 1;
nodes = (
(584,-166,o),
(724,-166,o),
(724,-64,cs),
(724,64,ls),
(724,110,o),
(696,136,o),
(652,136,cs),
(602,136,l),
(602,604,ls),
(602,704,o),
(462,704,o),
(462,604,cs),
(462,406,l),
(182,406,l),
(182,604,ls),
(182,704,o),
(42,704,o),
(42,604,cs),
(42,76,ls),
(42,-24,o),
(182,-24,o),
(182,76,cs),
(182,270,l),
(462,270,l),
(462,76,ls),
(462,33,o),
(487,8,o),
(518,2,cs),
(524,1,o),
(532,0,o),
(540,0,cs),
(584,0,l),
(584,-64,ls)
);
}
);
width = 740;
}
);
tags = (
"to-flat"
);
unicode = 1186;
},
{
glyphname = "EnGe-cy";
kernRight = T;
lastChange = "2026-06-17 19:31:43 +0000";
layers = (
{
anchors = (
{
name = bottom;
pos = (112,0);
},
{
name = bottomright;
pos = (604,0);
},
{
name = center;
pos = (324,340);
},
{
name = top;
pos = (324,680);
},
{
name = topleft;
pos = (-14,680);
}
);
layerId = "FDF8D1BA-B4CE-4A91-B9C2-23316F7DE4E8";
shapes = (
{
closed = 1;
nodes = (
(42,-24,o),
(182,-24,o),
(182,76,cs),
(182,270,l),
(462,270,l),
(462,76,ls),
(462,-24,o),
(602,-24,o),
(602,76,cs),
(602,544,l),
(866,544,ls),
(968,544,o),
(968,680,o),
(866,680,cs),
(550,680,ls),
(494,680,o),
(462,650,o),
(462,592,cs),
(462,406,l),
(182,406,l),
(182,604,ls),
(182,704,o),
(42,704,o),
(42,604,cs),
(42,76,ls)
);
}
);
width = 958;
}
);
tags = (
"to-flat"
);
unicode = 1188;
},
{
glyphname = "Pemiddlehook-cy";
kernRight = Softsign;
lastChange = "2026-06-17 19:31:43 +0000";
layers = (
{
anchors = (
{
name = bottom;
pos = (318,0);
},
{
name = bottomright;
pos = (834,0);
},
{
name = top;
pos = (318,680);
}
);
layerId = "FDF8D1BA-B4CE-4A91-B9C2-23316F7DE4E8";
shapes = (
{
closed = 1;
nodes = (
(902,66,o),
(932,146,o),
(936,216,cs),
(942,326,o),
(874,432,o),
(758,456,cs),
(706,468,o),
(646,464,o),
(594,436,c),
(594,590,ls),
(594,640,o),
(566,680,o),
(506,680,cs),
(130,680,ls),
(70,680,o),
(42,640,o),
(42,590,cs),
(42,76,ls),
(42,-24,o),
(182,-24,o),
(182,76,cs),
(182,544,l),
(454,544,l),
(454,76,ls),
(454,-24,o),
(594,-24,o),
(594,76,cs),
(594,196,ls),
(594,292,o),
(644,328,o),
(704,326,cs),
(736,324,o),
(766,308,o),
(784,280,cs),
(808,242,o),
(800,178,o),
(754,130,cs),
(680,54,o),
(766,-32,o),
(838,20,cs)
);
}
);
width = 956;
}
);
tags = (
"to-flat"
);
unicode = 1190;
},
{
glyphname = "Pedescender-cy";
kernRight = "De-cy";
lastChange = "2026-06-17 19:31:43 +0000";
layers = (
{
anchors = (
{
name = bottom;
pos = (320,0);
},
{
name = bottomright;
pos = (594,0);
},
{
name = top;
pos = (320,690);
}
);
layerId = "FDF8D1BA-B4CE-4A91-B9C2-23316F7DE4E8";
shapes = (
{
closed = 1;
nodes = (
(574,-166,o),
(714,-166,o),
(714,-64,cs),
(714,64,ls),
(714,110,o),
(686,136,o),
(642,136,cs),
(594,136,l),
(594,590,ls),
(594,640,o),
(566,680,o),
(506,680,cs),
(130,680,ls),
(70,680,o),
(42,640,o),
(42,590,cs),
(42,76,ls),
(42,-24,o),
(182,-24,o),
(182,76,cs),
(182,544,l),
(454,544,l),
(454,76,l),
(450,41,o),
(475,0,o),
(530,0,cs),
(574,0,l),
(574,-64,ls)
);
}
);
width = 636;
}
);
tags = (
"to-flat"
);
unicode = 1316;
},
{
glyphname = "Haabkhasian-cy";
kernLeft = O;
lastChange = "2026-06-08 20:19:08 +0000";
layers = (
{
layerId = "FDF8D1BA-B4CE-4A91-B9C2-23316F7DE4E8";
shapes = (
{
closed = 1;
nodes = (
(810,-10,o),
(810,126,o),
(704,126,cs),
(684,126,o),
(666,128,o),
(654,134,c),
(690,172,o),
(724,220,o),
(738,276,cs),
(772,420,o),
(672,548,o),
(528,548,cs),
(390,548,o),
(286,430,o),
(322,278,cs),
(334,220,o),
(370,170,o),
(406,132,c),
(396,126,o),
(378,124,o),
(354,124,cs),
(248,124,o),
(162,224,o),
(162,342,cs),
(162,460,o),
(248,554,o),
(354,554,cs),
(462,554,o),
(462,690,o),
(354,690,cs),
(170,690,o),
(22,538,o),
(22,342,cs),
(22,52,o),
(316,-90,o),
(530,34,c),
(584,6,o),
(646,-10,o),
(704,-10,cs)
);
},
{
closed = 1;
nodes = (
(496,226,o),
(462,276,o),
(456,314,cs),
(444,378,o),
(490,414,o),
(530,414,cs),
(568,414,o),
(616,380,o),
(602,314,cs),
(596,276,o),
(560,226,o),
(530,200,c)
);
}
);
width = 798;
}
);
unicode = 1192;
},
{
glyphname = "Esdescender-cy";
kernLeft = O;
lastChange = "2026-06-17 19:31:43 +0000";
layers = (
{
anchors = (
{
name = bottom;
pos = (326,-10);
},
{
name = top;
pos = (336,690);
}
);
layerId = "FDF8D1BA-B4CE-4A91-B9C2-23316F7DE4E8";
shapes = (
{
closed = 1;
nodes = (
(276,-176,o),
(416,-176,o),
(416,-74,cs),
(416,-4,l),
(474,7,o),
(530,34,o),
(574,78,c),
(640,152,o),
(554,246,o),
(480,176,cs),
(446,146,o),
(398,126,o),
(352,126,cs),
(244,126,o),
(162,228,o),
(162,348,cs),
(162,534,o),
(354,614,o),
(478,502,cs),
(552,434,o),
(636,528,o),
(574,598,cs),
(520,660,o),
(434,690,o),
(352,690,cs),
(162,690,o),
(22,534,o),
(22,348,cs),
(22,179,o),
(126,36,o),
(276,-1,c),
(276,-74,ls)
);
}
);
width = 618;
}
);
tags = (
"to-flat"
);
unicode = 1194;
},
{
glyphname = "Tedescender-cy";
kernLeft = T;
lastChange = "2026-06-17 19:31:43 +0000";
layers = (
{
anchors = (
{
name = bottom;
pos = (300,0);
},
{
name = bottomright;
pos = (370,0);
},
{
name = center;
pos = (308,350);
},
{
name = top;
pos = (308,680);
}
);
layerId = "FDF8D1BA-B4CE-4A91-B9C2-23316F7DE4E8";
shapes = (
{
closed = 1;
nodes = (
(350,-166,o),
(490,-166,o),
(490,-64,cs),
(490,64,ls),
(490,110,o),
(462,136,o),
(418,136,cs),
(370,136,l),
(370,544,l),
(506,544,ls),
(608,544,o),
(608,680,o),
(506,680,cs),
(94,680,ls),
(-10,680,o),
(-10,544,o),
(94,544,cs),
(230,544,l),
(230,76,l),
(226,41,o),
(251,0,o),
(306,0,cs),
(350,0,l),
(350,-64,ls)
);
}
);
width = 598;
}
);
tags = (
"to-flat"
);
unicode = 1196;
},
{
glyphname = "Ustraightstroke-cy";
kernRight = F;
lastChange = "2026-06-17 19:31:43 +0000";
layers = (
{
anchors = (
{
name = bottom;
pos = (298,0);
},
{
name = top;
pos = (298,680);
},
{
name = topleft;
pos = (-42,680);
}
);
layerId = "FDF8D1BA-B4CE-4A91-B9C2-23316F7DE4E8";
shapes = (
{
closed = 1;
nodes = (
(230,-24,o),
(366,-24,o),
(366,76,cs),
(366,171,l),
(469,171,ls),
(577,171,o),
(577,307,o),
(469,307,cs),
(366,307,l),
(366,310,l),
(562,560,ls),
(630,646,o),
(518,730,o),
(450,644,cs),
(298,452,l),
(146,644,ls),
(78,728,o),
(-30,646,o),
(36,560,cs),
(230,310,l),
(230,307,l),
(141,307,ls),
(33,307,o),
(33,171,o),
(141,171,cs),
(230,171,l),
(230,76,ls)
);
}
);
width = 598;
}
);
tags = (
"to-flat"
);
unicode = 1200;
},
{
glyphname = "Hadescender-cy";
kernLeft = X;
kernRight = X;
lastChange = "2026-06-17 19:31:43 +0000";
layers = (
{
anchors = (
{
name = bottom;
pos = (300,0);
},
{
name = bottomright;
pos = (580,0);
},
{
name = top;
pos = (300,680);
}
);
layerId = "FDF8D1BA-B4CE-4A91-B9C2-23316F7DE4E8";
shapes = (
{
closed = 1;
nodes = (
(560,-166,o),
(700,-166,o),
(700,-64,cs),
(700,64,ls),
(700,110,o),
(672,136,o),
(628,136,cs),
(540,136,l),
(390,340,l),
(560,558,ls),
(630,648,o),
(514,728,o),
(452,646,cs),
(300,448,l),
(150,646,ls),
(88,728,o),
(-30,648,o),
(40,558,cs),
(210,340,l),
(38,106,ls),
(6,62,o),
(34,0,o),
(88,0,cs),
(112,0,o),
(132,6,o),
(154,34,cs),
(300,226,l),
(446,34,ls),
(468,6,o),
(490,0,o),
(514,0,cs),
(560,0,l),
(560,-64,ls)
);
}
);
width = 716;
}
);
tags = (
"to-flat"
);
unicode = 1202;
},
{
glyphname = "Tetse-cy";
kernLeft = T;
kernRight = "De-cy";
lastChange = "2026-06-17 19:31:43 +0000";
layers = (
{
anchors = (
{
name = bottom;
pos = (876,0);
},
{
name = bottomright;
pos = (1162,0);
},
{
name = center;
pos = (670,350);
},
{
name = top;
pos = (876,680);
},
{
name = topleft;
pos = (654,680);
},
{
name = topright;
pos = (782,680);
}
);
layerId = "FDF8D1BA-B4CE-4A91-B9C2-23316F7DE4E8";
shapes = (
{
closed = 1;
nodes = (
(762,-166,o),
(902,-166,o),
(902,-64,cs),
(902,64,ls),
(902,110,o),
(874,136,o),
(830,136,cs),
(782,136,l),
(782,604,ls),
(782,704,o),
(642,704,o),
(642,604,cs),
(642,136,l),
(370,136,l),
(370,544,l),
(506,544,ls),
(608,544,o),
(608,680,o),
(506,680,cs),
(94,680,ls),
(-10,680,o),
(-10,544,o),
(94,544,cs),
(230,544,l),
(230,90,ls),
(230,40,o),
(258,0,o),
(318,0,cs),
(762,0,l),
(762,-64,ls)
);
}
);
width = 918;
}
);
tags = (
"to-flat"
);
unicode = 1204;
},
{
glyphname = "Chedescender-cy";
kernLeft = "Che-cy";
kernRight = "De-cy";
lastChange = "2026-06-17 19:31:43 +0000";
layers = (
{
anchors = (
{
name = bottom;
pos = (306,0);
},
{
name = bottomright;
pos = (562,0);
},
{
name = "bottomright-alt";
pos = (420,0);
},
{
name = top;
pos = (306,680);
},
{
name = topleft;
pos = (676,680);
}
);
layerId = "FDF8D1BA-B4CE-4A91-B9C2-23316F7DE4E8";
shapes = (
{
closed = 1;
nodes = (
(542,-166,o),
(682,-166,o),
(682,-64,cs),
(682,64,ls),
(682,110,o),
(654,136,o),
(610,136,cs),
(562,136,l),
(562,604,ls),
(562,704,o),
(422,704,o),
(422,604,cs),
(422,506,ls),
(422,410,o),
(366,376,o),
(294,376,cs),
(210,376,o),
(162,428,o),
(162,516,cs),
(162,604,ls),
(162,704,o),
(22,704,o),
(22,604,cs),
(22,454,o),
(24,396,o),
(92,316,cs),
(156,242,o),
(298,212,o),
(422,260,c),
(422,76,l),
(418,41,o),
(443,0,o),
(498,0,cs),
(542,0,l),
(542,-64,ls)
);
}
);
width = 604;
}
);
tags = (
"to-flat"
);
unicode = 1206;
},
{
glyphname = "Cheverticalstroke-cy";
kernLeft = "Che-cy";
lastChange = "2026-06-17 19:31:43 +0000";
layers = (
{
anchors = (
{
name = bottom;
pos = (294,0);
},
{
name = bottomright;
pos = (562,0);
},
{
name = "bottomright-alt";
pos = (420,0);
},
{
name = ogonek;
pos = (490,66);
},
{
name = top;
pos = (294,680);
},
{
name = topleft;
pos = (648,680);
}
);
layerId = "FDF8D1BA-B4CE-4A91-B9C2-23316F7DE4E8";
shapes = (
{
closed = 1;
nodes = (
(422,-24,o),
(562,-24,o),
(562,76,cs),
(562,604,ls),
(562,704,o),
(422,704,o),
(422,604,cs),
(422,506,ls),
(422,444,o),
(399,408,o),
(362,390,c),
(362,432,ls),
(362,538,o),
(226,538,o),
(226,432,cs),
(226,391,l),
(185,412,o),
(162,456,o),
(162,516,cs),
(162,604,ls),
(162,704,o),
(22,704,o),
(22,604,cs),
(22,454,o),
(24,396,o),
(92,316,cs),
(123,280,o),
(170,256,o),
(226,244,c),
(226,196,ls),
(226,86,o),
(362,86,o),
(362,196,cs),
(362,243,l),
(383,247,o),
(402,252,o),
(422,260,c),
(422,76,ls)
);
}
);
width = 604;
}
);
tags = (
"to-flat"
);
unicode = 1208;
},
{
glyphname = "Shhadescender-cy";
kernRight = "De-cy";
lastChange = "2026-06-17 19:31:43 +0000";
layers = (
{
anchors = (
{
name = bottom;
pos = (298,0);
},
{
name = bottomright;
pos = (584,0);
},
{
name = top;
pos = (298,680);
},
{
name = topleft;
pos = (42,680);
},
{
name = "topleft-alt";
pos = (184,680);
}
);
layerId = "FDF8D1BA-B4CE-4A91-B9C2-23316F7DE4E8";
shapes = (
{
closed = 1;
nodes = (
(564,-166,o),
(704,-166,o),
(704,-64,cs),
(704,64,ls),
(704,110,o),
(676,136,o),
(632,136,cs),
(582,136,l),
(580,244,o),
(570,296,o),
(512,364,cs),
(448,438,o),
(306,468,o),
(182,420,c),
(182,604,ls),
(182,704,o),
(42,704,o),
(42,604,cs),
(42,76,ls),
(42,-24,o),
(182,-24,o),
(182,76,cs),
(182,174,ls),
(182,270,o),
(238,304,o),
(310,304,cs),
(394,304,o),
(442,252,o),
(442,164,cs),
(442,76,ls),
(442,33,o),
(467,8,o),
(498,2,cs),
(504,1,o),
(512,0,o),
(520,0,cs),
(564,0,l),
(564,-64,ls)
);
}
);
width = 604;
}
);
tags = (
"to-flat"
);
unicode = 1318;
},
{
glyphname = "Cheabkhasian-cy";
kernLeft = Lslash;
kernRight = O;
lastChange = "2026-06-08 20:19:08 +0000";
layers = (
{
anchors = (
{
name = bottom;
pos = (586,0);
},
{
name = top;
pos = (586,680);
}
);
layerId = "FDF8D1BA-B4CE-4A91-B9C2-23316F7DE4E8";
shapes = (
{
closed = 1;
nodes = (
(678,-10,o),
(770,26,o),
(816,82,cs),
(882,160,o),
(788,250,o),
(714,176,cs),
(690,152,o),
(642,126,o),
(586,126,cs),
(500,126,o),
(424,176,o),
(400,270,c),
(816,270,ls),
(886,270,o),
(920,318,o),
(914,378,cs),
(898,574,o),
(756,690,o),
(586,690,cs),
(426,690,o),
(294,588,o),
(260,406,c),
(196,406,o),
(158,448,o),
(158,530,cs),
(158,636,o),
(18,636,o),
(18,530,cs),
(18,376,o),
(104,278,o),
(258,266,c),
(294,100,o),
(422,-10,o),
(586,-10,cs)
);
},
{
closed = 1;
nodes = (
(430,508,o),
(508,554,o),
(590,554,cs),
(662,554,o),
(742,518,o),
(770,406,c),
(404,406,l)
);
}
);
width = 934;
}
);
unicode = 1212;
},
{
glyphname = "Chedescenderabkhasian-cy";
kernLeft = Lslash;
kernRight = O;
lastChange = "2026-06-17 19:31:43 +0000";
layers = (
{
anchors = (
{
name = bottom;
pos = (586,0);
},
{
name = top;
pos = (586,680);
}
);
layerId = "FDF8D1BA-B4CE-4A91-B9C2-23316F7DE4E8";
shapes = (
{
closed = 1;
nodes = (
(516,-166,o),
(656,-166,o),
(656,-64,cs),
(656,-3,l),
(722,10,o),
(782,41,o),
(816,82,cs),
(882,160,o),
(788,250,o),
(714,176,cs),
(690,152,o),
(642,126,o),
(586,126,cs),
(500,126,o),
(424,176,o),
(400,270,c),
(816,270,ls),
(886,270,o),
(920,318,o),
(914,378,cs),
(898,574,o),
(756,690,o),
(586,690,cs),
(426,690,o),
(294,588,o),
(260,406,c),
(196,406,o),
(158,448,o),
(158,530,cs),
(158,636,o),
(18,636,o),
(18,530,cs),
(18,376,o),
(104,278,o),
(258,266,c),
(289,124,o),
(385,24,o),
(516,-3,c),
(516,-64,ls)
);
},
{
closed = 1;
nodes = (
(430,508,o),
(508,554,o),
(590,554,cs),
(662,554,o),
(742,518,o),
(770,406,c),
(404,406,l)
);
}
);
width = 934;
}
);
tags = (
"to-flat"
);
unicode = 1214;
},
{
glyphname = "Kahook-cy";
lastChange = "2026-06-08 20:19:08 +0000";
layers = (
{
anchors = (
{
name = bottom;
pos = (298,0);
},
{
name = bottomright;
pos = (574,0);
},
{
name = top;
pos = (298,680);
}
);
layerId = "FDF8D1BA-B4CE-4A91-B9C2-23316F7DE4E8";
shapes = (
{
closed = 1;
nodes = (
(452,-240,o),
(562,-72,o),
(562,78,cs),
(562,206,o),
(502,318,o),
(390,374,c),
(540,554,ls),
(618,646,o),
(502,726,o),
(436,646,cs),
(236,406,l),
(182,406,l),
(182,604,ls),
(182,704,o),
(42,704,o),
(42,604,c),
(42,76,l),
(42,-24,o),
(182,-24,o),
(182,76,cs),
(182,270,l),
(240,270,ls),
(366,270,o),
(422,182,o),
(422,78,cs),
(422,-4,o),
(366,-104,o),
(238,-104,cs),
(132,-104,o),
(132,-240,o),
(238,-240,cs)
);
}
);
width = 590;
}
);
unicode = 1219;
},
{
glyphname = "Eltail-cy";
kernRight = "De-cy";
lastChange = "2026-06-17 19:31:43 +0000";
layers = (
{
anchors = (
{
name = bottom;
pos = (376,0);
},
{
name = bottomright;
pos = (728,0);
},
{
name = hook;
pos = (716,76);
}
);
layerId = "FDF8D1BA-B4CE-4A91-B9C2-23316F7DE4E8";
shapes = (
{
closed = 1;
nodes = (
(846,34,ls),
(860,94,o),
(828,136,o),
(756,136,cs),
(716,136,l),
(716,588,ls),
(716,646,o),
(684,680,o),
(620,680,cs),
(346,680,ls),
(284,680,o),
(256,648,o),
(250,588,cs),
(216,284,ls),
(204,180,o),
(178,136,o),
(96,136,cs),
(-14,136,o),
(-6,0,o),
(96,0,cs),
(254,0,o),
(334,104,o),
(350,242,cs),
(384,544,l),
(576,544,l),
(576,76,ls),
(576,69,o),
(577,62,o),
(578,56,cs),
(583,27,o),
(608,0,o),
(652,0,cs),
(696,0,l),
(684,-56,ls),
(662,-152,o),
(798,-178,o),
(820,-82,cs)
);
}
);
width = 866;
}
);
tags = (
"to-flat"
);
unicode = 1221;
},
{
glyphname = "Enhook-cy";
lastChange = "2026-06-17 19:31:43 +0000";
layers = (
{
anchors = (
{
name = bottom;
pos = (110,0);
},
{
name = bottomright;
pos = (604,0);
},
{
name = center;
pos = (330,526);
},
{
name = hook;
pos = (602,76);
},
{
name = top;
pos = (330,680);
},
{
name = topleft;
pos = (4,680);
}
);
layerId = "FDF8D1BA-B4CE-4A91-B9C2-23316F7DE4E8";
shapes = (
{
closed = 1;
nodes = (
(484,-228,o),
(602,-136,o),
(602,12,cs),
(602,604,ls),
(602,704,o),
(462,704,o),
(462,604,cs),
(462,406,l),
(182,406,l),
(182,604,ls),
(182,704,o),
(42,704,o),
(42,604,cs),
(42,76,ls),
(42,-24,o),
(182,-24,o),
(182,76,cs),
(182,270,l),
(462,270,l),
(462,12,ls),
(462,-38,o),
(426,-92,o),
(358,-92,cs),
(254,-92,o),
(254,-228,o),
(358,-228,cs)
);
}
);
width = 646;
}
);
tags = (
"to-flat"
);
unicode = 1223;
},
{
glyphname = "Entail-cy";
kernRight = "De-cy";
lastChange = "2026-06-17 19:31:43 +0000";
layers = (
{
anchors = (
{
name = bottom;
pos = (110,0);
},
{
name = bottomright;
pos = (604,0);
},
{
name = center;
pos = (330,526);
},
{
name = top;
pos = (330,680);
},
{
name = topleft;
pos = (4,680);
}
);
layerId = "FDF8D1BA-B4CE-4A91-B9C2-23316F7DE4E8";
shapes = (
{
closed = 1;
nodes = (
(584,-166,o),
(724,-166,o),
(724,-64,cs),
(724,64,ls),
(724,110,o),
(696,136,o),
(652,136,cs),
(602,136,l),
(602,604,ls),
(602,704,o),
(462,704,o),
(462,604,cs),
(462,406,l),
(182,406,l),
(182,604,ls),
(182,704,o),
(42,704,o),
(42,604,cs),
(42,76,ls),
(42,-24,o),
(182,-24,o),
(182,76,cs),
(182,270,l),
(462,270,l),
(462,76,ls),
(462,33,o),
(487,8,o),
(518,2,cs),
(524,1,o),
(532,0,o),
(540,0,cs),
(584,0,l),
(584,-64,ls)
);
}
);
width = 740;
}
);
tags = (
"to-flat"
);
unicode = 1225;
},
{
glyphname = "Chekhakassian-cy";
lastChange = "2026-06-17 19:31:43 +0000";
layers = (
{
anchors = (
{
name = bottom;
pos = (306,0);
},
{
name = bottomright;
pos = (562,0);
},
{
name = "bottomright-alt";
pos = (420,0);
},
{
name = ogonek;
pos = (486,76);
},
{
name = top;
pos = (302,680);
},
{
name = topleft;
pos = (672,680);
}
);
layerId = "FDF8D1BA-B4CE-4A91-B9C2-23316F7DE4E8";
shapes = (
{
closed = 1;
nodes = (
(300,-166,o),
(440,-166,o),
(440,-64,cs),
(440,0,l),
(484,0,ls),
(492,0,o),
(500,1,o),
(506,2,cs),
(537,8,o),
(562,33,o),
(562,76,cs),
(562,604,ls),
(562,704,o),
(422,704,o),
(422,604,cs),
(422,506,ls),
(422,410,o),
(366,376,o),
(294,376,cs),
(210,376,o),
(162,428,o),
(162,516,cs),
(162,604,ls),
(162,704,o),
(22,704,o),
(22,604,cs),
(22,454,o),
(24,396,o),
(92,316,cs),
(156,242,o),
(298,212,o),
(422,260,c),
(422,136,l),
(372,136,ls),
(328,136,o),
(300,110,o),
(300,64,cs),
(300,-64,ls)
);
}
);
width = 604;
}
);
tags = (
"to-flat"
);
unicode = 1227;
},
{
glyphname = "Emtail-cy";
kernLeft = M;
kernRight = "De-cy";
lastChange = "2026-06-17 19:31:43 +0000";
layers = (
{
anchors = (
{
name = bottom;
pos = (432,0);
},
{
name = bottomright;
pos = (838,0);
},
{
name = top;
pos = (432,680);
}
);
layerId = "FDF8D1BA-B4CE-4A91-B9C2-23316F7DE4E8";
shapes = (
{
closed = 1;
nodes = (
(820,-164,o),
(960,-164,o),
(960,-62,cs),
(960,66,ls),
(960,112,o),
(932,138,o),
(888,138,cs),
(816,138,l),
(696,590,ls),
(664,708,o),
(528,708,o),
(502,590,cs),
(424,242,l),
(344,590,ls),
(316,708,o),
(184,708,o),
(152,590,cs),
(22,102,ls),
(-8,-10,o),
(128,-34,o),
(152,60,cs),
(246,444,l),
(330,86,ls),
(356,-26,o),
(492,-26,o),
(518,86,cs),
(602,444,l),
(696,60,ls),
(706,21,o),
(738,2,o),
(766,2,cs),
(820,2,l),
(820,-62,ls)
);
}
);
width = 976;
}
);
tags = (
"to-flat"
);
unicode = 1229;
},
{
glyphname = "Dzeabkhasian-cy";
lastChange = "2026-06-08 20:19:09 +0000";
layers = (
{
anchors = (
{
name = top;
pos = (234,680);
}
);
layerId = "FDF8D1BA-B4CE-4A91-B9C2-23316F7DE4E8";
shapes = (
{
closed = 1;
nodes = (
(282,-10,o),
(328,0,o),
(366,24,cs),
(426,58,o),
(464,118,o),
(470,188,cs),
(482,308,o),
(398,392,o),
(330,414,c),
(422,536,o),
(422,536,o),
(422,536,cs),
(464,602,o),
(440,680,o),
(342,680,cs),
(102,680,ls),
(-4,680,o),
(-4,544,o),
(102,544,cs),
(258,544,l),
(154,406,ls),
(120,362,o),
(152,298,o),
(218,298,cs),
(298,298,o),
(340,256,o),
(332,198,cs),
(324,132,o),
(220,90,o),
(148,172,cs),
(78,254,o),
(-26,164,o),
(42,84,cs),
(96,24,o),
(166,-10,o),
(240,-10,cs)
);
}
);
width = 490;
}
);
unicode = 1248;
},
{
glyphname = "Obarred-cy";
kernLeft = O;
kernRight = O;
lastChange = "2026-06-17 19:31:43 +0000";
layers = (
{
anchors = (
{
name = bottom;
pos = (356,0);
},
{
name = center;
pos = (358,340);
},
{
name = ogonek;
pos = (356,58);
},
{
name = top;
pos = (354,690);
},
{
name = topleft;
pos = (34,680);
},
{
name = topright;
pos = (682,680);
}
);
layerId = "FDF8D1BA-B4CE-4A91-B9C2-23316F7DE4E8";
shapes = (
{
closed = 1;
nodes = (
(538,-10,o),
(690,148,o),
(690,340,cs),
(690,532,o),
(542,690,o),
(354,690,cs),
(170,690,o),
(22,534,o),
(22,342,cs),
(22,150,o),
(172,-10,o),
(354,-10,cs)
);
},
{
closed = 1;
nodes = (
(269,126,o),
(199,188,o),
(173,270,c),
(539,270,l),
(512,187,o),
(440,126,o),
(354,126,cs)
);
},
{
closed = 1;
nodes = (
(195,491,o),
(267,554,o),
(354,554,cs),
(443,554,o),
(516,492,o),
(541,406,c),
(171,406,l)
);
}
);
width = 712;
}
);
tags = (
"to-flat"
);
unicode = 1256;
},
{
glyphname = "Hahook-cy";
lastChange = "2026-06-17 19:31:43 +0000";
layers = (
{
anchors = (
{
name = bottom;
pos = (300,0);
},
{
name = top;
pos = (300,680);
}
);
layerId = "FDF8D1BA-B4CE-4A91-B9C2-23316F7DE4E8";
shapes = (
{
closed = 1;
nodes = (
(476,-244,o),
(580,-138,o),
(580,4,cs),
(580,92,o),
(522,158,o),
(508,178,cs),
(390,340,l),
(560,558,ls),
(630,648,o),
(514,728,o),
(452,646,cs),
(300,448,l),
(150,646,ls),
(88,728,o),
(-30,648,o),
(40,558,cs),
(210,340,l),
(38,106,ls),
(6,62,o),
(34,0,o),
(88,0,cs),
(112,0,o),
(132,6,o),
(154,34,cs),
(300,226,l),
(402,90,o),
(408,84,o),
(428,50,cs),
(464,-12,o),
(434,-112,o),
(330,-112,cs),
(236,-112,o),
(236,-244,o),
(330,-244,cs)
);
}
);
width = 602;
}
);
tags = (
"to-flat"
);
unicode = 1276;
},
{
glyphname = "Elhook-cy";
kernLeft = "El-cy";
lastChange = "2026-06-17 19:31:43 +0000";
layers = (
{
anchors = (
{
name = bottom;
pos = (376,0);
},
{
name = bottomright;
pos = (716,0);
},
{
name = hook;
pos = (716,76);
}
);
layerId = "FDF8D1BA-B4CE-4A91-B9C2-23316F7DE4E8";
shapes = (
{
closed = 1;
nodes = (
(598,-228,o),
(716,-136,o),
(716,12,cs),
(716,588,ls),
(716,646,o),
(684,680,o),
(620,680,cs),
(346,680,ls),
(284,680,o),
(256,648,o),
(250,588,cs),
(216,284,ls),
(204,180,o),
(178,136,o),
(96,136,cs),
(-14,136,o),
(-6,0,o),
(96,0,cs),
(254,0,o),
(334,104,o),
(350,242,cs),
(384,544,l),
(576,544,l),
(576,12,ls),
(576,-38,o),
(540,-92,o),
(472,-92,cs),
(368,-92,o),
(368,-228,o),
(472,-228,cs)
);
}
);
width = 760;
}
);
tags = (
"to-flat"
);
unicode = 1298;
},
{
glyphname = Delta;
kernLeft = A;
kernRight = A;
lastChange = "2026-06-08 20:19:08 +0000";
layers = (
{
anchors = (
{
name = bottom;
pos = (314,0);
},
{
name = center;
pos = (958,350);
},
{
name = ogonek;
pos = (580,10);
},
{
name = top;
pos = (314,680);
},
{
name = topleft;
pos = (148,680);
}
);
layerId = "FDF8D1BA-B4CE-4A91-B9C2-23316F7DE4E8";
shapes = (
{
closed = 1;
nodes = (
(508,0,ls),
(600,0,o),
(622,72,o),
(600,130,cs),
(414,602,ls),
(390,664,o),
(350,680,o),
(314,680,cs),
(278,680,o),
(238,664,o),
(214,602,cs),
(26,130,ls),
(4,72,o),
(28,0,o),
(120,0,cs)
);
},
{
closed = 1;
nodes = (
(314,498,l),
(452,136,l),
(176,136,l)
);
}
);
width = 626;
}
);
unicode = 916;
},
{
glyphname = Theta;
kernLeft = O;
kernRight = O;
lastChange = "2026-06-08 20:19:08 +0000";
layers = (
{
anchors = (
{
name = top;
pos = (356,690);
}
);
layerId = "FDF8D1BA-B4CE-4A91-B9C2-23316F7DE4E8";
shapes = (
{
closed = 1;
nodes = (
(416,270,ls),
(524,270,o),
(524,406,o),
(416,406,cs),
(296,406,ls),
(188,406,o),
(188,270,o),
(296,270,cs)
);
},
{
ref = O;
}
);
width = 712;
}
);
unicode = 920;
},
{
glyphname = Sigma;
kernLeft = X;
kernRight = X;
lastChange = "2026-06-08 20:19:08 +0000";
layers = (
{
layerId = "FDF8D1BA-B4CE-4A91-B9C2-23316F7DE4E8";
shapes = (
{
closed = 1;
nodes = (
(484,0,ls),
(590,0,o),
(590,136,o),
(484,136,cs),
(210,136,l),
(332,280,ls),
(362,316,o),
(362,366,o),
(332,400,cs),
(210,544,l),
(484,544,ls),
(590,544,o),
(590,680,o),
(484,680,cs),
(120,680,ls),
(34,680,o),
(-8,594,o),
(46,528,cs),
(204,340,l),
(46,154,ls),
(-12,86,o),
(34,0,o),
(120,0,cs)
);
}
);
width = 582;
}
);
unicode = 931;
},
{
glyphname = Psi;
lastChange = "2026-06-08 20:19:09 +0000";
layers = (
{
anchors = (
{
name = top;
pos = (230,680);
},
{
name = topleft;
pos = (544,680);
},
{
name = topright;
pos = (564,700);
}
);
layerId = "FDF8D1BA-B4CE-4A91-B9C2-23316F7DE4E8";
shapes = (
{
closed = 1;
nodes = (
(270,-24,o),
(410,-24,o),
(410,76,c),
(410,180,l),
(476,190,o),
(538,216,o),
(580,264,cs),
(650,348,o),
(654,416,o),
(654,604,cs),
(654,706,o),
(516,706,o),
(516,604,cs),
(516,418,o),
(510,392,o),
(474,350,cs),
(460,334,o),
(436,324,o),
(410,318,c),
(410,604,ls),
(410,704,o),
(270,704,o),
(270,604,cs),
(270,318,l),
(242,324,o),
(218,334,o),
(204,350,cs),
(166,392,o),
(164,418,o),
(164,604,cs),
(164,704,o),
(24,704,o),
(24,604,cs),
(24,416,o),
(28,348,o),
(100,264,cs),
(140,216,o),
(202,190,o),
(270,180,c),
(270,76,ls)
);
}
);
width = 678;
}
);
unicode = 936;
},
{
glyphname = Omega;
lastChange = "2026-06-08 20:19:08 +0000";
layers = (
{
anchors = (
{
name = bottom;
pos = (370,0);
},
{
name = topleft;
pos = (44,680);
}
);
layerId = "FDF8D1BA-B4CE-4A91-B9C2-23316F7DE4E8";
shapes = (
{
closed = 1;
nodes = (
(254,0,ls),
(312,0,o),
(348,70,o),
(308,112,cs),
(182,244,o),
(172,320,o),
(178,390,cs),
(186,484,o),
(276,554,o),
(368,554,cs),
(460,554,o),
(550,484,o),
(558,390,cs),
(564,320,o),
(554,244,o),
(428,112,cs),
(388,70,o),
(424,0,o),
(482,0,cs),
(640,0,ls),
(742,0,o),
(742,136,o),
(640,136,cs),
(620,136,l),
(678,218,o),
(710,308,o),
(696,414,cs),
(678,556,o),
(542,690,o),
(368,690,cs),
(194,690,o),
(58,556,o),
(40,414,cs),
(26,308,o),
(58,218,o),
(116,136,c),
(96,136,ls),
(-6,136,o),
(-6,0,o),
(96,0,cs)
);
}
);
width = 736;
}
);
unicode = 937;
},
{
glyphname = KaiSymbol;
kernRight = X;
lastChange = "2026-06-17 19:31:43 +0000";
layers = (
{
anchors = (
{
name = bottom;
pos = (280,0);
},
{
name = top;
pos = (280,680);
}
);
layerId = "FDF8D1BA-B4CE-4A91-B9C2-23316F7DE4E8";
shapes = (
{
closed = 1;
nodes = (
(538,8,ls),
(549,19,o),
(557,32,o),
(561,45,cs),
(570,70,o),
(566,100,o),
(536,126,cs),
(282,346,l),
(496,556,ls),
(572,632,o),
(468,724,o),
(398,654,cs),
(182,440,l),
(182,604,ls),
(182,704,o),
(42,704,o),
(42,604,cs),
(42,76,ls),
(42,-24,o),
(182,-24,o),
(182,76,cs),
(182,250,l),
(394,65,l),
(322,-2,ls),
(239,-78,o),
(336,-187,o),
(422,-104,cs)
);
}
);
width = 580;
}
);
tags = (
"to-flat"
);
unicode = 975;
},
{
glyphname = zero;
kernLeft = O;
kernRight = O;
lastChange = "2026-06-17 19:27:20 +0000";
layers = (
{
layerId = "FDF8D1BA-B4CE-4A91-B9C2-23316F7DE4E8";
shapes = (
{
closed = 1;
nodes = (
(470,-10,o),
(564,158,o),
(564,344,cs),
(564,532,o),
(462,690,o),
(298,690,cs),
(134,690,o),
(32,532,o),
(32,344,cs),
(32,158,o),
(126,-10,o),
(298,-10,cs)
);
},
{
closed = 1;
nodes = (
(222,126,o),
(172,232,o),
(172,344,cs),
(172,448,o),
(212,554,o),
(298,554,cs),
(384,554,o),
(424,448,o),
(424,344,cs),
(424,232,o),
(374,126,o),
(298,126,cs)
);
}
);
width = 596;
}
);
unicode = 48;
},
{
glyphname = one;
lastChange = "2026-06-08 20:19:09 +0000";
layers = (
{
layerId = "FDF8D1BA-B4CE-4A91-B9C2-23316F7DE4E8";
shapes = (
{
closed = 1;
nodes = (
(224,-24,o),
(364,-24,o),
(364,76,cs),
(364,582,ls),
(364,626,o),
(350,660,o),
(314,674,cs),
(278,688,o),
(240,678,o),
(204,652,cs),
(54,538,ls),
(22,514,o),
(14,466,o),
(38,436,cs),
(62,406,o),
(106,404,o),
(138,428,cs),
(224,492,l),
(224,76,ls)
);
}
);
width = 414;
}
);
unicode = 49;
},
{
glyphname = two;
lastChange = "2026-06-08 20:19:08 +0000";
layers = (
{
layerId = "FDF8D1BA-B4CE-4A91-B9C2-23316F7DE4E8";
shapes = (
{
closed = 1;
nodes = (
(442,0,ls),
(544,0,o),
(550,138,o),
(442,136,cs),
(236,132,l),
(410,276,o),
(484,346,o),
(496,452,cs),
(510,596,o),
(384,690,o),
(276,690,cs),
(160,690,o),
(68,628,o),
(36,520,cs),
(8,424,o),
(128,388,o),
(166,476,cs),
(188,526,o),
(220,560,o),
(282,554,cs),
(344,546,o),
(372,490,o),
(348,430,cs),
(320,362,o),
(116,208,o),
(66,166,cs),
(-2,108,o),
(24,0,o),
(136,0,cs)
);
}
);
width = 546;
}
);
unicode = 50;
},
{
glyphname = three;
lastChange = "2026-06-08 20:19:08 +0000";
layers = (
{
layerId = "FDF8D1BA-B4CE-4A91-B9C2-23316F7DE4E8";
shapes = (
{
closed = 1;
nodes = (
(334,-10,o),
(458,56,o),
(462,192,cs),
(466,296,o),
(396,352,o),
(372,368,c),
(394,394,o),
(428,426,o),
(428,508,cs),
(428,616,o),
(332,690,o),
(228,690,cs),
(142,690,o),
(90,648,o),
(58,606,cs),
(-2,528,o),
(92,444,o),
(162,518,cs),
(190,548,o),
(210,554,o),
(228,554,cs),
(264,554,o),
(288,528,o),
(288,492,cs),
(288,456,o),
(260,430,o),
(208,416,cs),
(124,394,o),
(140,284,o),
(222,284,cs),
(254,284,o),
(276,276,o),
(294,262,cs),
(332,230,o),
(332,174,o),
(294,144,cs),
(254,114,o),
(196,120,o),
(148,170,cs),
(80,244,o),
(-16,156,o),
(48,78,cs),
(98,16,o),
(166,-10,o),
(238,-10,cs)
);
}
);
width = 490;
}
);
unicode = 51;
},
{
glyphname = four;
kernLeft = "4";
kernRight = "4";
lastChange = "2026-06-08 20:19:08 +0000";
layers = (
{
layerId = "FDF8D1BA-B4CE-4A91-B9C2-23316F7DE4E8";
shapes = (
{
closed = 1;
nodes = (
(316,-32,o),
(456,-32,o),
(456,68,cs),
(456,134,l),
(512,134,l),
(616,134,o),
(616,270,o),
(512,270,c),
(456,270,l),
(456,580,ls),
(456,690,o),
(332,718,o),
(272,624,cs),
(44,270,ls),
(6,210,o),
(30,134,o),
(112,134,cs),
(316,134,l),
(316,68,ls)
);
},
{
closed = 1;
nodes = (
(322,468,l),
(322,270,l),
(202,270,l)
);
}
);
width = 614;
}
);
unicode = 52;
},
{
glyphname = five;
kernLeft = "5";
lastChange = "2026-06-08 20:19:09 +0000";
layers = (
{
layerId = "FDF8D1BA-B4CE-4A91-B9C2-23316F7DE4E8";
shapes = (
{
closed = 1;
nodes = (
(354,-8,o),
(476,56,o),
(488,202,cs),
(496,296,o),
(464,350,o),
(410,398,cs),
(340,452,o),
(286,452,o),
(194,448,c),
(204,544,l),
(378,544,ls),
(480,544,o),
(480,680,o),
(378,680,cs),
(140,680,ls),
(102,680,o),
(78,656,o),
(74,620,cs),
(44,372,ls),
(38,330,o),
(76,290,o),
(130,298,cs),
(226,314,o),
(278,326,o),
(322,288,cs),
(366,250,o),
(358,170,o),
(304,144,cs),
(248,116,o),
(186,132,o),
(148,166,cs),
(68,234,o),
(-12,132,o),
(48,72,cs),
(100,20,o),
(170,-8,o),
(244,-8,cs)
);
}
);
width = 518;
}
);
unicode = 53;
},
{
glyphname = six;
kernLeft = "6";
kernRight = "6";
lastChange = "2026-06-08 20:19:08 +0000";
layers = (
{
layerId = "FDF8D1BA-B4CE-4A91-B9C2-23316F7DE4E8";
shapes = (
{
closed = 1;
nodes = (
(392,-10,o),
(490,84,o),
(490,214,cs),
(490,348,o),
(384,438,o),
(262,434,c),
(360,566,ls),
(422,650,o),
(308,726,o),
(252,646,cs),
(146,496,ls),
(82,406,o),
(28,318,o),
(28,220,cs),
(28,84,o),
(132,-10,o),
(266,-10,cs)
);
},
{
closed = 1;
nodes = (
(210,126,o),
(168,166,o),
(168,216,cs),
(168,264,o),
(210,304,o),
(260,304,cs),
(308,304,o),
(350,264,o),
(350,216,cs),
(350,166,o),
(308,126,o),
(260,126,cs)
);
}
);
width = 518;
}
);
unicode = 54;
},
{
glyphname = seven;
kernLeft = "7";
kernRight = "7";
lastChange = "2026-06-08 20:19:08 +0000";
layers = (
{
layerId = "FDF8D1BA-B4CE-4A91-B9C2-23316F7DE4E8";
shapes = (
{
closed = 1;
nodes = (
(478,524,ls),
(522,602,o),
(490,680,o),
(392,680,cs),
(102,680,ls),
(0,680,o),
(-4,544,o),
(102,544,cs),
(336,544,l),
(90,110,ls),
(36,16,o),
(158,-48,o),
(212,48,cs)
);
}
);
width = 522;
}
);
unicode = 55;
},
{
glyphname = eight;
lastChange = "2026-06-08 20:19:08 +0000";
layers = (
{
layerId = "FDF8D1BA-B4CE-4A91-B9C2-23316F7DE4E8";
shapes = (
{
closed = 1;
nodes = (
(384,-10,o),
(486,78,o),
(486,206,cs),
(486,270,o),
(456,328,o),
(406,368,c),
(438,400,o),
(460,448,o),
(460,502,cs),
(460,604,o),
(370,690,o),
(258,690,cs),
(144,690,o),
(54,604,o),
(54,502,cs),
(54,450,o),
(76,402,o),
(110,368,c),
(60,330,o),
(28,270,o),
(28,206,cs),
(28,86,o),
(130,-10,o),
(258,-10,cs)
);
},
{
closed = 1;
nodes = (
(208,126,o),
(168,162,o),
(168,210,cs),
(168,256,o),
(208,294,o),
(260,294,cs),
(306,294,o),
(346,256,o),
(346,210,cs),
(346,162,o),
(306,126,o),
(260,126,cs)
);
},
{
closed = 1;
nodes = (
(222,430,o),
(188,460,o),
(190,496,cs),
(190,532,o),
(222,562,o),
(258,562,cs),
(294,562,o),
(324,532,o),
(324,496,cs),
(326,460,o),
(294,430,o),
(258,430,cs)
);
}
);
width = 514;
}
);
unicode = 56;
},
{
glyphname = zerosuperior;
kernLeft = superior;
kernRight = superior;
lastChange = "2026-06-17 19:28:13 +0000";
layers = (
{
layerId = "FDF8D1BA-B4CE-4A91-B9C2-23316F7DE4E8";
shapes = (
{
closed = 1;
nodes = (
(310,220,o),
(392,324,o),
(392,456,cs),
(392,582,o),
(310,690,o),
(204,690,cs),
(94,690,o),
(16,582,o),
(16,456,cs),
(16,324,o),
(94,220,o),
(204,220,cs)
);
},
{
closed = 1;
nodes = (
(182,356,o),
(156,388,o),
(156,456,cs),
(156,518,o),
(182,554,o),
(204,554,cs),
(224,554,o),
(252,518,o),
(252,456,cs),
(252,388,o),
(226,356,o),
(204,356,cs)
);
}
);
width = 408;
}
);
unicode = 8304;
},
{
glyphname = onesuperior;
kernLeft = superior;
kernRight = superior;
lastChange = "2026-06-17 19:28:13 +0000";
layers = (
{
layerId = "FDF8D1BA-B4CE-4A91-B9C2-23316F7DE4E8";
shapes = (
{
closed = 1;
nodes = (
(138,206,o),
(278,206,o),
(278,306,cs),
(278,590,ls),
(278,680,o),
(184,702,o),
(130,658,cs),
(44,588,ls),
(-44,516,o),
(48,408,o),
(138,490,c),
(138,306,ls)
);
}
);
width = 310;
}
);
unicode = 185;
},
{
glyphname = twosuperior;
kernLeft = superior;
kernRight = superior;
lastChange = "2026-06-17 19:28:13 +0000";
layers = (
{
layerId = "FDF8D1BA-B4CE-4A91-B9C2-23316F7DE4E8";
shapes = (
{
closed = 1;
nodes = (
(280,230,ls),
(384,230,o),
(382,364,o),
(280,364,cs),
(228,364,l),
(276,410,o),
(340,462,o),
(340,540,cs),
(340,616,o),
(284,684,o),
(194,690,cs),
(120,698,o),
(50,654,o),
(22,574,cs),
(-14,470,o),
(124,432,o),
(148,526,cs),
(160,562,o),
(200,562,o),
(204,536,cs),
(208,504,o),
(160,464,o),
(42,356,cs),
(-14,306,o),
(24,230,o),
(86,230,cs)
);
}
);
width = 368;
}
);
unicode = 178;
},
{
glyphname = threesuperior;
kernLeft = superior;
kernRight = superior;
lastChange = "2026-06-17 19:28:13 +0000";
layers = (
{
layerId = "FDF8D1BA-B4CE-4A91-B9C2-23316F7DE4E8";
shapes = (
{
closed = 1;
nodes = (
(346,296,o),
(330,392,o),
(318,420,cs),
(306,448,o),
(298,458,o),
(282,472,c),
(294,488,o),
(300,502,o),
(306,520,cs),
(318,558,o),
(314,608,o),
(272,650,cs),
(212,710,o),
(96,698,o),
(40,636,cs),
(-16,574,o),
(50,498,o),
(118,538,cs),
(132,546,o),
(162,572,o),
(178,546,cs),
(188,530,o),
(172,514,o),
(156,508,cs),
(120,496,o),
(106,434,o),
(164,416,cs),
(188,408,o),
(202,390,o),
(192,368,cs),
(182,346,o),
(148,348,o),
(130,366,cs),
(66,430,o),
(-32,346,o),
(34,274,cs),
(82,222,o),
(186,200,o),
(256,242,cs)
);
}
);
width = 342;
}
);
unicode = 179;
},
{
glyphname = foursuperior;
kernLeft = superior;
kernRight = superior;
lastChange = "2026-06-17 19:28:13 +0000";
layers = (
{
layerId = "FDF8D1BA-B4CE-4A91-B9C2-23316F7DE4E8";
shapes = (
{
closed = 1;
nodes = (
(208,196,o),
(336,200,o),
(336,290,cs),
(336,310,l),
(356,310,ls),
(446,310,o),
(446,430,o),
(356,430,cs),
(334,430,l),
(334,586,ls),
(334,686,o),
(222,712,o),
(166,636,cs),
(30,450,ls),
(-8,398,o),
(2,310,o),
(108,310,cs),
(208,310,l),
(208,290,ls)
);
},
{
closed = 1;
nodes = (
(222,530,l),
(222,426,l),
(150,426,l)
);
}
);
width = 432;
}
);
unicode = 8308;
},
{
glyphname = fivesuperior;
kernLeft = superior;
kernRight = superior;
lastChange = "2026-06-17 19:28:13 +0000";
layers = (
{
layerId = "FDF8D1BA-B4CE-4A91-B9C2-23316F7DE4E8";
shapes = (
{
closed = 1;
nodes = (
(364,292,o),
(382,442,o),
(284,504,cs),
(234,534,o),
(164,526,o),
(164,534,cs),
(164,558,l),
(248,556,ls),
(350,554,o),
(350,680,o),
(248,680,cs),
(118,680,ls),
(76,680,o),
(46,656,o),
(42,620,cs),
(28,502,ls),
(24,462,o),
(34,446,o),
(48,432,cs),
(88,394,o),
(136,414,o),
(178,414,cs),
(226,414,o),
(226,364,o),
(194,352,cs),
(170,342,o),
(144,352,o),
(128,366,cs),
(54,430,o),
(-20,336,o),
(38,272,cs),
(96,214,o),
(198,206,o),
(266,242,cs)
);
}
);
width = 362;
}
);
unicode = 8309;
},
{
glyphname = sixsuperior;
kernLeft = superior;
kernRight = superior;
lastChange = "2026-06-17 19:28:13 +0000";
layers = (
{
layerId = "FDF8D1BA-B4CE-4A91-B9C2-23316F7DE4E8";
shapes = (
{
closed = 1;
nodes = (
(252,220,o),
(290,240,o),
(326,278,cs),
(372,326,o),
(374,400,o),
(360,440,cs),
(340,494,o),
(298,532,o),
(238,542,c),
(258,564,ls),
(282,590,o),
(298,638,o),
(266,666,cs),
(250,680,o),
(206,690,o),
(176,660,cs),
(122,606,o),
(62,540,o),
(34,476,cs),
(8,420,o),
(8,366,o),
(24,326,cs),
(48,268,o),
(102,220,o),
(190,220,cs)
);
},
{
closed = 1;
nodes = (
(122,340,o),
(122,440,o),
(190,440,cs),
(258,440,o),
(258,340,o),
(190,340,cs)
);
}
);
width = 380;
}
);
unicode = 8310;
},
{
glyphname = sevensuperior;
kernLeft = superior;
kernRight = superior;
lastChange = "2026-06-17 19:28:13 +0000";
layers = (
{
layerId = "FDF8D1BA-B4CE-4A91-B9C2-23316F7DE4E8";
shapes = (
{
closed = 1;
nodes = (
(328,544,ls),
(370,622,o),
(330,680,o),
(252,680,cs),
(88,680,ls),
(-18,680,o),
(-18,546,o),
(88,546,cs),
(178,546,l),
(64,342,ls),
(6,238,o),
(132,182,o),
(184,278,cs)
);
}
);
width = 356;
}
);
unicode = 8311;
},
{
glyphname = eightsuperior;
kernLeft = superior;
kernRight = superior;
lastChange = "2026-06-17 19:28:13 +0000";
layers = (
{
layerId = "FDF8D1BA-B4CE-4A91-B9C2-23316F7DE4E8";
shapes = (
{
closed = 1;
nodes = (
(148,212,o),
(214,212,o),
(270,242,cs),
(318,268,o),
(346,324,o),
(346,372,cs),
(346,422,o),
(320,464,o),
(300,482,c),
(320,508,o),
(328,536,o),
(328,562,cs),
(328,626,o),
(280,690,o),
(180,690,cs),
(80,690,o),
(32,626,o),
(32,562,cs),
(32,536,o),
(40,508,o),
(60,482,c),
(40,464,o),
(14,422,o),
(14,372,cs),
(14,324,o),
(40,268,o),
(90,242,cs)
);
},
{
closed = 1;
nodes = (
(114,332,o),
(116,424,o),
(180,424,cs),
(244,424,o),
(246,332,o),
(180,332,cs)
);
},
{
closed = 1;
nodes = (
(134,516,o),
(134,586,o),
(180,586,cs),
(228,586,o),
(228,516,o),
(180,516,cs)
);
}
);
width = 360;
}
);
unicode = 8312;
},
{
glyphname = ninesuperior;
kernLeft = superior;
kernRight = superior;
lastChange = "2026-06-17 19:28:13 +0000";
layers = (
{
layerId = "FDF8D1BA-B4CE-4A91-B9C2-23316F7DE4E8";
shapes = (
{
closed = 1;
nodes = (
(130,230,o),
(174,220,o),
(204,250,cs),
(258,304,o),
(318,370,o),
(346,434,cs),
(372,490,o),
(372,544,o),
(356,584,cs),
(332,642,o),
(278,690,o),
(190,690,cs),
(128,690,o),
(90,670,o),
(54,632,cs),
(8,584,o),
(6,510,o),
(20,470,cs),
(40,416,o),
(82,378,o),
(142,368,c),
(122,346,ls),
(98,320,o),
(82,272,o),
(114,244,cs)
);
},
{
closed = 1;
nodes = (
(122,470,o),
(122,570,o),
(190,570,cs),
(258,570,o),
(258,470,o),
(190,470,cs)
);
}
);
width = 380;
}
);
unicode = 8313;
},
{
glyphname = period;
kernLeft = period;
kernRight = period;
lastChange = "2026-06-17 16:36:02 +0000";
layers = (
{
layerId = "FDF8D1BA-B4CE-4A91-B9C2-23316F7DE4E8";
shapes = (
{
closed = 1;
nodes = (
(168,-10,o),
(202,24,o),
(202,66,cs),
(202,108,o),
(168,142,o),
(126,142,cs),
(84,142,o),
(50,108,o),
(50,66,cs),
(50,24,o),
(84,-10,o),
(126,-10,cs)
);
}
);
width = 252;
}
);
unicode = 46;
},
{
glyphname = comma;
kernLeft = comma;
kernRight = comma;
lastChange = "2026-06-17 16:37:23 +0000";
layers = (
{
layerId = "FDF8D1BA-B4CE-4A91-B9C2-23316F7DE4E8";
shapes = (
{
closed = 1;
nodes = (
(264,92,ls),
(310,188,o),
(184,246,o),
(138,150,cs),
(38,-64,ls),
(-8,-162,o),
(122,-212,o),
(164,-122,cs)
);
}
);
width = 304;
}
);
unicode = 44;
},
{
glyphname = exclam;
lastChange = "2026-06-08 20:19:08 +0000";
layers = (
{
layerId = "FDF8D1BA-B4CE-4A91-B9C2-23316F7DE4E8";
shapes = (
{
closed = 1;
nodes = (
(48,190,o),
(188,190,o),
(188,290,cs),
(188,604,ls),
(188,704,o),
(48,704,o),
(48,604,cs),
(48,290,ls)
);
},
{
pos = (-2,0);
ref = period;
}
);
width = 234;
}
);
unicode = 33;
},
{
glyphname = question;
kernLeft = Quest;
kernRight = Quest;
lastChange = "2026-06-08 20:19:09 +0000";
layers = (
{
layerId = "FDF8D1BA-B4CE-4A91-B9C2-23316F7DE4E8";
shapes = (
{
closed = 1;
nodes = (
(154,192,o),
(294,190,o),
(294,292,cs),
(294,324,o),
(344,334,o),
(388,394,cs),
(440,466,o),
(430,558,o),
(384,618,cs),
(342,664,o),
(286,698,o),
(198,688,cs),
(122,680,o),
(60,630,o),
(34,558,cs),
(-10,464,o),
(114,408,o),
(158,498,cs),
(176,546,o),
(218,562,o),
(250,548,cs),
(278,536,o),
(296,506,o),
(280,468,cs),
(258,414,o),
(154,416,o),
(154,286,cs)
);
},
{
pos = (108,0);
ref = period;
}
);
width = 450;
}
);
unicode = 63;
},
{
glyphname = asterisk;
lastChange = "2026-06-17 19:31:43 +0000";
layers = (
{
layerId = "FDF8D1BA-B4CE-4A91-B9C2-23316F7DE4E8";
shapes = (
{
closed = 1;
nodes = (
(158,244,o),
(290,244,o),
(290,348,cs),
(290,364,l),
(308,354,ls),
(394,304,o),
(460,420,o),
(374,468,cs),
(355,479,l),
(374,490,ls),
(460,540,o),
(394,656,o),
(308,606,cs),
(290,596,l),
(290,616,ls),
(290,716,o),
(158,716,o),
(158,616,cs),
(158,593,l),
(142,602,ls),
(52,656,o),
(-16,540,o),
(76,488,cs),
(90,480,l),
(76,472,ls),
(-14,420,o),
(52,304,o),
(142,356,cs),
(158,365,l),
(158,348,ls)
);
}
);
width = 448;
}
);
tags = (
"to-flat"
);
unicode = 42;
},
{
glyphname = numbersign;
lastChange = "2026-06-17 19:31:43 +0000";
layers = (
{
layerId = "FDF8D1BA-B4CE-4A91-B9C2-23316F7DE4E8";
shapes = (
{
closed = 1;
nodes = (
(300,132,l),
(445,132,l),
(432,88,ls),
(402,-12,o),
(540,-28,o),
(566,56,cs),
(590,132,l),
(700,132,ls),
(802,132,o),
(802,268,o),
(700,268,cs),
(633,268,l),
(676,406,l),
(776,406,ls),
(878,406,o),
(878,542,o),
(776,542,cs),
(719,542,l),
(730,576,ls),
(764,682,o),
(624,714,o),
(596,626,cs),
(570,542,l),
(427,542,l),
(438,576,ls),
(470,680,o),
(332,714,o),
(304,624,cs),
(279,542,l),
(176,542,ls),
(74,542,o),
(74,406,o),
(176,406,cs),
(237,406,l),
(195,268,l),
(100,268,ls),
(-2,268,o),
(-2,132,o),
(100,132,cs),
(153,132,l),
(140,88,ls),
(110,-12,o),
(250,-28,o),
(276,54,cs)
);
},
{
closed = 1;
nodes = (
(385,406,l),
(529,406,l),
(487,268,l),
(342,268,l)
);
}
);
width = 876;
}
);
tags = (
"to-flat"
);
unicode = 35;
},
{
glyphname = slash;
lastChange = "2026-06-08 20:19:09 +0000";
layers = (
{
layerId = "FDF8D1BA-B4CE-4A91-B9C2-23316F7DE4E8";
shapes = (
{
closed = 1;
nodes = (
(444,564,ls),
(500,666,o),
(374,728,o),
(320,630,cs),
(38,112,ls),
(-16,12,o),
(112,-46,o),
(166,52,cs)
);
}
);
width = 482;
}
);
unicode = 47;
},
{
glyphname = hyphen;
kernLeft = dash;
kernRight = dash;
lastChange = "2026-06-08 20:14:18 +0000";
layers = (
{
layerId = "FDF8D1BA-B4CE-4A91-B9C2-23316F7DE4E8";
shapes = (
{
closed = 1;
nodes = (
(440,270,ls),
(548,270,o),
(548,406,o),
(440,406,cs),
(112,406,ls),
(4,406,o),
(4,270,o),
(112,270,cs)
);
}
);
width = 552;
}
);
unicode = 45;
},
{
glyphname = endash;
kernLeft = dash;
kernRight = dash;
lastChange = "2026-06-08 20:19:09 +0000";
layers = (
{
layerId = "FDF8D1BA-B4CE-4A91-B9C2-23316F7DE4E8";
shapes = (
{
closed = 1;
nodes = (
(542,270,ls),
(654,270,o),
(654,406,o),
(542,406,cs),
(112,406,ls),
(4,406,o),
(4,270,o),
(112,270,cs)
);
}
);
width = 658;
}
);
unicode = 8211;
},
{
glyphname = emdash;
kernLeft = dash;
kernRight = dash;
lastChange = "2026-06-08 20:19:08 +0000";
layers = (
{
layerId = "FDF8D1BA-B4CE-4A91-B9C2-23316F7DE4E8";
shapes = (
{
closed = 1;
nodes = (
(746,270,ls),
(858,270,o),
(858,406,o),
(746,406,cs),
(112,406,ls),
(4,406,o),
(4,270,o),
(112,270,cs)
);
}
);
width = 862;
}
);
unicode = 8212;
},
{
glyphname = underscore;
lastChange = "2026-06-08 20:19:09 +0000";
layers = (
{
layerId = "FDF8D1BA-B4CE-4A91-B9C2-23316F7DE4E8";
shapes = (
{
closed = 1;
nodes = (
(542,0,ls),
(654,0,o),
(654,136,o),
(542,136,cs),
(112,136,ls),
(4,136,o),
(4,0,o),
(112,0,cs)
);
}
);
width = 658;
}
);
unicode = 95;
},
{
glyphname = wavedash;
lastChange = "2026-06-16 10:45:03 +0000";
layers = (
{
layerId = "FDF8D1BA-B4CE-4A91-B9C2-23316F7DE4E8";
shapes = (
{
closed = 1;
nodes = (
(732.945,413.151,o),
(637.347,478.836,o),
(578.817,402.141,cs),
(557.819,374.144,o),
(530.869,354.399,o),
(494.441,354.399,cs),
(458.515,354.399,o),
(427.645,375.77,o),
(392.011,398.046,cs),
(349.668,427.013,o),
(298.272,459.136,o),
(227.027,459.136,cs),
(151.864,459.136,o),
(70.409,409.795,o),
(38.218,336.83,cs),
(4.163,262.71,o),
(99.516,199.173,o),
(155.982,275.805,cs),
(177.02,303.856,o),
(203.97,323.601,o),
(240.398,323.601,cs),
(276.174,323.601,o),
(309.556,302.142,o),
(342.995,277.612,cs),
(387.279,248.835,o),
(436.516,218.864,o),
(507.812,218.864,cs),
(583.059,218.864,o),
(664.571,266.103,o),
(698.89,339.031,cs)
);
}
);
width = 737.06;
}
);
unicode = 12316;
},
{
glyphname = parenleft;
lastChange = "2026-06-08 20:19:09 +0000";
layers = (
{
layerId = "FDF8D1BA-B4CE-4A91-B9C2-23316F7DE4E8";
shapes = (
{
closed = 1;
nodes = (
(290,-46,o),
(362,48,o),
(286,112,cs),
(234,156,o),
(170,230,o),
(170,338,cs),
(170,448,o),
(234,522,o),
(286,566,cs),
(362,632,o),
(290,726,o),
(202,674,cs),
(108,614,o),
(30,478,o),
(30,338,cs),
(30,200,o),
(108,64,o),
(202,6,cs)
);
}
);
width = 346;
}
);
unicode = 40;
},
{
glyphname = braceleft;
lastChange = "2026-06-08 20:19:08 +0000";
layers = (
{
layerId = "FDF8D1BA-B4CE-4A91-B9C2-23316F7DE4E8";
shapes = (
{
closed = 1;
nodes = (
(412,-10,o),
(412,126,o),
(310,126,cs),
(270,126,o),
(244,154,o),
(244,212,cs),
(244,228,o),
(244,294,o),
(172,340,c),
(244,386,o),
(244,452,o),
(244,468,cs),
(244,526,o),
(270,554,o),
(310,554,cs),
(412,554,o),
(412,690,o),
(310,690,cs),
(198,690,o),
(108,608,o),
(108,496,cs),
(108,458,l),
(86,444,ls),
(4,390,o),
(4,290,o),
(86,236,cs),
(108,222,l),
(108,184,ls),
(108,72,o),
(198,-10,o),
(310,-10,cs)
);
}
);
width = 414;
}
);
unicode = 123;
},
{
glyphname = bracketleft;
lastChange = "2026-06-08 20:19:08 +0000";
layers = (
{
layerId = "FDF8D1BA-B4CE-4A91-B9C2-23316F7DE4E8";
shapes = (
{
closed = 1;
nodes = (
(268,0,ls),
(368,0,o),
(368,136,o),
(268,136,cs),
(186,136,l),
(186,544,l),
(268,544,ls),
(368,544,o),
(368,680,o),
(268,680,cs),
(168,680,ls),
(102,680,o),
(48,626,o),
(48,560,cs),
(48,116,ls),
(48,50,o),
(102,0,o),
(168,0,cs)
);
}
);
width = 372;
}
);
unicode = 91;
},
{
glyphname = quoteright;
lastChange = "2026-06-17 16:22:52 +0000";
layers = (
{
layerId = "FDF8D1BA-B4CE-4A91-B9C2-23316F7DE4E8";
shapes = (
{
closed = 1;
nodes = (
(246,572,ls),
(288,668,o),
(162,726,o),
(120,630,cs),
(38,446,ls),
(-6,348,o),
(124,298,o),
(164,388,cs)
);
}
);
width = 284;
}
);
unicode = 8217;
},
{
glyphname = guilsinglleft;
lastChange = "2026-06-08 20:19:08 +0000";
layers = (
{
layerId = "FDF8D1BA-B4CE-4A91-B9C2-23316F7DE4E8";
shapes = (
{
closed = 1;
nodes = (
(372,-48,o),
(478,42,o),
(400,122,cs),
(182,342,l),
(400,560,ls),
(476,634,o),
(374,728,o),
(300,652,cs),
(58,412,ls),
(14,366,o),
(12,322,o),
(58,276,cs),
(300,30,ls)
);
}
);
width = 456;
}
);
unicode = 8249;
},
{
glyphname = baht;
lastChange = "2026-06-17 19:31:43 +0000";
layers = (
{
anchors = (
{
name = bottom;
pos = (310,0);
},
{
name = center;
pos = (286,348);
},
{
name = ogonek;
pos = (310,70);
},
{
name = top;
pos = (310,680);
},
{
name = topleft;
pos = (184,680);
}
);
layerId = "FDF8D1BA-B4CE-4A91-B9C2-23316F7DE4E8";
shapes = (
{
closed = 1;
nodes = (
(240,-44,o),
(380,-44,o),
(380,56,cs),
(380,67,l),
(400,67,ls),
(509,67,o),
(563,154,o),
(563,231,cs),
(563,289,o),
(526,335,o),
(507,351,c),
(521,367,o),
(547,399,o),
(547,460,cs),
(547,541,o),
(478,613,o),
(381,613,c),
(380,624,l),
(380,724,o),
(240,724,o),
(240,624,cs),
(240,613,l),
(133,613,ls),
(87,613,o),
(61,586,o),
(61,542,cs),
(61,138,ls),
(61,94,o),
(87,67,o),
(133,67,cs),
(240,67,l),
(240,56,ls)
);
},
{
closed = 1;
nodes = (
(195,277,l),
(240,277,l),
(240,196,l),
(195,196,l)
);
},
{
closed = 1;
nodes = (
(380,277,l),
(392,277,ls),
(444,277,o),
(449,196,o),
(393,196,cs),
(380,196,l)
);
},
{
closed = 1;
nodes = (
(195,484,l),
(240,484,l),
(240,405,l),
(195,405,l)
);
},
{
closed = 1;
nodes = (
(380,484,l),
(382,484,ls),
(441,484,o),
(439,407,o),
(380,405,c)
);
}
);
width = 609;
}
);
tags = (
"to-flat"
);
unicode = 3647;
},
{
export = 0;
glyphname = hook;
lastChange = "2026-06-13 17:15:25 +0000";
layers = (
{
anchors = (
{
name = _hook;
pos = (342,64);
}
);
layerId = "FDF8D1BA-B4CE-4A91-B9C2-23316F7DE4E8";
shapes = (
{
closed = 1;
nodes = (
(224,-240,o),
(342,-148,o),
(342,0,cs),
(342,64,l),
(202,64,l),
(202,0,ls),
(202,-50,o),
(166,-104,o),
(98,-104,cs),
(-6,-104,o),
(-6,-240,o),
(98,-240,cs)
);
}
);
width = 370;
}
);
subCategory = Nonspacing;
unicode = 129693;
},
{
glyphname = flower;
lastChange = "2026-06-08 20:19:09 +0000";
layers = (
{
layerId = "FDF8D1BA-B4CE-4A91-B9C2-23316F7DE4E8";
shapes = (
{
closed = 1;
nodes = (
(192,70,o),
(332,70,o),
(332,170,c),
(412,106,o),
(502,200,o),
(432,270,c),
(534,270,o),
(530,410,o),
(432,410,c),
(502,480,o),
(412,576,o),
(332,510,c),
(332,610,o),
(192,610,o),
(192,510,c),
(112,576,o),
(22,480,o),
(92,410,c),
(-8,410,o),
(-8,270,o),
(92,270,c),
(22,200,o),
(112,106,o),
(192,170,c)
);
},
{
closed = 1;
nodes = (
(224,270,o),
(194,302,o),
(194,340,cs),
(194,374,o),
(220,410,o),
(264,410,cs),
(308,410,o),
(334,374,o),
(334,340,cs),
(334,302,o),
(302,270,o),
(264,270,cs)
);
}
);
width = 524;
}
);
unicode = 9880;
},
{
glyphname = at;
kernLeft = O;
kernRight = O;
lastChange = "2026-06-08 20:19:08 +0000";
layers = (
{
layerId = "FDF8D1BA-B4CE-4A91-B9C2-23316F7DE4E8";
shapes = (
{
closed = 1;
nodes = (
(410,206,o),
(380,236,o),
(380,274,cs),
(380,310,o),
(410,338,o),
(446,338,cs),
(482,338,o),
(512,310,o),
(512,274,cs),
(512,236,o),
(482,206,o),
(446,206,cs)
);
},
{
closed = 1;
nodes = (
(568,-8,o),
(736,-10,o),
(810,78,cs),
(864,142,o),
(870,202,o),
(870,290,cs),
(870,470,o),
(724,690,o),
(452,690,cs),
(202,690,o),
(26,502,o),
(22,270,cs),
(20,162,o),
(72,64,o),
(130,10,cs),
(186,-42,o),
(284,10,o),
(228,92,cs),
(206,124,o),
(160,174,o),
(160,280,cs),
(160,426,o),
(286,560,o),
(452,560,cs),
(614,560,o),
(726,440,o),
(730,294,cs),
(732,234,o),
(726,158,o),
(676,150,cs),
(652,146,o),
(624,160,o),
(624,204,cs),
(624,274,ls),
(624,370,o),
(544,450,o),
(446,450,cs),
(348,450,o),
(270,370,o),
(270,274,cs),
(270,174,o),
(348,96,o),
(446,96,cs),
(468,96,o),
(488,100,o),
(508,108,c)
);
}
);
width = 892;
}
);
unicode = 64;
},
{
glyphname = ampersand;
lastChange = "2026-06-08 20:19:08 +0000";
layers = (
{
layerId = "FDF8D1BA-B4CE-4A91-B9C2-23316F7DE4E8";
shapes = (
{
closed = 1;
nodes = (
(608,-46,o),
(690,50,o),
(614,118,cs),
(536,186,l),
(608,264,ls),
(674,334,o),
(582,426,o),
(512,354,cs),
(434,272,l),
(270,400,ls),
(230,432,o),
(176,470,o),
(196,522,cs),
(208,552,o),
(242,562,o),
(270,552,cs),
(300,542,o),
(310,514,o),
(314,500,cs),
(340,404,o),
(456,434,o),
(442,528,cs),
(414,704,o),
(170,752,o),
(78,598,cs),
(36,524,o),
(46,436,o),
(102,370,c),
(-6,284,o),
(-18,108,o),
(122,26,cs),
(214,-28,o),
(346,-28,o),
(446,88,c),
(534,16,ls)
);
},
{
closed = 1;
nodes = (
(148,164,o),
(132,232,o),
(204,286,c),
(348,174,l),
(294,118,o),
(236,110,o),
(186,138,cs)
);
}
);
width = 662;
}
);
unicode = 38;
},
{
glyphname = paragraph;
lastChange = "2026-06-08 20:19:08 +0000";
layers = (
{
anchors = (
{
name = bottom;
pos = (220,0);
},
{
name = ogonek;
pos = (586,70);
},
{
name = top;
pos = (220,680);
},
{
name = topleft;
pos = (476,680);
}
);
layerId = "FDF8D1BA-B4CE-4A91-B9C2-23316F7DE4E8";
shapes = (
{
closed = 1;
nodes = (
(290,-24,o),
(430,-24,o),
(430,76,cs),
(430,588,ls),
(430,646,o),
(398,680,o),
(332,680,cs),
(236,680,ls),
(90,680,o),
(18,578,o),
(18,480,cs),
(18,380,o),
(90,276,o),
(234,276,cs),
(290,276,l),
(290,76,ls)
);
},
{
alignment = -1;
pos = (474,0);
ref = I;
}
);
width = 698;
}
);
unicode = 182;
},
{
glyphname = section;
lastChange = "2026-06-08 20:19:08 +0000";
layers = (
{
layerId = "FDF8D1BA-B4CE-4A91-B9C2-23316F7DE4E8";
shapes = (
{
closed = 1;
nodes = (
(368,32,o),
(392,98,o),
(396,116,cs),
(412,174,o),
(388,220,o),
(368,246,c),
(382,266,o),
(394,296,o),
(396,304,cs),
(408,352,o),
(398,394,o),
(370,434,cs),
(332,486,o),
(266,500,o),
(226,504,cs),
(194,508,o),
(178,512,o),
(172,526,cs),
(164,546,o),
(204,580,o),
(276,540,cs),
(366,490,o),
(430,600,o),
(344,652,cs),
(226,724,o),
(130,678,o),
(104,660,cs),
(64,634,o),
(38,594,o),
(32,546,cs),
(28,506,o),
(40,466,o),
(64,436,c),
(22,378,o),
(10,294,o),
(70,238,cs),
(108,202,o),
(162,190,o),
(204,182,cs),
(232,176,o),
(254,178,o),
(262,164,cs),
(270,152,o),
(264,136,o),
(244,128,cs),
(216,118,o),
(170,120,o),
(134,146,cs),
(56,202,o),
(-22,96,o),
(64,36,cs),
(144,-20,o),
(234,-18,o),
(292,4,cs)
);
},
{
closed = 1;
nodes = (
(186,302,o),
(160,316,o),
(160,340,cs),
(160,364,o),
(186,378,o),
(218,378,cs),
(250,378,o),
(274,364,o),
(274,340,cs),
(274,316,o),
(250,302,o),
(218,302,cs)
);
}
);
width = 426;
}
);
unicode = 167;
},
{
glyphname = copyright;
kernLeft = O;
kernRight = O;
lastChange = "2026-06-08 20:19:08 +0000";
layers = (
{
layerId = "FDF8D1BA-B4CE-4A91-B9C2-23316F7DE4E8";
shapes = (
{
closed = 1;
nodes = (
(564,-10,o),
(722,146,o),
(722,340,cs),
(722,534,o),
(564,690,o),
(372,690,cs),
(178,690,o),
(22,534,o),
(22,340,cs),
(22,146,o),
(178,-10,o),
(372,-10,cs)
);
},
{
closed = 1;
nodes = (
(252,116,o),
(152,218,o),
(154,340,cs),
(152,462,o),
(252,564,o),
(374,564,cs),
(494,564,o),
(596,462,o),
(594,340,cs),
(596,218,o),
(494,116,o),
(374,116,cs)
);
},
{
closed = 1;
nodes = (
(414,190,o),
(446,200,o),
(466,220,c),
(534,278,o),
(472,356,o),
(406,314,c),
(380,298,o),
(338,302,o),
(338,340,cs),
(338,376,o),
(382,380,o),
(406,362,cs),
(470,316,o),
(538,398,o),
(466,458,cs),
(448,472,o),
(414,486,o),
(378,486,cs),
(294,486,o),
(226,424,o),
(226,340,cs),
(226,252,o),
(294,190,o),
(378,190,cs)
);
}
);
width = 742;
}
);
unicode = 169;
},
{
glyphname = registered;
kernLeft = O;
kernRight = O;
lastChange = "2026-06-08 20:19:09 +0000";
layers = (
{
layerId = "FDF8D1BA-B4CE-4A91-B9C2-23316F7DE4E8";
shapes = (
{
closed = 1;
nodes = (
(564,-10,o),
(722,146,o),
(722,340,cs),
(722,534,o),
(564,690,o),
(372,690,cs),
(178,690,o),
(22,534,o),
(22,340,cs),
(22,146,o),
(178,-10,o),
(372,-10,cs)
);
},
{
closed = 1;
nodes = (
(442,152,o),
(520,220,o),
(472,274,cs),
(454,294,l),
(472,308,o),
(500,334,o),
(500,382,cs),
(500,424,o),
(470,488,o),
(370,488,cs),
(328,488,ls),
(294,488,o),
(268,468,o),
(268,428,cs),
(268,248,ls),
(268,170,o),
(366,170,o),
(366,248,c),
(390,218,ls)
);
},
{
closed = 1;
nodes = (
(252,116,o),
(152,218,o),
(154,340,cs),
(152,462,o),
(252,564,o),
(374,564,cs),
(494,564,o),
(596,462,o),
(594,340,cs),
(596,218,o),
(494,116,o),
(374,116,cs)
);
},
{
closed = 1;
nodes = (
(356,400,l),
(378,400,ls),
(418,400,o),
(418,346,o),
(378,346,cs),
(356,346,l)
);
}
);
width = 742;
}
);
unicode = 174;
},
{
glyphname = trademark;
lastChange = "2026-06-08 20:19:08 +0000";
layers = (
{
layerId = "FDF8D1BA-B4CE-4A91-B9C2-23316F7DE4E8";
shapes = (
{
closed = 1;
nodes = (
(486,424,l),
(500,334,ls),
(514,246,o),
(634,246,o),
(648,334,cs),
(662,424,l),
(688,324,ls),
(712,230,o),
(834,270,o),
(808,354,cs),
(740,618,ls),
(720,700,o),
(616,702,o),
(596,618,cs),
(574,528,l),
(552,618,ls),
(532,702,o),
(428,700,o),
(408,618,cs),
(340,354,ls),
(314,270,o),
(436,230,o),
(460,324,cs)
);
},
{
closed = 1;
nodes = (
(124,248,o),
(254,244,o),
(254,338,cs),
(254,554,l),
(290,554,ls),
(382,554,o),
(382,680,o),
(290,680,cs),
(88,680,ls),
(-6,680,o),
(-6,554,o),
(88,554,cs),
(124,554,l),
(124,338,ls)
);
}
);
width = 832;
}
);
unicode = 8482;
},
{
glyphname = degree;
lastChange = "2026-06-08 20:19:09 +0000";
layers = (
{
layerId = "FDF8D1BA-B4CE-4A91-B9C2-23316F7DE4E8";
shapes = (
{
closed = 1;
nodes = (
(342,270,o),
(434,362,o),
(434,476,cs),
(434,588,o),
(342,680,o),
(228,680,cs),
(114,680,o),
(24,588,o),
(24,476,cs),
(24,362,o),
(114,270,o),
(228,270,cs)
);
},
{
closed = 1;
nodes = (
(186,398,o),
(152,432,o),
(152,476,cs),
(152,518,o),
(186,552,o),
(228,552,cs),
(270,552,o),
(304,518,o),
(304,476,cs),
(304,432,o),
(270,398,o),
(228,398,cs)
);
}
);
width = 458;
}
);
unicode = 176;
},
{
glyphname = bar;
lastChange = "2026-06-08 20:19:08 +0000";
layers = (
{
anchors = (
{
name = bottom;
pos = (114,0);
},
{
name = ogonek;
pos = (114,70);
},
{
name = top;
pos = (114,680);
},
{
name = topleft;
pos = (4,680);
}
);
layerId = "FDF8D1BA-B4CE-4A91-B9C2-23316F7DE4E8";
shapes = (
{
closed = 1;
nodes = (
(42,-100,o),
(182,-100,o),
(182,0,cs),
(182,680,ls),
(182,780,o),
(42,780,o),
(42,680,cs),
(42,0,ls)
);
}
);
width = 224;
}
);
unicode = 124;
},
{
glyphname = brokenbar;
lastChange = "2026-06-08 20:19:09 +0000";
layers = (
{
layerId = "FDF8D1BA-B4CE-4A91-B9C2-23316F7DE4E8";
shapes = (
{
closed = 1;
nodes = (
(36,380,o),
(176,380,o),
(176,480,cs),
(176,680,ls),
(176,780,o),
(36,780,o),
(36,680,cs),
(36,480,ls)
);
},
{
closed = 1;
nodes = (
(36,-100,o),
(176,-100,o),
(176,0,cs),
(176,200,ls),
(176,300,o),
(36,300,o),
(36,200,cs),
(36,0,ls)
);
}
);
width = 212;
}
);
unicode = 166;
},
{
glyphname = cent;
lastChange = "2026-06-13 19:00:07 +0000";
layers = (
{
layerId = "FDF8D1BA-B4CE-4A91-B9C2-23316F7DE4E8";
shapes = (
{
closed = 1;
nodes = (
(46,204,o),
(136,98,o),
(244,76,c),
(244,54,ls),
(244,-42,o),
(384,-42,o),
(384,54,cs),
(384,76,l),
(424,86,o),
(460,104,o),
(490,134,cs),
(562,210,o),
(472,294,o),
(400,230,cs),
(392,222,o),
(384,222,o),
(384,222,c),
(384,458,l),
(384,458,o),
(392,458,o),
(400,450,cs),
(472,386,o),
(562,470,o),
(490,546,cs),
(460,576,o),
(424,594,o),
(384,604,c),
(384,626,ls),
(384,722,o),
(244,722,o),
(244,626,cs),
(244,604,l),
(136,582,o),
(46,476,o),
(46,340,cs)
);
},
{
closed = 1;
nodes = (
(244,226,l),
(164,270,o),
(164,410,o),
(244,454,c)
);
}
);
width = 561.47;
}
);
unicode = 162;
},
{
glyphname = dollar;
lastChange = "2026-06-13 19:00:07 +0000";
layers = (
{
anchors = (
{
name = bottom;
pos = (868.4,106);
},
{
name = top;
pos = (882.4,592);
}
);
layerId = "FDF8D1BA-B4CE-4A91-B9C2-23316F7DE4E8";
shapes = (
{
closed = 1;
nodes = (
(442.4,140,o),
(454.4,224,o),
(436.4,284,cs),
(414.4,352,o),
(348.4,384,o),
(320.4,394,cs),
(298.4,402,o),
(236.4,410,o),
(212.4,430,cs),
(194.4,446,o),
(198.4,470,o),
(222.4,478,cs),
(248.4,486,o),
(276.4,482,o),
(316.4,462,cs),
(394.4,424,o),
(458.4,520,o),
(388.4,574,cs),
(324.4,624,o),
(218.4,634,o),
(138.4,586,cs),
(98.4,564,o),
(74.4,528,o),
(62.4,490,cs),
(54.4,456,o),
(54.4,390,o),
(100.4,346,cs),
(144.4,304,o),
(202.4,288,o),
(234.4,280,cs),
(262.4,272,o),
(292.4,262,o),
(300.4,250,cs),
(308.4,234,o),
(302.4,218,o),
(286.4,210,cs),
(266.4,198,o),
(226.4,196,o),
(190.4,220,cs),
(164.4,236,ls),
(76.4,294,o),
(6.4,196,o),
(66.4,136,cs),
(122.4,78,o),
(254.4,22,o),
(366.4,94,cs)
);
},
{
closed = 1;
nodes = (
(176.4,-42,o),
(316.4,-42,o),
(316.4,54,cs),
(316.4,74,l),
(176.4,74,l),
(176.4,54,ls)
);
},
{
closed = 1;
nodes = (
(316.4,606,l),
(316.4,626,ls),
(316.4,722,o),
(176.4,722,o),
(176.4,626,cs),
(176.4,606,l)
);
}
);
width = 487.76;
}
);
unicode = 36;
},
{
glyphname = euro;
lastChange = "2026-06-17 19:31:43 +0000";
layers = (
{
anchors = (
{
name = bottom;
pos = (451,0);
},
{
name = top;
pos = (449,680);
}
);
layerId = "FDF8D1BA-B4CE-4A91-B9C2-23316F7DE4E8";
shapes = (
{
closed = 1;
nodes = (
(427,-32,o),
(569,-12,o),
(641,50,cs),
(703,106,o),
(653,210,o),
(559,154,cs),
(505,122,o),
(443,108,o),
(377,134,cs),
(356,143,o),
(337,158,o),
(321,176,c),
(427,176,ls),
(525,176,o),
(525,302,o),
(427,302,cs),
(263,302,l),
(260,318,o),
(259,334,o),
(259,350,c),
(513,350,ls),
(611,350,o),
(611,476,o),
(513,476,cs),
(294,476,l),
(315,508,o),
(345,532,o),
(377,546,cs),
(443,572,o),
(505,560,o),
(559,526,cs),
(645,472,o),
(703,574,o),
(641,630,cs),
(569,692,o),
(429,712,o),
(313,660,cs),
(235,625,o),
(172,562,o),
(141,476,c),
(119,476,ls),
(21,476,o),
(21,350,o),
(119,350,cs),
(121,350,l),
(121,335,o),
(122,318,o),
(124,302,c),
(119,302,ls),
(21,302,o),
(21,176,o),
(119,176,cs),
(160,176,l),
(194,105,o),
(248,49,o),
(313,20,cs)
);
}
);
width = 713;
}
);
tags = (
"to-flat"
);
unicode = 8364;
},
{
glyphname = hryvnia;
lastChange = "2026-06-17 19:31:43 +0000";
layers = (
{
anchors = (
{
name = bottom;
pos = (342,0);
},
{
name = top;
pos = (324,690);
}
);
layerId = "FDF8D1BA-B4CE-4A91-B9C2-23316F7DE4E8";
shapes = (
{
closed = 1;
nodes = (
(325,-14,o),
(380,-9,o),
(430,9,cs),
(527,44,o),
(480,173,o),
(382,137,cs),
(360,129,o),
(339,127,o),
(322,130,cs),
(289,136,o),
(267,161,o),
(264,190,c),
(490,190,ls),
(588,190,o),
(588,316,o),
(490,316,cs),
(363,316,l),
(419,364,l),
(490,364,ls),
(588,364,o),
(588,490,o),
(490,490,cs),
(485,490,l),
(486,534,o),
(471,576,o),
(452,603,cs),
(425,641,o),
(384,672,o),
(327,684,cs),
(282,694,o),
(238,690,o),
(195,675,cs),
(89,638,o),
(127,509,o),
(242,546,cs),
(254,550,o),
(266,553,o),
(283,552,cs),
(317,550,o),
(347,524,o),
(342,490,c),
(119,490,ls),
(21,490,o),
(21,364,o),
(119,364,cs),
(242,364,l),
(206,335,ls),
(200,330,o),
(192,323,o),
(184,316,c),
(119,316,ls),
(26,316,o),
(22,203,o),
(112,191,c),
(112,182,ls),
(116,106,o),
(174,20,o),
(278,-3,cs)
);
}
);
width = 608;
}
);
tags = (
"to-flat"
);
unicode = 8372;
},
{
glyphname = ruble;
lastChange = "2026-06-17 19:31:43 +0000";
layers = (
{
anchors = (
{
name = bottom;
pos = (381,0);
},
{
name = top;
pos = (383,680);
}
);
layerId = "FDF8D1BA-B4CE-4A91-B9C2-23316F7DE4E8";
shapes = (
{
closed = 1;
nodes = (
(173,-24,o),
(313,-24,o),
(313,76,cs),
(313,112,l),
(361,112,ls),
(471,112,o),
(471,248,o),
(361,248,cs),
(313,248,l),
(313,296,l),
(411,296,ls),
(543,296,o),
(615,380,o),
(615,480,cs),
(615,578,o),
(543,680,o),
(411,680,cs),
(271,680,ls),
(205,680,o),
(173,646,o),
(173,588,cs),
(173,432,l),
(125,432,ls),
(19,432,o),
(19,296,o),
(125,296,cs),
(173,296,l),
(173,248,l),
(125,248,ls),
(19,248,o),
(19,112,o),
(125,112,cs),
(173,112,l),
(173,76,ls)
);
},
{
closed = 1;
nodes = (
(313,544,l),
(409,544,ls),
(503,544,o),
(503,424,o),
(409,424,cs),
(313,424,l)
);
}
);
width = 660;
}
);
tags = (
"to-flat"
);
unicode = 8381;
},
{
glyphname = rupeeIndian;
lastChange = "2026-06-13 19:00:07 +0000";
layers = (
{
layerId = "FDF8D1BA-B4CE-4A91-B9C2-23316F7DE4E8";
shapes = (
{
closed = 1;
nodes = (
(312,-46,o),
(414,44,o),
(338,120,cs),
(250,206,l),
(330,238,o),
(380,300,o),
(406,374,c),
(494,374,ls),
(592,374,o),
(592,504,o),
(494,504,cs),
(406,504,l),
(380,550,l),
(494,550,ls),
(592,550,o),
(592,680,o),
(494,680,cs),
(120,680,ls),
(24,680,o),
(24,550,o),
(120,550,cs),
(162,550,ls),
(210,550,o),
(242,532,o),
(264,504,c),
(120,504,ls),
(24,504,o),
(24,374,o),
(120,374,cs),
(264,374,l),
(242,346,o),
(210,328,o),
(162,328,cs),
(134,328,ls),
(64,328,o),
(32,246,o),
(80,196,cs),
(242,26,ls)
);
}
);
width = 612.5;
}
);
unicode = 8377;
},
{
glyphname = sheqel;
lastChange = "2026-06-13 19:08:51 +0000";
layers = (
{
layerId = "FDF8D1BA-B4CE-4A91-B9C2-23316F7DE4E8";
shapes = (
{
closed = 1;
nodes = (
(68,-24,o),
(202,-24,o),
(202,76,cs),
(202,548,l),
(342,548,ls),
(398,548,o),
(428,506,o),
(428,470,cs),
(428,260,ls),
(428,156,o),
(562,154,o),
(562,258,cs),
(562,470,ls),
(562,656,o),
(398,680,o),
(312,680,cs),
(161,680,ls),
(107,680,o),
(68,648,o),
(68,591,cs),
(68,76,ls)
);
},
{
closed = 1;
nodes = (
(742,705,o),
(608,705,o),
(608,605,cs),
(608,133,l),
(468,133,ls),
(412,133,o),
(382,175,o),
(382,211,cs),
(382,421,ls),
(382,525,o),
(248,527,o),
(248,423,cs),
(248,211,ls),
(248,25,o),
(412,1,o),
(498,1,cs),
(649,1,ls),
(703,1,o),
(742,33,o),
(742,90,cs),
(742,605,ls)
);
}
);
width = 810;
}
);
unicode = 8362;
},
{
glyphname = sterling;
lastChange = "2026-06-13 19:07:28 +0000";
layers = (
{
layerId = "FDF8D1BA-B4CE-4A91-B9C2-23316F7DE4E8";
shapes = (
{
closed = 1;
nodes = (
(472.5,0,ls),
(578.5,0,o),
(578.5,136,o),
(472.5,136,cs),
(232.5,136,l),
(252.5,176,o),
(264.5,224,o),
(266.5,270,c),
(400.5,270,ls),
(500.5,270,o),
(504.5,406,o),
(400.5,406,cs),
(266.5,406,l),
(268.5,474,o),
(272.083,500.828,o),
(289.5,526,cs),
(314.356,561.923,o),
(366.778,568,o),
(408.778,526,cs),
(478.221,456.557,o),
(578.5,540.008,o),
(496.5,628,cs),
(475.201,650.855,o),
(433.884,690,o),
(342.5,690,cs),
(272.5,690,o),
(222.5,660,o),
(188.5,624,cs),
(144.5,578,o),
(130.5,500,o),
(130.5,406,c),
(116.5,406,ls),
(18.5,406,o),
(18.5,270,o),
(116.5,270,cs),
(126.5,270,l),
(124.5,222,o),
(112.5,188,o),
(88.5,158,cs),
(32.5,88,o),
(70.5,0,o),
(164.5,0,cs)
);
}
);
width = 594;
}
);
unicode = 163;
},
{
glyphname = won;
lastChange = "2026-06-17 19:31:43 +0000";
layers = (
{
anchors = (
{
name = bottom;
pos = (523,0);
},
{
name = top;
pos = (505,680);
},
{
name = topright;
pos = (921,678);
}
);
layerId = "FDF8D1BA-B4CE-4A91-B9C2-23316F7DE4E8";
shapes = (
{
closed = 1;
nodes = (
(265,-28,o),
(397,-28,o),
(425,90,cs),
(482,340,l),
(526,340,l),
(583,90,ls),
(609,-28,o),
(745,-28,o),
(777,90,cs),
(843,340,l),
(891,340,ls),
(995,340,o),
(995,476,o),
(891,476,cs),
(879,476,l),
(907,578,ls),
(937,688,o),
(801,714,o),
(777,620,cs),
(741,476,l),
(626,476,l),
(599,594,ls),
(573,706,o),
(437,706,o),
(411,594,cs),
(383,476,l),
(268,476,l),
(233,620,ls),
(209,714,o),
(73,690,o),
(103,578,cs),
(130,476,l),
(121,476,ls),
(15,478,o),
(15,342,o),
(121,340,cs),
(166,340,l),
(233,90,ls)
);
},
{
closed = 1;
nodes = (
(301,340,l),
(351,340,l),
(327,236,l)
);
},
{
closed = 1;
nodes = (
(658,340,l),
(708,340,l),
(683,236,l)
);
}
);
width = 1010;
}
);
tags = (
"to-flat"
);
unicode = 8361;
},
{
glyphname = yen;
lastChange = "2026-06-17 19:31:43 +0000";
layers = (
{
layerId = "FDF8D1BA-B4CE-4A91-B9C2-23316F7DE4E8";
shapes = (
{
closed = 1;
nodes = (
(212,-24,o),
(348,-24,o),
(348,76,cs),
(348,88,l),
(396,88,ls),
(506,88,o),
(506,224,o),
(396,224,cs),
(348,224,l),
(348,270,l),
(396,270,ls),
(506,270,o),
(506,406,o),
(396,406,cs),
(348,406,l),
(492,566,ls),
(564,646,o),
(458,740,o),
(388,658,cs),
(280,536,l),
(172,658,ls),
(96,744,o),
(-10,644,o),
(70,566,c),
(212,406,l),
(160,406,ls),
(54,406,o),
(54,270,o),
(160,270,cs),
(212,270,l),
(212,224,l),
(160,224,ls),
(54,224,o),
(54,88,o),
(160,88,cs),
(212,88,l),
(212,76,ls)
);
}
);
width = 557;
}
);
tags = (
"to-flat"
);
unicode = 165;
},
{
glyphname = minus;
lastChange = "2026-06-15 15:49:53 +0000";
layers = (
{
layerId = "FDF8D1BA-B4CE-4A91-B9C2-23316F7DE4E8";
shapes = (
{
closed = 1;
nodes = (
(549,270,ls),
(661,270,o),
(661,406,o),
(549,406,cs),
(103,406,ls),
(-5,406,o),
(-5,270,o),
(103,270,cs)
);
}
);
width = 655;
}
);
unicode = 8722;
},
{
glyphname = multiply;
lastChange = "2026-06-15 15:50:12 +0000";
layers = (
{
layerId = "FDF8D1BA-B4CE-4A91-B9C2-23316F7DE4E8";
shapes = (
{
closed = 1;
nodes = (
(73.45,192,ls),
(-6.55,112,o),
(91.45,14,o),
(171.45,94,cs),
(585.45,510,ls),
(661.45,586,o),
(563.45,682,o),
(487.45,606,cs)
);
},
{
closed = 1;
nodes = (
(483.45,96,ls),
(563.45,16,o),
(661.45,114,o),
(581.45,194,cs),
(167.45,608,ls),
(91.45,684,o),
(-6.55,586,o),
(69.45,510,cs)
);
}
);
width = 655;
}
);
unicode = 215;
},
{
glyphname = notequal;
lastChange = "2026-06-17 19:31:43 +0000";
layers = (
{
layerId = "FDF8D1BA-B4CE-4A91-B9C2-23316F7DE4E8";
shapes = (
{
closed = 1;
nodes = (
(290,120,l),
(549,120,ls),
(661,120,o),
(661,256,o),
(549,256,cs),
(364,256,l),
(453,420,l),
(549,420,ls),
(661,420,o),
(661,556,o),
(549,556,cs),
(527,556,l),
(531,564,ls),
(587,666,o),
(461,728,o),
(407,630,cs),
(367,556,l),
(103,556,ls),
(-5,556,o),
(-5,420,o),
(103,420,cs),
(293,420,l),
(203,256,l),
(103,256,ls),
(-5,256,o),
(-5,120,o),
(103,120,cs),
(129,120,l),
(125,112,ls),
(71,12,o),
(199,-46,o),
(253,52,cs)
);
}
);
width = 655;
}
);
tags = (
"to-flat"
);
unicode = 8800;
},
{
glyphname = less;
lastChange = "2026-06-15 15:54:04 +0000";
layers = (
{
layerId = "FDF8D1BA-B4CE-4A91-B9C2-23316F7DE4E8";
shapes = (
{
closed = 1;
nodes = (
(564.026,519.966,ls),
(658.466,573.932,o),
(590.479,691.91,o),
(496.039,637.944,cs),
(90.114,405.987,ls),
(-3.992,352.213,o),
(63.996,234.234,o),
(158.102,288.009,cs)
);
},
{
closed = 1;
nodes = (
(63.996,440.91,o),
(-3.992,322.931,o),
(90.114,269.157,cs),
(496.039,37.2,ls),
(590.479,-16.766,o),
(658.466,101.212,o),
(564.026,155.178,cs),
(158.102,387.135,ls)
);
}
);
width = 655;
}
);
unicode = 60;
},
{
glyphname = greaterequal;
lastChange = "2026-06-15 15:51:35 +0000";
layers = (
{
layerId = "FDF8D1BA-B4CE-4A91-B9C2-23316F7DE4E8";
shapes = (
{
closed = 1;
nodes = (
(616.029,356,o),
(664.029,482,o),
(562.029,520,cs),
(142.029,672,ls),
(38.029,710,o),
(-9.971,582,o),
(96.029,544,cs),
(516.029,392,ls)
);
},
{
closed = 1;
nodes = (
(663.255,418,o),
(617.255,546,o),
(515.255,510,cs),
(95.255,356,ls),
(-8.745,318,o),
(37.255,190,o),
(143.255,228,cs),
(561.255,382,ls)
);
},
{
pos = (10.711,-270);
ref = minus;
scale = (0.9676,1);
}
);
width = 655;
}
);
unicode = 8805;
},
{
glyphname = asciitilde;
lastChange = "2026-06-16 10:44:14 +0000";
layers = (
{
layerId = "FDF8D1BA-B4CE-4A91-B9C2-23316F7DE4E8";
shapes = (
{
closed = 1;
nodes = (
(665.11,410,o),
(569.11,476,o),
(511.11,400,cs),
(493.11,376,o),
(471.11,360,o),
(441.11,360,cs),
(411.11,360,o),
(385.11,378,o),
(353.11,398,cs),
(315.11,424,o),
(267.11,454,o),
(201.11,454,cs),
(131.11,454,o),
(55.11,408,o),
(25.11,340,cs),
(-8.89,266,o),
(87.11,202,o),
(143.11,278,cs),
(161.11,302,o),
(183.11,318,o),
(213.11,318,cs),
(243.11,318,o),
(271.11,300,o),
(301.11,278,cs),
(341.11,252,o),
(387.11,224,o),
(453.11,224,cs),
(523.11,224,o),
(599.11,268,o),
(631.11,336,cs)
);
}
);
width = 655;
}
);
unicode = 126;
},
{
glyphname = asciicircum;
lastChange = "2026-06-08 20:18:20 +0000";
layers = (
{
layerId = "FDF8D1BA-B4CE-4A91-B9C2-23316F7DE4E8";
shapes = (
{
closed = 1;
nodes = (
(318,566,ls),
(374,660,o),
(254,730,o),
(198,634,cs),
(32,346,ls),
(-22,252,o),
(98,182,o),
(152,278,cs)
);
},
{
closed = 1;
nodes = (
(438,182,o),
(558,252,o),
(504,346,cs),
(338,634,ls),
(282,730,o),
(162,660,o),
(218,566,cs),
(384,278,ls)
);
}
);
width = 536;
}
);
unicode = 94;
},
{
glyphname = infinity;
lastChange = "2026-06-13 19:30:06 +0000";
layers = (
{
layerId = "FDF8D1BA-B4CE-4A91-B9C2-23316F7DE4E8";
shapes = (
{
closed = 1;
nodes = (
(162.984,377.176,o),
(190.933,415.692,o),
(229.078,427.584,cs),
(259.104,436.945,o),
(301.352,429.505,o),
(336.212,395.395,cs),
(392.718,340.105,l),
(336.212,284.776,ls),
(301.364,250.653,o),
(259.104,243.226,o),
(229.078,252.587,cs),
(190.933,264.479,o),
(162.984,303.236,o),
(163.423,340.206,c)
);
},
{
closed = 1;
nodes = (
(527.913,166.633,ls),
(616.023,95.517,o),
(730.301,103.748,o),
(787.298,128.557,cs),
(869.056,164.141,o),
(922.772,241.936,o),
(922.76,339.439,cs),
(922.747,436.901,o),
(869.056,514.694,o),
(787.298,550.279,cs),
(730.301,575.087,o),
(616.023,583.318,o),
(527.913,512.202,cs),
(472.774,467.697,l),
(417.85,513.173,ls),
(330.636,585.386,o),
(215.462,576.058,o),
(158.465,551.25,cs),
(76.708,515.665,o),
(23.016,437.872,o),
(23.004,340.411,cs),
(22.991,242.907,o),
(76.708,165.113,o),
(158.465,129.529,cs),
(215.462,104.72,o),
(329.114,97.271,o),
(417.85,167.605,cs),
(472.774,211.138,l)
);
},
{
closed = 1;
nodes = (
(782.779,302.265,o),
(754.83,263.508,o),
(716.685,251.615,cs),
(686.659,242.254,o),
(644.399,249.682,o),
(609.551,283.804,cs),
(553.045,339.133,l),
(609.551,394.424,ls),
(644.411,428.533,o),
(686.659,435.974,o),
(716.685,426.613,cs),
(754.83,414.72,o),
(782.779,376.204,o),
(782.34,339.234,c)
);
}
);
width = 945.76;
}
);
unicode = 8734;
},
{
glyphname = radical;
lastChange = "2026-06-13 19:11:46 +0000";
layers = (
{
layerId = "FDF8D1BA-B4CE-4A91-B9C2-23316F7DE4E8";
shapes = (
{
closed = 1;
nodes = (
(160.296,-22.793,o),
(271.29,-30,o),
(315.29,80,cs),
(497.908,544,l),
(626.302,544,ls),
(728.302,544,o),
(728.302,680,o),
(626.302,680,cs),
(473.642,680,ls),
(424.867,680,o),
(395.714,664.464,o),
(379.416,620.028,cs),
(217.29,178,l),
(153.726,351.638,ls),
(118.481,447.918,o),
(-17.562,402.326,o),
(23.726,303.638,cs),
(117.29,80,ls)
);
}
);
width = 717.8;
}
);
unicode = 8730;
},
{
glyphname = upArrow;
lastChange = "2026-06-08 22:03:31 +0000";
layers = (
{
layerId = "FDF8D1BA-B4CE-4A91-B9C2-23316F7DE4E8";
shapes = (
{
closed = 1;
nodes = (
(294.85,-24,o),
(294.85,74,cs),
(294.85,456,l),
(134.85,304,ls),
(56.85,230,o),
(-29.15,326,o),
(40.85,396,cs),
(300.85,652,ls),
(336.85,688,o),
(390.85,688,o),
(428.85,652,cs),
(688.85,396,ls),
(758.85,326,o),
(670.85,230,o),
(594.85,304,cs),
(434.85,456,l),
(434.85,74,ls),
(434.85,-22,o)
);
}
);
width = 729.4;
}
);
unicode = 8593;
},
{
glyphname = northEastArrow;
lastChange = "2026-06-08 22:03:31 +0000";
layers = (
{
layerId = "FDF8D1BA-B4CE-4A91-B9C2-23316F7DE4E8";
shapes = (
{
closed = 1;
nodes = (
(557.4,454,l),
(549.4,238,ls),
(545.4,130,o),
(687.4,120,o),
(687.4,228,cs),
(687.4,592,ls),
(687.4,644,o),
(645.4,682,o),
(593.4,680,cs),
(225.4,680,ls),
(119.4,682,o),
(119.4,538,o),
(235.4,542,cs),
(455.4,550,l),
(37.4,116,ls),
(-30.6,44,o),
(71.4,-48,o),
(141.4,26,cs)
);
}
);
width = 721.4;
}
);
unicode = 8599;
},
{
glyphname = "brevecomb-cy";
lastChange = "2026-06-17 17:29:42 +0000";
layers = (
{
anchors = (
{
name = _top;
pos = (254,680);
},
{
name = top;
pos = (254,980);
}
);
layerId = "FDF8D1BA-B4CE-4A91-B9C2-23316F7DE4E8";
shapes = (
{
closed = 1;
nodes = (
(298,740,ls),
(404,740,o),
(478,820,o),
(478,916,cs),
(478,1014,o),
(348,1014,o),
(348,926,cs),
(348,898,o),
(332,874,o),
(298,874,cs),
(214,874,ls),
(178,874,o),
(158,898,o),
(158,926,cs),
(158,1014,o),
(28,1014,o),
(28,916,cs),
(28,820,o),
(106,740,o),
(214,740,cs)
);
}
);
width = 0;
}
);
},
{
export = 0;
glyphname = "descender-cy";
lastChange = "2026-06-08 20:19:08 +0000";
layers = (
{
anchors = (
{
name = _bottomright;
pos = (162,0);
}
);
layerId = "FDF8D1BA-B4CE-4A91-B9C2-23316F7DE4E8";
shapes = (
{
closed = 1;
nodes = (
(142,-166,o),
(282,-166,o),
(282,-64,c),
(282,64,l),
(282,110,o),
(254,136,o),
(210,136,c),
(98,136,ls),
(-4,136,o),
(-4,0,o),
(98,0,cs),
(142,0,l),
(142,-64,l)
);
}
);
width = 320;
}
);
subCategory = Spacing;
},
{
export = 0;
glyphname = "tail-cy";
lastChange = "2026-06-08 20:19:09 +0000";
layers = (
{
anchors = (
{
name = _bottomright;
pos = (160,0);
}
);
layerId = "FDF8D1BA-B4CE-4A91-B9C2-23316F7DE4E8";
shapes = (
{
closed = 1;
nodes = (
(290,34,ls),
(304,94,o),
(272,136,o),
(200,136,cs),
(96,136,ls),
(-4,136,o),
(-4,0,o),
(96,0,cs),
(140,0,l),
(128,-56,ls),
(106,-152,o),
(242,-178,o),
(264,-82,cs)
);
}
);
width = 320;
}
);
subCategory = Spacing;
},
{
export = 0;
glyphname = "descender-cy.alt";
lastChange = "2026-06-08 20:19:08 +0000";
layers = (
{
anchors = (
{
name = "_bottomright-alt";
pos = (158,0);
}
);
layerId = "FDF8D1BA-B4CE-4A91-B9C2-23316F7DE4E8";
shapes = (
{
closed = 1;
nodes = (
(38,-166,o),
(178,-166,o),
(178,-64,c),
(178,0,l),
(222,0,ls),
(324,0,o),
(324,136,o),
(222,136,cs),
(110,136,l),
(66,136,o),
(38,110,o),
(38,64,c),
(38,-64,l)
);
}
);
width = 320;
}
);
subCategory = Spacing;
},
{
export = 0;
glyphname = "descender-cy.middle";
lastChange = "2026-06-08 20:19:09 +0000";
layers = (
{
anchors = (
{
name = _bottom;
pos = (108,0);
}
);
layerId = "FDF8D1BA-B4CE-4A91-B9C2-23316F7DE4E8";
shapes = (
{
closed = 1;
nodes = (
(38,-166,o),
(178,-166,o),
(178,-64,cs),
(178,20,l),
(178,122,o),
(38,122,o),
(38,20,cs),
(38,-64,l)
);
}
);
width = 216;
}
);
subCategory = Spacing;
},
{
glyphname = tonos;
lastChange = "2026-06-08 20:19:08 +0000";
layers = (
{
anchors = (
{
name = _topleft;
pos = (228,680);
},
{
name = top;
pos = (92,680);
}
);
layerId = "FDF8D1BA-B4CE-4A91-B9C2-23316F7DE4E8";
shapes = (
{
closed = 1;
nodes = (
(222,580,ls),
(258,674,o),
(134,724,o),
(94,630,cs),
(32,480,ls),
(-12,378,o),
(120,316,o),
(164,432,cs)
);
}
);
width = 250;
}
);
unicode = 900;
},
{
glyphname = acutecomb;
lastChange = "2026-06-17 17:29:42 +0000";
layers = (
{
anchors = (
{
name = _top;
pos = (94,680);
},
{
name = top;
pos = (94,990.938);
}
);
layerId = "FDF8D1BA-B4CE-4A91-B9C2-23316F7DE4E8";
shapes = (
{
closed = 1;
nodes = (
(270,893.292,ls),
(342,964.492,o),
(250,1068.241,o),
(174,995.007,cs),
(54,883.121,ls),
(-28,807.852,o),
(68,698,o),
(154,781.406,cs)
);
}
);
width = 0;
}
);
unicode = 769;
},
{
glyphname = caroncomb.alt;
lastChange = "2026-06-17 17:29:42 +0000";
layers = (
{
anchors = (
{
name = _top;
pos = (112,680);
}
);
layerId = "FDF8D1BA-B4CE-4A91-B9C2-23316F7DE4E8";
shapes = (
{
closed = 1;
nodes = (
(40,316,o),
(180,316,o),
(180,418,cs),
(180,602,ls),
(180,704,o),
(40,704,o),
(40,604,cs),
(40,416,ls)
);
}
);
width = 0;
}
);
},
{
glyphname = circumflexcomb;
lastChange = "2026-06-17 17:29:42 +0000";
layers = (
{
anchors = (
{
name = _top;
pos = (227.47,680);
},
{
name = top;
pos = (227.47,1009);
}
);
layerId = "FDF8D1BA-B4CE-4A91-B9C2-23316F7DE4E8";
shapes = (
{
closed = 1;
nodes = (
(227.47,853,l),
(301.47,781,ls),
(385.47,699,o),
(479.47,805,o),
(401.47,875,cs),
(281.47,985,ls),
(247.47,1017,o),
(205.47,1017,o),
(171.47,985,cs),
(51.47,875,ls),
(-26.53,805,o),
(65.47,699,o),
(151.47,781,cs)
);
}
);
width = 0;
}
);
unicode = 770;
},
{
glyphname = brevecomb;
lastChange = "2026-06-17 17:29:42 +0000";
layers = (
{
anchors = (
{
name = _top;
pos = (250.65,680);
},
{
name = top;
pos = (250.65,996);
}
);
layerId = "FDF8D1BA-B4CE-4A91-B9C2-23316F7DE4E8";
shapes = (
{
closed = 1;
nodes = (
(348.65,750,o),
(436.65,816,o),
(470.65,900,cs),
(506.65,990,o),
(386.65,1046,o),
(344.65,950,cs),
(324.65,904,o),
(286.65,882,o),
(250.65,884,cs),
(210.65,882,o),
(172.65,908,o),
(154.65,950,cs),
(114.65,1044,o),
(-5.35,990,o),
(30.65,900,cs),
(64.65,814,o),
(154.65,750,o),
(250.65,750,cs)
);
}
);
width = 0;
}
);
unicode = 774;
},
{
glyphname = ringcomb;
lastChange = "2026-06-17 17:29:42 +0000";
layers = (
{
anchors = (
{
name = _top;
pos = (182,680);
},
{
name = top;
pos = (182,1040);
}
);
layerId = "FDF8D1BA-B4CE-4A91-B9C2-23316F7DE4E8";
shapes = (
{
closed = 1;
nodes = (
(268,740,o),
(336,808,o),
(336,894,cs),
(336,980,o),
(268,1050,o),
(182,1050,cs),
(96,1050,o),
(26,980,o),
(26,894,cs),
(26,808,o),
(96,740,o),
(182,740,cs)
);
},
{
closed = 1;
nodes = (
(160,854,o),
(140,872,o),
(140,896,cs),
(140,918,o),
(160,938,o),
(182,938,cs),
(206,938,o),
(224,918,o),
(224,896,cs),
(224,872,o),
(206,854,o),
(182,854,cs)
);
}
);
width = 0;
}
);
unicode = 778;
},
{
glyphname = tildecomb;
lastChange = "2026-06-17 17:29:42 +0000";
layers = (
{
anchors = (
{
name = _top;
pos = (237.92,680);
},
{
name = top;
pos = (237.92,933.539);
}
);
layerId = "FDF8D1BA-B4CE-4A91-B9C2-23316F7DE4E8";
shapes = (
{
closed = 1;
nodes = (
(128.013,748.801,o),
(162.371,777.576,o),
(163.409,817.21,cs),
(163.734,829.641,o),
(176.407,829.219,o),
(183.256,824.357,c),
(217.073,786.658,o),
(252.232,751.666,o),
(316.635,749.98,cs),
(392.924,747.982,o),
(448.739,804.572,o),
(450.849,885.139,cs),
(451.892,924.956,o),
(423.135,961.319,o),
(383.535,962.356,cs),
(349.832,963.238,o),
(313.469,934.481,o),
(312.432,894.882,cs),
(312.101,882.247,o),
(299.321,882.701,o),
(294.49,887.792,cs),
(254.863,929.55,o),
(219.605,960.531,o),
(159.206,962.112,cs),
(84.932,964.057,o),
(27.101,907.499,o),
(24.992,826.953,cs),
(23.949,787.136,o),
(52.706,750.773,o),
(92.306,749.736,cs)
);
}
);
width = 0;
}
);
unicode = 771;
},
{
glyphname = macroncomb;
lastChange = "2026-06-17 17:29:42 +0000";
layers = (
{
anchors = (
{
name = _top;
pos = (252,680);
},
{
name = top;
pos = (252,878);
}
);
layerId = "FDF8D1BA-B4CE-4A91-B9C2-23316F7DE4E8";
shapes = (
{
closed = 1;
nodes = (
(392,750,ls),
(500,750,o),
(500,888,o),
(392,888,cs),
(112,888,ls),
(4,888,o),
(4,750,o),
(112,750,cs)
);
}
);
width = 0;
}
);
unicode = 772;
},
{
glyphname = hookabovecomb;
lastChange = "2026-06-17 17:29:42 +0000";
layers = (
{
anchors = (
{
name = _top;
pos = (181.325,680);
},
{
name = top;
pos = (181.325,1041.576);
}
);
layerId = "FDF8D1BA-B4CE-4A91-B9C2-23316F7DE4E8";
shapes = (
{
closed = 1;
nodes = (
(127.338,908.482,o),
(138.689,886.964,o),
(125.25,864.801,cs),
(70.42,774.375,o),
(187.755,701.396,o),
(241.798,792.449,cs),
(311.735,910.282,o),
(231.364,1045.655,o),
(97.198,1044.038,cs),
(-8.679,1042.762,o),
(-4.144,905.656,o),
(101.582,907.929,cs)
);
}
);
width = 0;
}
);
unicode = 777;
},
{
glyphname = commaturnedabovecomb;
lastChange = "2026-06-17 17:29:42 +0000";
layers = (
{
anchors = (
{
name = _top;
pos = (96,680);
},
{
name = top;
pos = (96,1030);
}
);
layerId = "FDF8D1BA-B4CE-4A91-B9C2-23316F7DE4E8";
shapes = (
{
closed = 1;
nodes = (
(210,926,ls),
(246,1024,o),
(116,1074,o),
(80,976,cs),
(32,846,ls),
(-6,742,o),
(124,692,o),
(164,802,cs)
);
}
);
width = 0;
}
);
unicode = 786;
},
{
glyphname = horncomb;
lastChange = "2026-06-17 17:29:42 +0000";
layers = (
{
anchors = (
{
name = _horn;
pos = (27,611.03);
}
);
layerId = "FDF8D1BA-B4CE-4A91-B9C2-23316F7DE4E8";
shapes = (
{
closed = 1;
nodes = (
(266.839,888.913,o),
(130.839,888.913,o),
(130.839,784.913,cs),
(130.839,716.913,o),
(76.839,680.913,o),
(27,680.913,c),
(27,540.913,l),
(174.839,540.913,o),
(266.839,658.913,o),
(266.839,784.913,cs)
);
}
);
width = 0;
}
);
unicode = 795;
},
{
glyphname = cedillacomb;
lastChange = "2026-06-17 17:29:42 +0000";
layers = (
{
anchors = (
{
name = _bottom;
pos = (106,0);
},
{
name = bottom;
pos = (106,-350);
}
);
layerId = "FDF8D1BA-B4CE-4A91-B9C2-23316F7DE4E8";
shapes = (
{
closed = 1;
nodes = (
(194,-275.233,o),
(272,-209.096,o),
(272,-119.617,cs),
(272,-30.137,o),
(194,36,o),
(106,36,cs),
(4,36,o),
(4,-100.165,o),
(106,-100.165,cs),
(142,-100.165,o),
(142,-144.904,o),
(106,-144.904,cs),
(4,-144.904,o),
(4,-275.233,o),
(106,-275.233,cs)
);
}
);
width = 0;
}
);
unicode = 807;
},
{
glyphname = verticallinebelowcomb;
lastChange = "2026-06-17 17:29:42 +0000";
layers = (
{
anchors = (
{
name = _bottom;
pos = (107.997,0);
},
{
name = bottom;
pos = (107.997,-355.41);
}
);
layerId = "FDF8D1BA-B4CE-4A91-B9C2-23316F7DE4E8";
shapes = (
{
closed = 1;
nodes = (
(176.997,-147.519,ls),
(176.997,-41.519,o),
(38.997,-41.519,o),
(38.997,-147.519,cs),
(38.997,-305.519,ls),
(38.997,-409.519,o),
(176.997,-409.519,o),
(176.997,-305.519,cs)
);
}
);
width = 0;
}
);
unicode = 809;
},
{
export = 0;
glyphname = strokeshortcomb;
lastChange = "2026-06-17 17:29:42 +0000";
layers = (
{
layerId = "FDF8D1BA-B4CE-4A91-B9C2-23316F7DE4E8";
shapes = (
{
closed = 1;
nodes = (
(346,270,ls),
(456,270,o),
(456,406,o),
(346,406,cs),
(110,406,ls),
(4,406,o),
(4,270,o),
(110,270,cs)
);
}
);
width = 0;
}
);
unicode = 821;
},
{
export = 0;
glyphname = acutecomb.small;
lastChange = "2026-06-17 17:29:42 +0000";
layers = (
{
anchors = (
{
name = _top;
pos = (102.03,680);
},
{
name = top;
pos = (102.03,970.938);
}
);
layerId = "FDF8D1BA-B4CE-4A91-B9C2-23316F7DE4E8";
shapes = (
{
closed = 1;
nodes = (
(245.494,837.067,ls),
(332.921,894.411,o),
(257.997,1007.354,o),
(169.693,952.223,cs),
(65.844,887.387,ls),
(-27.432,829.152,o),
(51.257,709.668,o),
(145.584,771.536,cs)
);
}
);
width = 0;
}
);
},
{
export = 0;
glyphname = circumflexcomb.small;
lastChange = "2026-06-17 17:29:42 +0000";
layers = (
{
anchors = (
{
name = _top;
pos = (206.473,680);
},
{
name = top;
pos = (206.473,950);
}
);
layerId = "FDF8D1BA-B4CE-4A91-B9C2-23316F7DE4E8";
shapes = (
{
closed = 1;
nodes = (
(145.161,759.217,ls),
(47.191,697.282,o),
(-24.434,815.975,o),
(67.551,871.683,cs),
(161.401,928.52,ls),
(192.091,947.106,o),
(219.133,947.107,o),
(249.822,928.52,cs),
(343.672,871.683,ls),
(435.657,815.975,o),
(363.755,696.846,o),
(266.066,759.215,cs),
(205.91,797.622,l)
);
}
);
width = 0;
}
);
},
{
export = 0;
glyphname = brevecomb.small;
lastChange = "2026-06-17 17:29:42 +0000";
layers = (
{
anchors = (
{
name = _top;
pos = (221.75,680);
},
{
name = top;
pos = (221.75,927.484);
}
);
layerId = "FDF8D1BA-B4CE-4A91-B9C2-23316F7DE4E8";
shapes = (
{
closed = 1;
nodes = (
(192.467,875,o),
(167.1,889.608,o),
(144.397,911.205,cs),
(77.143,975.185,o),
(-17.665,894.27,o),
(46.096,818.224,cs),
(88.077,768.152,o),
(154.717,739,o),
(221.75,739,cs),
(288.783,739,o),
(355.63,768.151,o),
(397.612,818.224,cs),
(461.372,894.27,o),
(366.564,975.185,o),
(299.31,911.205,cs),
(276.609,889.609,o),
(251.034,875,o),
(221.75,875,cs)
);
}
);
width = 0;
}
);
},
{
export = 0;
glyphname = tildecomb.small;
lastChange = "2026-06-17 17:29:42 +0000";
layers = (
{
anchors = (
{
name = _top;
pos = (237.92,680);
},
{
name = top;
pos = (237.92,955);
}
);
layerId = "FDF8D1BA-B4CE-4A91-B9C2-23316F7DE4E8";
shapes = (
{
closed = 1;
nodes = (
(130.446,739.776,o),
(164.789,768.538,o),
(165.819,807.873,cs),
(166.112,819.062,o),
(177.237,818.691,o),
(183.63,814.169,c),
(216.742,777.237,o),
(251.537,742.607,o),
(315.118,740.942,cs),
(390.427,738.97,o),
(445.738,801.109,o),
(447.817,880.516,cs),
(448.85,919.941,o),
(420.122,956.267,o),
(380.804,957.297,cs),
(347.377,958.172,o),
(311.051,929.444,o),
(310.022,890.127,cs),
(309.729,878.94,o),
(298.465,879.28,o),
(294.144,883.833,cs),
(255.236,924.834,o),
(220.34,955.497,o),
(160.722,957.058,cs),
(87.401,958.978,o),
(30.102,896.881,o),
(28.023,817.484,cs),
(26.991,778.059,o),
(55.719,741.733,o),
(95.036,740.703,cs)
);
}
);
width = 0;
}
);
},
{
export = 0;
glyphname = hookabovecomb.small;
lastChange = "2026-06-17 17:29:42 +0000";
layers = (
{
anchors = (
{
name = _top;
pos = (189.275,680);
},
{
name = top;
pos = (189.275,1004.576);
}
);
layerId = "FDF8D1BA-B4CE-4A91-B9C2-23316F7DE4E8";
shapes = (
{
closed = 1;
nodes = (
(294.194,908.359,o),
(207.869,1011.55,o),
(84.995,988.354,cs),
(-15.255,969.429,o),
(11.87,840.52,o),
(111.981,859.98,cs),
(129.654,863.415,o),
(136.315,855.59,o),
(129.928,837.041,cs),
(96.725,740.612,o),
(219.352,696.244,o),
(253.293,792.439,cs)
);
}
);
width = 0;
}
);
},
{
glyphname = apostrophemod;
lastChange = "2026-06-13 18:33:06 +0000";
layers = (
{
layerId = "FDF8D1BA-B4CE-4A91-B9C2-23316F7DE4E8";
shapes = (
{
closed = 1;
nodes = (
(177,600,ls),
(177,706,o),
(39,706,o),
(39,600,cs),
(39,418,ls),
(39,314,o),
(177,314,o),
(177,418,cs)
);
}
);
width = 216;
}
);
unicode = 700;
},
{
export = 0;
glyphname = percentage_o;
lastChange = "2026-06-08 20:19:08 +0000";
layers = (
{
layerId = "FDF8D1BA-B4CE-4A91-B9C2-23316F7DE4E8";
shapes = (
{
closed = 1;
nodes = (
(322,-10,o),
(394,94,o),
(394,200,cs),
(396,306,o),
(324,410,o),
(208,410,cs),
(96,410,o),
(24,306,o),
(24,200,cs),
(24,94,o),
(96,-10,o),
(208,-10,cs)
);
},
{
closed = 1;
nodes = (
(174,120,o),
(148,160,o),
(148,200,cs),
(148,242,o),
(172,284,o),
(208,284,cs),
(248,284,o),
(270,244,o),
(270,200,cs),
(270,162,o),
(248,120,o),
(208,120,cs)
);
}
